G04 #@! TF.GenerationSoftware,KiCad,Pcbnew,5.0.2-bee76a0~70~ubuntu18.04.1*
G04 #@! TF.CreationDate,2019-01-18T14:13:04+00:00*
G04 #@! TF.ProjectId,badge,62616467-652e-46b6-9963-61645f706362,rev?*
G04 #@! TF.SameCoordinates,Original*
G04 #@! TF.FileFunction,Soldermask,Bot*
G04 #@! TF.FilePolarity,Negative*
%FSLAX46Y46*%
G04 Gerber Fmt 4.6, Leading zero omitted, Abs format (unit mm)*
G04 Created by KiCad (PCBNEW 5.0.2-bee76a0~70~ubuntu18.04.1) date Fri 18 Jan 2019 14:13:04 GMT*
%MOMM*%
%LPD*%
G01*
G04 APERTURE LIST*
%ADD10C,0.100000*%
G04 APERTURE END LIST*
D10*
G36*
X27393413Y-116440525D02*
X27468456Y-116463290D01*
X27478425Y-116466314D01*
X27556774Y-116508193D01*
X27625448Y-116564552D01*
X27681807Y-116633226D01*
X27723686Y-116711575D01*
X27723687Y-116711579D01*
X27749475Y-116796587D01*
X27758182Y-116885000D01*
X27749475Y-116973413D01*
X27729882Y-117038000D01*
X27723686Y-117058425D01*
X27681807Y-117136774D01*
X27625448Y-117205448D01*
X27556774Y-117261807D01*
X27478425Y-117303686D01*
X27468456Y-117306710D01*
X27393413Y-117329475D01*
X27327158Y-117336000D01*
X26682842Y-117336000D01*
X26616587Y-117329475D01*
X26541544Y-117306710D01*
X26531575Y-117303686D01*
X26453226Y-117261807D01*
X26384552Y-117205448D01*
X26328193Y-117136774D01*
X26286314Y-117058425D01*
X26280118Y-117038000D01*
X26260525Y-116973413D01*
X26251818Y-116885000D01*
X26260525Y-116796587D01*
X26286313Y-116711579D01*
X26286314Y-116711575D01*
X26328193Y-116633226D01*
X26384552Y-116564552D01*
X26453226Y-116508193D01*
X26531575Y-116466314D01*
X26541544Y-116463290D01*
X26616587Y-116440525D01*
X26682842Y-116434000D01*
X27327158Y-116434000D01*
X27393413Y-116440525D01*
X27393413Y-116440525D01*
G37*
G36*
X55351938Y-116471716D02*
X55372556Y-116477970D01*
X55391556Y-116488126D01*
X55408208Y-116501792D01*
X55421874Y-116518444D01*
X55432030Y-116537444D01*
X55438284Y-116558062D01*
X55441000Y-116585640D01*
X55441000Y-117094360D01*
X55438284Y-117121938D01*
X55432030Y-117142556D01*
X55421874Y-117161556D01*
X55408208Y-117178208D01*
X55391556Y-117191874D01*
X55372556Y-117202030D01*
X55351938Y-117208284D01*
X55324360Y-117211000D01*
X54865640Y-117211000D01*
X54838062Y-117208284D01*
X54817444Y-117202030D01*
X54798444Y-117191874D01*
X54781792Y-117178208D01*
X54768126Y-117161556D01*
X54757970Y-117142556D01*
X54751716Y-117121938D01*
X54749000Y-117094360D01*
X54749000Y-116585640D01*
X54751716Y-116558062D01*
X54757970Y-116537444D01*
X54768126Y-116518444D01*
X54781792Y-116501792D01*
X54798444Y-116488126D01*
X54817444Y-116477970D01*
X54838062Y-116471716D01*
X54865640Y-116469000D01*
X55324360Y-116469000D01*
X55351938Y-116471716D01*
X55351938Y-116471716D01*
G37*
G36*
X54381938Y-116471716D02*
X54402556Y-116477970D01*
X54421556Y-116488126D01*
X54438208Y-116501792D01*
X54451874Y-116518444D01*
X54462030Y-116537444D01*
X54468284Y-116558062D01*
X54471000Y-116585640D01*
X54471000Y-117094360D01*
X54468284Y-117121938D01*
X54462030Y-117142556D01*
X54451874Y-117161556D01*
X54438208Y-117178208D01*
X54421556Y-117191874D01*
X54402556Y-117202030D01*
X54381938Y-117208284D01*
X54354360Y-117211000D01*
X53895640Y-117211000D01*
X53868062Y-117208284D01*
X53847444Y-117202030D01*
X53828444Y-117191874D01*
X53811792Y-117178208D01*
X53798126Y-117161556D01*
X53787970Y-117142556D01*
X53781716Y-117121938D01*
X53779000Y-117094360D01*
X53779000Y-116585640D01*
X53781716Y-116558062D01*
X53787970Y-116537444D01*
X53798126Y-116518444D01*
X53811792Y-116501792D01*
X53828444Y-116488126D01*
X53847444Y-116477970D01*
X53868062Y-116471716D01*
X53895640Y-116469000D01*
X54354360Y-116469000D01*
X54381938Y-116471716D01*
X54381938Y-116471716D01*
G37*
G36*
X33664672Y-109233449D02*
X33664674Y-109233450D01*
X33664675Y-109233450D01*
X33733103Y-109261793D01*
X33794409Y-109302757D01*
X33794689Y-109302944D01*
X33847056Y-109355311D01*
X33847058Y-109355314D01*
X33888207Y-109416897D01*
X33916550Y-109485325D01*
X33916551Y-109485328D01*
X33931000Y-109557966D01*
X33931000Y-109632034D01*
X33916895Y-109702944D01*
X33916550Y-109704675D01*
X33888207Y-109773103D01*
X33858944Y-109816897D01*
X33847056Y-109834689D01*
X33794689Y-109887056D01*
X33794686Y-109887058D01*
X33733103Y-109928207D01*
X33664675Y-109956550D01*
X33664674Y-109956550D01*
X33664672Y-109956551D01*
X33592034Y-109971000D01*
X33517966Y-109971000D01*
X33445328Y-109956551D01*
X33445326Y-109956550D01*
X33445325Y-109956550D01*
X33401902Y-109938564D01*
X33378456Y-109931452D01*
X33354069Y-109929050D01*
X33329683Y-109931452D01*
X33306234Y-109938565D01*
X33284623Y-109950116D01*
X33265681Y-109965661D01*
X33250135Y-109984603D01*
X33238584Y-110006214D01*
X33231471Y-110029664D01*
X33231000Y-110032032D01*
X33231000Y-110032033D01*
X33216550Y-110104675D01*
X33188207Y-110173103D01*
X33147243Y-110234409D01*
X33147056Y-110234689D01*
X33094687Y-110287058D01*
X33088687Y-110291067D01*
X33069745Y-110306612D01*
X33054200Y-110325554D01*
X33042649Y-110347165D01*
X33035536Y-110370614D01*
X33033134Y-110395001D01*
X33035536Y-110419387D01*
X33042649Y-110442836D01*
X33054201Y-110464447D01*
X33069746Y-110483389D01*
X33088687Y-110498933D01*
X33094687Y-110502942D01*
X33147056Y-110555311D01*
X33147058Y-110555314D01*
X33188207Y-110616897D01*
X33202850Y-110652250D01*
X33216551Y-110685328D01*
X33231471Y-110760336D01*
X33238584Y-110783785D01*
X33250135Y-110805396D01*
X33265680Y-110824338D01*
X33284622Y-110839883D01*
X33306233Y-110851435D01*
X33329682Y-110858548D01*
X33354068Y-110860950D01*
X33378455Y-110858548D01*
X33401902Y-110851436D01*
X33445325Y-110833450D01*
X33445326Y-110833450D01*
X33445328Y-110833449D01*
X33517966Y-110819000D01*
X33592034Y-110819000D01*
X33664672Y-110833449D01*
X33664674Y-110833450D01*
X33664675Y-110833450D01*
X33733103Y-110861793D01*
X33788786Y-110899000D01*
X33794689Y-110902944D01*
X33847056Y-110955311D01*
X33847058Y-110955314D01*
X33888207Y-111016897D01*
X33916550Y-111085325D01*
X33916551Y-111085328D01*
X33931000Y-111157966D01*
X33931000Y-111232034D01*
X33917693Y-111298933D01*
X33916550Y-111304675D01*
X33888207Y-111373103D01*
X33858944Y-111416897D01*
X33847056Y-111434689D01*
X33794687Y-111487058D01*
X33788687Y-111491067D01*
X33769745Y-111506612D01*
X33754200Y-111525554D01*
X33742649Y-111547165D01*
X33735536Y-111570614D01*
X33733134Y-111595001D01*
X33735536Y-111619387D01*
X33742649Y-111642836D01*
X33754201Y-111664447D01*
X33769746Y-111683389D01*
X33788687Y-111698933D01*
X33794687Y-111702942D01*
X33847056Y-111755311D01*
X33847058Y-111755314D01*
X33888207Y-111816897D01*
X33895576Y-111834689D01*
X33916551Y-111885328D01*
X33931000Y-111957966D01*
X33931000Y-112032034D01*
X33924582Y-112064301D01*
X33916550Y-112104675D01*
X33888207Y-112173103D01*
X33867615Y-112203920D01*
X33847056Y-112234689D01*
X33794687Y-112287058D01*
X33788687Y-112291067D01*
X33769745Y-112306612D01*
X33754200Y-112325554D01*
X33742649Y-112347165D01*
X33735536Y-112370614D01*
X33733134Y-112395001D01*
X33735536Y-112419387D01*
X33742649Y-112442836D01*
X33754201Y-112464447D01*
X33769746Y-112483389D01*
X33788687Y-112498933D01*
X33794687Y-112502942D01*
X33847056Y-112555311D01*
X33847058Y-112555314D01*
X33888207Y-112616897D01*
X33904924Y-112657257D01*
X33916551Y-112685328D01*
X33931000Y-112757966D01*
X33931000Y-112832034D01*
X33916895Y-112902944D01*
X33916550Y-112904675D01*
X33888207Y-112973103D01*
X33859092Y-113016676D01*
X33847056Y-113034689D01*
X33794687Y-113087058D01*
X33788687Y-113091067D01*
X33769745Y-113106612D01*
X33754200Y-113125554D01*
X33742649Y-113147165D01*
X33735536Y-113170614D01*
X33733134Y-113195001D01*
X33735536Y-113219387D01*
X33742649Y-113242836D01*
X33754201Y-113264447D01*
X33769746Y-113283389D01*
X33788687Y-113298933D01*
X33794687Y-113302942D01*
X33847056Y-113355311D01*
X33847058Y-113355314D01*
X33888207Y-113416897D01*
X33915243Y-113482169D01*
X33916551Y-113485328D01*
X33931000Y-113557966D01*
X33931000Y-113632034D01*
X33916699Y-113703929D01*
X33916550Y-113704675D01*
X33888207Y-113773103D01*
X33865557Y-113807000D01*
X33847056Y-113834689D01*
X33794689Y-113887056D01*
X33794686Y-113887058D01*
X33733103Y-113928207D01*
X33664675Y-113956550D01*
X33664674Y-113956550D01*
X33664672Y-113956551D01*
X33592034Y-113971000D01*
X33517966Y-113971000D01*
X33445328Y-113956551D01*
X33445326Y-113956550D01*
X33445325Y-113956550D01*
X33401902Y-113938564D01*
X33378456Y-113931452D01*
X33354069Y-113929050D01*
X33329683Y-113931452D01*
X33306234Y-113938565D01*
X33284623Y-113950116D01*
X33265681Y-113965661D01*
X33250135Y-113984603D01*
X33238584Y-114006214D01*
X33231471Y-114029664D01*
X33217204Y-114101390D01*
X33216550Y-114104675D01*
X33188207Y-114173103D01*
X33147243Y-114234409D01*
X33147056Y-114234689D01*
X33094687Y-114287058D01*
X33088687Y-114291067D01*
X33069745Y-114306612D01*
X33054200Y-114325554D01*
X33042649Y-114347165D01*
X33035536Y-114370614D01*
X33033134Y-114395001D01*
X33035536Y-114419387D01*
X33042649Y-114442836D01*
X33054201Y-114464447D01*
X33069746Y-114483389D01*
X33088687Y-114498933D01*
X33094687Y-114502942D01*
X33147056Y-114555311D01*
X33147058Y-114555314D01*
X33188207Y-114616897D01*
X33216550Y-114685325D01*
X33216551Y-114685328D01*
X33220553Y-114705448D01*
X33227916Y-114742461D01*
X33231471Y-114760336D01*
X33238584Y-114783785D01*
X33250135Y-114805396D01*
X33265680Y-114824338D01*
X33284622Y-114839883D01*
X33306233Y-114851435D01*
X33329682Y-114858548D01*
X33354068Y-114860950D01*
X33378455Y-114858548D01*
X33401902Y-114851436D01*
X33445325Y-114833450D01*
X33445326Y-114833450D01*
X33445328Y-114833449D01*
X33517966Y-114819000D01*
X33592034Y-114819000D01*
X33664672Y-114833449D01*
X33664674Y-114833450D01*
X33664675Y-114833450D01*
X33733103Y-114861793D01*
X33794409Y-114902757D01*
X33794689Y-114902944D01*
X33847056Y-114955311D01*
X33847058Y-114955314D01*
X33888207Y-115016897D01*
X33916550Y-115085325D01*
X33916551Y-115085328D01*
X33931000Y-115157966D01*
X33931000Y-115232034D01*
X33916551Y-115304675D01*
X33906406Y-115329166D01*
X33899292Y-115352616D01*
X33896890Y-115377002D01*
X33899292Y-115401388D01*
X33906405Y-115424837D01*
X33917956Y-115446448D01*
X33933501Y-115465391D01*
X33952443Y-115480936D01*
X33974053Y-115492487D01*
X33997503Y-115499601D01*
X34021889Y-115502003D01*
X34046275Y-115499601D01*
X34058176Y-115496620D01*
X34131291Y-115474440D01*
X34205000Y-115467181D01*
X34278710Y-115474440D01*
X34349585Y-115495940D01*
X34414904Y-115530854D01*
X34472159Y-115577841D01*
X34519146Y-115635096D01*
X34554057Y-115700410D01*
X34554058Y-115700413D01*
X34554059Y-115700415D01*
X34575559Y-115771291D01*
X34575559Y-115771292D01*
X34575560Y-115771296D01*
X34581000Y-115826529D01*
X34581000Y-116163472D01*
X34575560Y-116218710D01*
X34554060Y-116289585D01*
X34519146Y-116354904D01*
X34472159Y-116412159D01*
X34414908Y-116459143D01*
X34349580Y-116494061D01*
X34278709Y-116515560D01*
X34205000Y-116522819D01*
X34131290Y-116515560D01*
X34060415Y-116494060D01*
X33995096Y-116459146D01*
X33937844Y-116412162D01*
X33925648Y-116397300D01*
X33908321Y-116379973D01*
X33887946Y-116366359D01*
X33865308Y-116356981D01*
X33841274Y-116352200D01*
X33816770Y-116352200D01*
X33792736Y-116356980D01*
X33770097Y-116366357D01*
X33749722Y-116379970D01*
X33732395Y-116397297D01*
X33718781Y-116417672D01*
X33709403Y-116440310D01*
X33704622Y-116464344D01*
X33704622Y-116488850D01*
X33708182Y-116525000D01*
X33699475Y-116613413D01*
X33676710Y-116688456D01*
X33673686Y-116698425D01*
X33631807Y-116776774D01*
X33575448Y-116845448D01*
X33506774Y-116901807D01*
X33428425Y-116943686D01*
X33418456Y-116946710D01*
X33343413Y-116969475D01*
X33277158Y-116976000D01*
X32632842Y-116976000D01*
X32566587Y-116969475D01*
X32491544Y-116946710D01*
X32481575Y-116943686D01*
X32403226Y-116901807D01*
X32334552Y-116845448D01*
X32278193Y-116776774D01*
X32236314Y-116698425D01*
X32233290Y-116688456D01*
X32210525Y-116613413D01*
X32201818Y-116525000D01*
X32210525Y-116436587D01*
X32234674Y-116356981D01*
X32236314Y-116351575D01*
X32278193Y-116273226D01*
X32334552Y-116204552D01*
X32403226Y-116148193D01*
X32481575Y-116106314D01*
X32491544Y-116103290D01*
X32566587Y-116080525D01*
X32632842Y-116074000D01*
X33277158Y-116074000D01*
X33343413Y-116080525D01*
X33418456Y-116103290D01*
X33428425Y-116106314D01*
X33506774Y-116148193D01*
X33570436Y-116200439D01*
X33575448Y-116204552D01*
X33607374Y-116243454D01*
X33624701Y-116260781D01*
X33645076Y-116274394D01*
X33667715Y-116283772D01*
X33691748Y-116288552D01*
X33716253Y-116288552D01*
X33740286Y-116283771D01*
X33762925Y-116274394D01*
X33783300Y-116260780D01*
X33800627Y-116243453D01*
X33814240Y-116223078D01*
X33823618Y-116200439D01*
X33829000Y-116164154D01*
X33829000Y-115826528D01*
X33834440Y-115771292D01*
X33856620Y-115698177D01*
X33861401Y-115674143D01*
X33861401Y-115649639D01*
X33856621Y-115625605D01*
X33847244Y-115602966D01*
X33833630Y-115582592D01*
X33816303Y-115565264D01*
X33795929Y-115551650D01*
X33773290Y-115542273D01*
X33749256Y-115537492D01*
X33724752Y-115537492D01*
X33700718Y-115542272D01*
X33689166Y-115546406D01*
X33664675Y-115556551D01*
X33592034Y-115571000D01*
X33517966Y-115571000D01*
X33445328Y-115556551D01*
X33445326Y-115556550D01*
X33445325Y-115556550D01*
X33376897Y-115528207D01*
X33315314Y-115487058D01*
X33315311Y-115487056D01*
X33262944Y-115434689D01*
X33240693Y-115401388D01*
X33221793Y-115373103D01*
X33193450Y-115304675D01*
X33190770Y-115291200D01*
X33178529Y-115229664D01*
X33171416Y-115206215D01*
X33159865Y-115184604D01*
X33144320Y-115165662D01*
X33125378Y-115150117D01*
X33103767Y-115138565D01*
X33080318Y-115131452D01*
X33055932Y-115129050D01*
X33031545Y-115131452D01*
X33008098Y-115138564D01*
X32964675Y-115156550D01*
X32964674Y-115156550D01*
X32964672Y-115156551D01*
X32892034Y-115171000D01*
X32817966Y-115171000D01*
X32745328Y-115156551D01*
X32745326Y-115156550D01*
X32745325Y-115156550D01*
X32676897Y-115128207D01*
X32615314Y-115087058D01*
X32615311Y-115087056D01*
X32562944Y-115034689D01*
X32551056Y-115016897D01*
X32521793Y-114973103D01*
X32493450Y-114904675D01*
X32493106Y-114902944D01*
X32479000Y-114832034D01*
X32479000Y-114757966D01*
X32493449Y-114685328D01*
X32493450Y-114685325D01*
X32521793Y-114616897D01*
X32562942Y-114555314D01*
X32562944Y-114555311D01*
X32615313Y-114502942D01*
X32621313Y-114498933D01*
X32640255Y-114483388D01*
X32655800Y-114464446D01*
X32667351Y-114442835D01*
X32674464Y-114419386D01*
X32676866Y-114394999D01*
X32674464Y-114370613D01*
X32667351Y-114347164D01*
X32655799Y-114325553D01*
X32640254Y-114306611D01*
X32621313Y-114291067D01*
X32615313Y-114287058D01*
X32562944Y-114234689D01*
X32562757Y-114234409D01*
X32521793Y-114173103D01*
X32493450Y-114104675D01*
X32492797Y-114101390D01*
X32479000Y-114032034D01*
X32479000Y-113957966D01*
X32493449Y-113885328D01*
X32500571Y-113868133D01*
X32521793Y-113816897D01*
X32562942Y-113755314D01*
X32562944Y-113755311D01*
X32615313Y-113702942D01*
X32621313Y-113698933D01*
X32640255Y-113683388D01*
X32655800Y-113664446D01*
X32667351Y-113642835D01*
X32674464Y-113619386D01*
X32676866Y-113594999D01*
X32674464Y-113570613D01*
X32667351Y-113547164D01*
X32655799Y-113525553D01*
X32640254Y-113506611D01*
X32621313Y-113491067D01*
X32615313Y-113487058D01*
X32562944Y-113434689D01*
X32548461Y-113413014D01*
X32521793Y-113373103D01*
X32493450Y-113304675D01*
X32492308Y-113298933D01*
X32479000Y-113232034D01*
X32479000Y-113157966D01*
X32493449Y-113085328D01*
X32493450Y-113085325D01*
X32521793Y-113016897D01*
X32562942Y-112955314D01*
X32562944Y-112955311D01*
X32615311Y-112902944D01*
X32615591Y-112902757D01*
X32676897Y-112861793D01*
X32745325Y-112833450D01*
X32745326Y-112833450D01*
X32745328Y-112833449D01*
X32817966Y-112819000D01*
X32892034Y-112819000D01*
X32964672Y-112833449D01*
X32964674Y-112833450D01*
X32964675Y-112833450D01*
X33008098Y-112851436D01*
X33031544Y-112858548D01*
X33055931Y-112860950D01*
X33080317Y-112858548D01*
X33103766Y-112851435D01*
X33125377Y-112839884D01*
X33144319Y-112824339D01*
X33159865Y-112805397D01*
X33171416Y-112783786D01*
X33178529Y-112760336D01*
X33193449Y-112685328D01*
X33205076Y-112657257D01*
X33221793Y-112616897D01*
X33262942Y-112555314D01*
X33262944Y-112555311D01*
X33315313Y-112502942D01*
X33321313Y-112498933D01*
X33340255Y-112483388D01*
X33355800Y-112464446D01*
X33367351Y-112442835D01*
X33374464Y-112419386D01*
X33376866Y-112394999D01*
X33374464Y-112370613D01*
X33367351Y-112347164D01*
X33355799Y-112325553D01*
X33340254Y-112306611D01*
X33321313Y-112291067D01*
X33315313Y-112287058D01*
X33262944Y-112234689D01*
X33242385Y-112203920D01*
X33221793Y-112173103D01*
X33193450Y-112104675D01*
X33179000Y-112032033D01*
X33179000Y-112032032D01*
X33178529Y-112029664D01*
X33171416Y-112006215D01*
X33159865Y-111984604D01*
X33144320Y-111965662D01*
X33125378Y-111950117D01*
X33103767Y-111938565D01*
X33080318Y-111931452D01*
X33055932Y-111929050D01*
X33031545Y-111931452D01*
X33008098Y-111938564D01*
X32964675Y-111956550D01*
X32964674Y-111956550D01*
X32964672Y-111956551D01*
X32892034Y-111971000D01*
X32817966Y-111971000D01*
X32745328Y-111956551D01*
X32745326Y-111956550D01*
X32745325Y-111956550D01*
X32676897Y-111928207D01*
X32615314Y-111887058D01*
X32615311Y-111887056D01*
X32562944Y-111834689D01*
X32544443Y-111807000D01*
X32521793Y-111773103D01*
X32493450Y-111704675D01*
X32493302Y-111703929D01*
X32479000Y-111632034D01*
X32479000Y-111557966D01*
X32493449Y-111485328D01*
X32506618Y-111453534D01*
X32521793Y-111416897D01*
X32562942Y-111355314D01*
X32562944Y-111355311D01*
X32615313Y-111302942D01*
X32621313Y-111298933D01*
X32640255Y-111283388D01*
X32655800Y-111264446D01*
X32667351Y-111242835D01*
X32674464Y-111219386D01*
X32676866Y-111194999D01*
X32674464Y-111170613D01*
X32667351Y-111147164D01*
X32655799Y-111125553D01*
X32640254Y-111106611D01*
X32621313Y-111091067D01*
X32615313Y-111087058D01*
X32562944Y-111034689D01*
X32550908Y-111016676D01*
X32521793Y-110973103D01*
X32493450Y-110904675D01*
X32493106Y-110902944D01*
X32479000Y-110832034D01*
X32479000Y-110757966D01*
X32493449Y-110685328D01*
X32507150Y-110652250D01*
X32521793Y-110616897D01*
X32562942Y-110555314D01*
X32562944Y-110555311D01*
X32615313Y-110502942D01*
X32621313Y-110498933D01*
X32640255Y-110483388D01*
X32655800Y-110464446D01*
X32667351Y-110442835D01*
X32674464Y-110419386D01*
X32676866Y-110394999D01*
X32674464Y-110370613D01*
X32667351Y-110347164D01*
X32655799Y-110325553D01*
X32640254Y-110306611D01*
X32621313Y-110291067D01*
X32615313Y-110287058D01*
X32562944Y-110234689D01*
X32562757Y-110234409D01*
X32521793Y-110173103D01*
X32493450Y-110104675D01*
X32479000Y-110032033D01*
X32479000Y-109957966D01*
X32493449Y-109885328D01*
X32514424Y-109834689D01*
X32521793Y-109816897D01*
X32562942Y-109755314D01*
X32562944Y-109755311D01*
X32615311Y-109702944D01*
X32642383Y-109684855D01*
X32676897Y-109661793D01*
X32745325Y-109633450D01*
X32745326Y-109633450D01*
X32745328Y-109633449D01*
X32817966Y-109619000D01*
X32892034Y-109619000D01*
X32964672Y-109633449D01*
X32964674Y-109633450D01*
X32964675Y-109633450D01*
X33008098Y-109651436D01*
X33031544Y-109658548D01*
X33055931Y-109660950D01*
X33080317Y-109658548D01*
X33103766Y-109651435D01*
X33125377Y-109639884D01*
X33144319Y-109624339D01*
X33159865Y-109605397D01*
X33171416Y-109583786D01*
X33178529Y-109560336D01*
X33193449Y-109485328D01*
X33193450Y-109485325D01*
X33221793Y-109416897D01*
X33262942Y-109355314D01*
X33262944Y-109355311D01*
X33315311Y-109302944D01*
X33315591Y-109302757D01*
X33376897Y-109261793D01*
X33445325Y-109233450D01*
X33445326Y-109233450D01*
X33445328Y-109233449D01*
X33517966Y-109219000D01*
X33592034Y-109219000D01*
X33664672Y-109233449D01*
X33664672Y-109233449D01*
G37*
G36*
X54091000Y-115626000D02*
X52929000Y-115626000D01*
X52929000Y-114874000D01*
X54091000Y-114874000D01*
X54091000Y-115626000D01*
X54091000Y-115626000D01*
G37*
G36*
X56291000Y-115626000D02*
X55129000Y-115626000D01*
X55129000Y-112974000D01*
X56291000Y-112974000D01*
X56291000Y-115626000D01*
X56291000Y-115626000D01*
G37*
G36*
X41835357Y-114395083D02*
X41840028Y-114396500D01*
X41844330Y-114398800D01*
X41850705Y-114404031D01*
X41871080Y-114417644D01*
X41893719Y-114427020D01*
X41917753Y-114431800D01*
X41942257Y-114431799D01*
X41966291Y-114427017D01*
X41988929Y-114417639D01*
X42009295Y-114404031D01*
X42015670Y-114398800D01*
X42019972Y-114396500D01*
X42024643Y-114395083D01*
X42035641Y-114394000D01*
X42324359Y-114394000D01*
X42335357Y-114395083D01*
X42340028Y-114396500D01*
X42344330Y-114398800D01*
X42350705Y-114404031D01*
X42371080Y-114417644D01*
X42393719Y-114427020D01*
X42417753Y-114431800D01*
X42442257Y-114431799D01*
X42466291Y-114427017D01*
X42488929Y-114417639D01*
X42509295Y-114404031D01*
X42515670Y-114398800D01*
X42519972Y-114396500D01*
X42524643Y-114395083D01*
X42535641Y-114394000D01*
X42824359Y-114394000D01*
X42835357Y-114395083D01*
X42840028Y-114396500D01*
X42844330Y-114398800D01*
X42850705Y-114404031D01*
X42871080Y-114417644D01*
X42893719Y-114427020D01*
X42917753Y-114431800D01*
X42942257Y-114431799D01*
X42966291Y-114427017D01*
X42988929Y-114417639D01*
X43009295Y-114404031D01*
X43015670Y-114398800D01*
X43019972Y-114396500D01*
X43024643Y-114395083D01*
X43035641Y-114394000D01*
X43324359Y-114394000D01*
X43335357Y-114395083D01*
X43340028Y-114396500D01*
X43344330Y-114398800D01*
X43350705Y-114404031D01*
X43371080Y-114417644D01*
X43393719Y-114427020D01*
X43417753Y-114431800D01*
X43442257Y-114431799D01*
X43466291Y-114427017D01*
X43488929Y-114417639D01*
X43509295Y-114404031D01*
X43515670Y-114398800D01*
X43519972Y-114396500D01*
X43524643Y-114395083D01*
X43535641Y-114394000D01*
X43824359Y-114394000D01*
X43835357Y-114395083D01*
X43840028Y-114396500D01*
X43844330Y-114398800D01*
X43850705Y-114404031D01*
X43871080Y-114417644D01*
X43893719Y-114427020D01*
X43917753Y-114431800D01*
X43942257Y-114431799D01*
X43966291Y-114427017D01*
X43988929Y-114417639D01*
X44009295Y-114404031D01*
X44015670Y-114398800D01*
X44019972Y-114396500D01*
X44024643Y-114395083D01*
X44035641Y-114394000D01*
X44324359Y-114394000D01*
X44335357Y-114395083D01*
X44340028Y-114396500D01*
X44344330Y-114398800D01*
X44350705Y-114404031D01*
X44371080Y-114417644D01*
X44393719Y-114427020D01*
X44417753Y-114431800D01*
X44442257Y-114431799D01*
X44466291Y-114427017D01*
X44488929Y-114417639D01*
X44509295Y-114404031D01*
X44515670Y-114398800D01*
X44519972Y-114396500D01*
X44524643Y-114395083D01*
X44535641Y-114394000D01*
X44824359Y-114394000D01*
X44835357Y-114395083D01*
X44840028Y-114396500D01*
X44844330Y-114398800D01*
X44848104Y-114401896D01*
X44851200Y-114405670D01*
X44853500Y-114409972D01*
X44854917Y-114414643D01*
X44856000Y-114425641D01*
X44856000Y-115264359D01*
X44854917Y-115275357D01*
X44853500Y-115280028D01*
X44851200Y-115284330D01*
X44848104Y-115288104D01*
X44844330Y-115291200D01*
X44840028Y-115293500D01*
X44835357Y-115294917D01*
X44824359Y-115296000D01*
X44535641Y-115296000D01*
X44524643Y-115294917D01*
X44519972Y-115293500D01*
X44515670Y-115291200D01*
X44509295Y-115285969D01*
X44488920Y-115272356D01*
X44466281Y-115262980D01*
X44442247Y-115258200D01*
X44417743Y-115258201D01*
X44393709Y-115262983D01*
X44371071Y-115272361D01*
X44350705Y-115285969D01*
X44344330Y-115291200D01*
X44340028Y-115293500D01*
X44335357Y-115294917D01*
X44324359Y-115296000D01*
X44035641Y-115296000D01*
X44024643Y-115294917D01*
X44019972Y-115293500D01*
X44015670Y-115291200D01*
X44009295Y-115285969D01*
X43988920Y-115272356D01*
X43966281Y-115262980D01*
X43942247Y-115258200D01*
X43917743Y-115258201D01*
X43893709Y-115262983D01*
X43871071Y-115272361D01*
X43850705Y-115285969D01*
X43844330Y-115291200D01*
X43840028Y-115293500D01*
X43835357Y-115294917D01*
X43824359Y-115296000D01*
X43535641Y-115296000D01*
X43524643Y-115294917D01*
X43519972Y-115293500D01*
X43515670Y-115291200D01*
X43509295Y-115285969D01*
X43488920Y-115272356D01*
X43466281Y-115262980D01*
X43442247Y-115258200D01*
X43417743Y-115258201D01*
X43393709Y-115262983D01*
X43371071Y-115272361D01*
X43350705Y-115285969D01*
X43344330Y-115291200D01*
X43340028Y-115293500D01*
X43335357Y-115294917D01*
X43324359Y-115296000D01*
X43035641Y-115296000D01*
X43024643Y-115294917D01*
X43019972Y-115293500D01*
X43015670Y-115291200D01*
X43009295Y-115285969D01*
X42988920Y-115272356D01*
X42966281Y-115262980D01*
X42942247Y-115258200D01*
X42917743Y-115258201D01*
X42893709Y-115262983D01*
X42871071Y-115272361D01*
X42850705Y-115285969D01*
X42844330Y-115291200D01*
X42840028Y-115293500D01*
X42835357Y-115294917D01*
X42824359Y-115296000D01*
X42535641Y-115296000D01*
X42524643Y-115294917D01*
X42519972Y-115293500D01*
X42515670Y-115291200D01*
X42509295Y-115285969D01*
X42488920Y-115272356D01*
X42466281Y-115262980D01*
X42442247Y-115258200D01*
X42417743Y-115258201D01*
X42393709Y-115262983D01*
X42371071Y-115272361D01*
X42350705Y-115285969D01*
X42344330Y-115291200D01*
X42340028Y-115293500D01*
X42335357Y-115294917D01*
X42324359Y-115296000D01*
X42035641Y-115296000D01*
X42024643Y-115294917D01*
X42019972Y-115293500D01*
X42015670Y-115291200D01*
X42009295Y-115285969D01*
X41988920Y-115272356D01*
X41966281Y-115262980D01*
X41942247Y-115258200D01*
X41917743Y-115258201D01*
X41893709Y-115262983D01*
X41871071Y-115272361D01*
X41850705Y-115285969D01*
X41844330Y-115291200D01*
X41840028Y-115293500D01*
X41835357Y-115294917D01*
X41824359Y-115296000D01*
X41535641Y-115296000D01*
X41524643Y-115294917D01*
X41519972Y-115293500D01*
X41515670Y-115291200D01*
X41511896Y-115288104D01*
X41508800Y-115284330D01*
X41506500Y-115280028D01*
X41505083Y-115275357D01*
X41504000Y-115264359D01*
X41504000Y-114425641D01*
X41505083Y-114414643D01*
X41506500Y-114409972D01*
X41508800Y-114405670D01*
X41511896Y-114401896D01*
X41515670Y-114398800D01*
X41519972Y-114396500D01*
X41524643Y-114395083D01*
X41535641Y-114394000D01*
X41824359Y-114394000D01*
X41835357Y-114395083D01*
X41835357Y-114395083D01*
G37*
G36*
X91078600Y-113402989D02*
X91111649Y-113413014D01*
X91142106Y-113429294D01*
X91168799Y-113451201D01*
X91190706Y-113477894D01*
X91206986Y-113508351D01*
X91217011Y-113541400D01*
X91221000Y-113581904D01*
X91221000Y-115018096D01*
X91217011Y-115058600D01*
X91206986Y-115091649D01*
X91190706Y-115122106D01*
X91168799Y-115148799D01*
X91142106Y-115170706D01*
X91111649Y-115186986D01*
X91078600Y-115197011D01*
X91038096Y-115201000D01*
X89301904Y-115201000D01*
X89261400Y-115197011D01*
X89228351Y-115186986D01*
X89197894Y-115170706D01*
X89171201Y-115148799D01*
X89149294Y-115122106D01*
X89133014Y-115091649D01*
X89122989Y-115058600D01*
X89119000Y-115018096D01*
X89119000Y-113581904D01*
X89122989Y-113541400D01*
X89133014Y-113508351D01*
X89149294Y-113477894D01*
X89171201Y-113451201D01*
X89197894Y-113429294D01*
X89228351Y-113413014D01*
X89261400Y-113402989D01*
X89301904Y-113399000D01*
X91038096Y-113399000D01*
X91078600Y-113402989D01*
X91078600Y-113402989D01*
G37*
G36*
X51716938Y-114441716D02*
X51737556Y-114447970D01*
X51756556Y-114458126D01*
X51773208Y-114471792D01*
X51786874Y-114488444D01*
X51797030Y-114507444D01*
X51803284Y-114528062D01*
X51806000Y-114555640D01*
X51806000Y-115014360D01*
X51803284Y-115041938D01*
X51797030Y-115062556D01*
X51786874Y-115081556D01*
X51773208Y-115098208D01*
X51756556Y-115111874D01*
X51737556Y-115122030D01*
X51716938Y-115128284D01*
X51689360Y-115131000D01*
X51180640Y-115131000D01*
X51153062Y-115128284D01*
X51132444Y-115122030D01*
X51113444Y-115111874D01*
X51096792Y-115098208D01*
X51083126Y-115081556D01*
X51072970Y-115062556D01*
X51066716Y-115041938D01*
X51064000Y-115014360D01*
X51064000Y-114555640D01*
X51066716Y-114528062D01*
X51072970Y-114507444D01*
X51083126Y-114488444D01*
X51096792Y-114471792D01*
X51113444Y-114458126D01*
X51132444Y-114447970D01*
X51153062Y-114441716D01*
X51180640Y-114439000D01*
X51689360Y-114439000D01*
X51716938Y-114441716D01*
X51716938Y-114441716D01*
G37*
G36*
X28954591Y-113841085D02*
X28988569Y-113851393D01*
X29019887Y-113868133D01*
X29047339Y-113890661D01*
X29069867Y-113918113D01*
X29086607Y-113949431D01*
X29096915Y-113983409D01*
X29101000Y-114024890D01*
X29101000Y-114626110D01*
X29096915Y-114667591D01*
X29086607Y-114701569D01*
X29069867Y-114732887D01*
X29047339Y-114760339D01*
X29019887Y-114782867D01*
X28988569Y-114799607D01*
X28954591Y-114809915D01*
X28913110Y-114814000D01*
X28236890Y-114814000D01*
X28195409Y-114809915D01*
X28161431Y-114799607D01*
X28130113Y-114782867D01*
X28102661Y-114760339D01*
X28080133Y-114732887D01*
X28063393Y-114701569D01*
X28053085Y-114667591D01*
X28049000Y-114626110D01*
X28049000Y-114024890D01*
X28053085Y-113983409D01*
X28063393Y-113949431D01*
X28080133Y-113918113D01*
X28102661Y-113890661D01*
X28130113Y-113868133D01*
X28161431Y-113851393D01*
X28195409Y-113841085D01*
X28236890Y-113837000D01*
X28913110Y-113837000D01*
X28954591Y-113841085D01*
X28954591Y-113841085D01*
G37*
G36*
X51716938Y-113471716D02*
X51737556Y-113477970D01*
X51756556Y-113488126D01*
X51773208Y-113501792D01*
X51786874Y-113518444D01*
X51797030Y-113537444D01*
X51803284Y-113558062D01*
X51806000Y-113585640D01*
X51806000Y-114044360D01*
X51803284Y-114071938D01*
X51797030Y-114092556D01*
X51786874Y-114111556D01*
X51773208Y-114128208D01*
X51756556Y-114141874D01*
X51737556Y-114152030D01*
X51716938Y-114158284D01*
X51689360Y-114161000D01*
X51180640Y-114161000D01*
X51153062Y-114158284D01*
X51132444Y-114152030D01*
X51113444Y-114141874D01*
X51096792Y-114128208D01*
X51083126Y-114111556D01*
X51072970Y-114092556D01*
X51066716Y-114071938D01*
X51064000Y-114044360D01*
X51064000Y-113585640D01*
X51066716Y-113558062D01*
X51072970Y-113537444D01*
X51083126Y-113518444D01*
X51096792Y-113501792D01*
X51113444Y-113488126D01*
X51132444Y-113477970D01*
X51153062Y-113471716D01*
X51180640Y-113469000D01*
X51689360Y-113469000D01*
X51716938Y-113471716D01*
X51716938Y-113471716D01*
G37*
G36*
X44784123Y-110672499D02*
X44812387Y-110681073D01*
X44838437Y-110694997D01*
X44861267Y-110713733D01*
X44880003Y-110736563D01*
X44893927Y-110762613D01*
X44902501Y-110790877D01*
X44906000Y-110826407D01*
X44906000Y-113963593D01*
X44902501Y-113999123D01*
X44893927Y-114027387D01*
X44880003Y-114053437D01*
X44861267Y-114076267D01*
X44838437Y-114095003D01*
X44812387Y-114108927D01*
X44784123Y-114117501D01*
X44748593Y-114121000D01*
X41611407Y-114121000D01*
X41575877Y-114117501D01*
X41547613Y-114108927D01*
X41521563Y-114095003D01*
X41498733Y-114076267D01*
X41479997Y-114053437D01*
X41466073Y-114027387D01*
X41457499Y-113999123D01*
X41454000Y-113963593D01*
X41454000Y-110826407D01*
X41457499Y-110790877D01*
X41466073Y-110762613D01*
X41479997Y-110736563D01*
X41498733Y-110713733D01*
X41521563Y-110694997D01*
X41547613Y-110681073D01*
X41575877Y-110672499D01*
X41611407Y-110669000D01*
X44748593Y-110669000D01*
X44784123Y-110672499D01*
X44784123Y-110672499D01*
G37*
G36*
X46060357Y-110720083D02*
X46065028Y-110721500D01*
X46069330Y-110723800D01*
X46073104Y-110726896D01*
X46076200Y-110730670D01*
X46078500Y-110734972D01*
X46079917Y-110739643D01*
X46081000Y-110750641D01*
X46081000Y-111039359D01*
X46079917Y-111050357D01*
X46078500Y-111055028D01*
X46076200Y-111059330D01*
X46070969Y-111065705D01*
X46057356Y-111086080D01*
X46047980Y-111108719D01*
X46043200Y-111132753D01*
X46043201Y-111157257D01*
X46047983Y-111181291D01*
X46057361Y-111203929D01*
X46070969Y-111224295D01*
X46076200Y-111230670D01*
X46078500Y-111234972D01*
X46079917Y-111239643D01*
X46081000Y-111250641D01*
X46081000Y-111539359D01*
X46079917Y-111550357D01*
X46078500Y-111555028D01*
X46076200Y-111559330D01*
X46070969Y-111565705D01*
X46057356Y-111586080D01*
X46047980Y-111608719D01*
X46043200Y-111632753D01*
X46043201Y-111657257D01*
X46047983Y-111681291D01*
X46057361Y-111703929D01*
X46070969Y-111724295D01*
X46076200Y-111730670D01*
X46078500Y-111734972D01*
X46079917Y-111739643D01*
X46081000Y-111750641D01*
X46081000Y-112039359D01*
X46079917Y-112050357D01*
X46078500Y-112055028D01*
X46076200Y-112059330D01*
X46070969Y-112065705D01*
X46057356Y-112086080D01*
X46047980Y-112108719D01*
X46043200Y-112132753D01*
X46043201Y-112157257D01*
X46047983Y-112181291D01*
X46057361Y-112203929D01*
X46070969Y-112224295D01*
X46076200Y-112230670D01*
X46078500Y-112234972D01*
X46079917Y-112239643D01*
X46081000Y-112250641D01*
X46081000Y-112539359D01*
X46079917Y-112550357D01*
X46078500Y-112555028D01*
X46076200Y-112559330D01*
X46070969Y-112565705D01*
X46057356Y-112586080D01*
X46047980Y-112608719D01*
X46043200Y-112632753D01*
X46043201Y-112657257D01*
X46047983Y-112681291D01*
X46057361Y-112703929D01*
X46070969Y-112724295D01*
X46076200Y-112730670D01*
X46078500Y-112734972D01*
X46079917Y-112739643D01*
X46081000Y-112750641D01*
X46081000Y-113039359D01*
X46079917Y-113050357D01*
X46078500Y-113055028D01*
X46076200Y-113059330D01*
X46070969Y-113065705D01*
X46057356Y-113086080D01*
X46047980Y-113108719D01*
X46043200Y-113132753D01*
X46043201Y-113157257D01*
X46047983Y-113181291D01*
X46057361Y-113203929D01*
X46070969Y-113224295D01*
X46076200Y-113230670D01*
X46078500Y-113234972D01*
X46079917Y-113239643D01*
X46081000Y-113250641D01*
X46081000Y-113539359D01*
X46079917Y-113550357D01*
X46078500Y-113555028D01*
X46076200Y-113559330D01*
X46070969Y-113565705D01*
X46057356Y-113586080D01*
X46047980Y-113608719D01*
X46043200Y-113632753D01*
X46043201Y-113657257D01*
X46047983Y-113681291D01*
X46057361Y-113703929D01*
X46070969Y-113724295D01*
X46076200Y-113730670D01*
X46078500Y-113734972D01*
X46079917Y-113739643D01*
X46081000Y-113750641D01*
X46081000Y-114039359D01*
X46079917Y-114050357D01*
X46078500Y-114055028D01*
X46076200Y-114059330D01*
X46073104Y-114063104D01*
X46069330Y-114066200D01*
X46065028Y-114068500D01*
X46060357Y-114069917D01*
X46049359Y-114071000D01*
X45210641Y-114071000D01*
X45199643Y-114069917D01*
X45194972Y-114068500D01*
X45190670Y-114066200D01*
X45186896Y-114063104D01*
X45183800Y-114059330D01*
X45181500Y-114055028D01*
X45180083Y-114050357D01*
X45179000Y-114039359D01*
X45179000Y-113750641D01*
X45180083Y-113739643D01*
X45181500Y-113734972D01*
X45183800Y-113730670D01*
X45189031Y-113724295D01*
X45202644Y-113703920D01*
X45212020Y-113681281D01*
X45216800Y-113657247D01*
X45216799Y-113632743D01*
X45212017Y-113608709D01*
X45202639Y-113586071D01*
X45189031Y-113565705D01*
X45183800Y-113559330D01*
X45181500Y-113555028D01*
X45180083Y-113550357D01*
X45179000Y-113539359D01*
X45179000Y-113250641D01*
X45180083Y-113239643D01*
X45181500Y-113234972D01*
X45183800Y-113230670D01*
X45189031Y-113224295D01*
X45202644Y-113203920D01*
X45212020Y-113181281D01*
X45216800Y-113157247D01*
X45216799Y-113132743D01*
X45212017Y-113108709D01*
X45202639Y-113086071D01*
X45189031Y-113065705D01*
X45183800Y-113059330D01*
X45181500Y-113055028D01*
X45180083Y-113050357D01*
X45179000Y-113039359D01*
X45179000Y-112750641D01*
X45180083Y-112739643D01*
X45181500Y-112734972D01*
X45183800Y-112730670D01*
X45189031Y-112724295D01*
X45202644Y-112703920D01*
X45212020Y-112681281D01*
X45216800Y-112657247D01*
X45216799Y-112632743D01*
X45212017Y-112608709D01*
X45202639Y-112586071D01*
X45189031Y-112565705D01*
X45183800Y-112559330D01*
X45181500Y-112555028D01*
X45180083Y-112550357D01*
X45179000Y-112539359D01*
X45179000Y-112250641D01*
X45180083Y-112239643D01*
X45181500Y-112234972D01*
X45183800Y-112230670D01*
X45189031Y-112224295D01*
X45202644Y-112203920D01*
X45212020Y-112181281D01*
X45216800Y-112157247D01*
X45216799Y-112132743D01*
X45212017Y-112108709D01*
X45202639Y-112086071D01*
X45189031Y-112065705D01*
X45183800Y-112059330D01*
X45181500Y-112055028D01*
X45180083Y-112050357D01*
X45179000Y-112039359D01*
X45179000Y-111750641D01*
X45180083Y-111739643D01*
X45181500Y-111734972D01*
X45183800Y-111730670D01*
X45189031Y-111724295D01*
X45202644Y-111703920D01*
X45212020Y-111681281D01*
X45216800Y-111657247D01*
X45216799Y-111632743D01*
X45212017Y-111608709D01*
X45202639Y-111586071D01*
X45189031Y-111565705D01*
X45183800Y-111559330D01*
X45181500Y-111555028D01*
X45180083Y-111550357D01*
X45179000Y-111539359D01*
X45179000Y-111250641D01*
X45180083Y-111239643D01*
X45181500Y-111234972D01*
X45183800Y-111230670D01*
X45189031Y-111224295D01*
X45202644Y-111203920D01*
X45212020Y-111181281D01*
X45216800Y-111157247D01*
X45216799Y-111132743D01*
X45212017Y-111108709D01*
X45202639Y-111086071D01*
X45189031Y-111065705D01*
X45183800Y-111059330D01*
X45181500Y-111055028D01*
X45180083Y-111050357D01*
X45179000Y-111039359D01*
X45179000Y-110750641D01*
X45180083Y-110739643D01*
X45181500Y-110734972D01*
X45183800Y-110730670D01*
X45186896Y-110726896D01*
X45190670Y-110723800D01*
X45194972Y-110721500D01*
X45199643Y-110720083D01*
X45210641Y-110719000D01*
X46049359Y-110719000D01*
X46060357Y-110720083D01*
X46060357Y-110720083D01*
G37*
G36*
X41160357Y-110720083D02*
X41165028Y-110721500D01*
X41169330Y-110723800D01*
X41173104Y-110726896D01*
X41176200Y-110730670D01*
X41178500Y-110734972D01*
X41179917Y-110739643D01*
X41181000Y-110750641D01*
X41181000Y-111039359D01*
X41179917Y-111050357D01*
X41178500Y-111055028D01*
X41176200Y-111059330D01*
X41170969Y-111065705D01*
X41157356Y-111086080D01*
X41147980Y-111108719D01*
X41143200Y-111132753D01*
X41143201Y-111157257D01*
X41147983Y-111181291D01*
X41157361Y-111203929D01*
X41170969Y-111224295D01*
X41176200Y-111230670D01*
X41178500Y-111234972D01*
X41179917Y-111239643D01*
X41181000Y-111250641D01*
X41181000Y-111539359D01*
X41179917Y-111550357D01*
X41178500Y-111555028D01*
X41176200Y-111559330D01*
X41170969Y-111565705D01*
X41157356Y-111586080D01*
X41147980Y-111608719D01*
X41143200Y-111632753D01*
X41143201Y-111657257D01*
X41147983Y-111681291D01*
X41157361Y-111703929D01*
X41170969Y-111724295D01*
X41176200Y-111730670D01*
X41178500Y-111734972D01*
X41179917Y-111739643D01*
X41181000Y-111750641D01*
X41181000Y-112039359D01*
X41179917Y-112050357D01*
X41178500Y-112055028D01*
X41176200Y-112059330D01*
X41170969Y-112065705D01*
X41157356Y-112086080D01*
X41147980Y-112108719D01*
X41143200Y-112132753D01*
X41143201Y-112157257D01*
X41147983Y-112181291D01*
X41157361Y-112203929D01*
X41170969Y-112224295D01*
X41176200Y-112230670D01*
X41178500Y-112234972D01*
X41179917Y-112239643D01*
X41181000Y-112250641D01*
X41181000Y-112539359D01*
X41179917Y-112550357D01*
X41178500Y-112555028D01*
X41176200Y-112559330D01*
X41170969Y-112565705D01*
X41157356Y-112586080D01*
X41147980Y-112608719D01*
X41143200Y-112632753D01*
X41143201Y-112657257D01*
X41147983Y-112681291D01*
X41157361Y-112703929D01*
X41170969Y-112724295D01*
X41176200Y-112730670D01*
X41178500Y-112734972D01*
X41179917Y-112739643D01*
X41181000Y-112750641D01*
X41181000Y-113039359D01*
X41179917Y-113050357D01*
X41178500Y-113055028D01*
X41176200Y-113059330D01*
X41170969Y-113065705D01*
X41157356Y-113086080D01*
X41147980Y-113108719D01*
X41143200Y-113132753D01*
X41143201Y-113157257D01*
X41147983Y-113181291D01*
X41157361Y-113203929D01*
X41170969Y-113224295D01*
X41176200Y-113230670D01*
X41178500Y-113234972D01*
X41179917Y-113239643D01*
X41181000Y-113250641D01*
X41181000Y-113539359D01*
X41179917Y-113550357D01*
X41178500Y-113555028D01*
X41176200Y-113559330D01*
X41170969Y-113565705D01*
X41157356Y-113586080D01*
X41147980Y-113608719D01*
X41143200Y-113632753D01*
X41143201Y-113657257D01*
X41147983Y-113681291D01*
X41157361Y-113703929D01*
X41170969Y-113724295D01*
X41176200Y-113730670D01*
X41178500Y-113734972D01*
X41179917Y-113739643D01*
X41181000Y-113750641D01*
X41181000Y-114039359D01*
X41179917Y-114050357D01*
X41178500Y-114055028D01*
X41176200Y-114059330D01*
X41173104Y-114063104D01*
X41169330Y-114066200D01*
X41165028Y-114068500D01*
X41160357Y-114069917D01*
X41149359Y-114071000D01*
X40310641Y-114071000D01*
X40299643Y-114069917D01*
X40294972Y-114068500D01*
X40290670Y-114066200D01*
X40286896Y-114063104D01*
X40283800Y-114059330D01*
X40281500Y-114055028D01*
X40280083Y-114050357D01*
X40279000Y-114039359D01*
X40279000Y-113750641D01*
X40280083Y-113739643D01*
X40281500Y-113734972D01*
X40283800Y-113730670D01*
X40289031Y-113724295D01*
X40302644Y-113703920D01*
X40312020Y-113681281D01*
X40316800Y-113657247D01*
X40316799Y-113632743D01*
X40312017Y-113608709D01*
X40302639Y-113586071D01*
X40289031Y-113565705D01*
X40283800Y-113559330D01*
X40281500Y-113555028D01*
X40280083Y-113550357D01*
X40279000Y-113539359D01*
X40279000Y-113250641D01*
X40280083Y-113239643D01*
X40281500Y-113234972D01*
X40283800Y-113230670D01*
X40289031Y-113224295D01*
X40302644Y-113203920D01*
X40312020Y-113181281D01*
X40316800Y-113157247D01*
X40316799Y-113132743D01*
X40312017Y-113108709D01*
X40302639Y-113086071D01*
X40289031Y-113065705D01*
X40283800Y-113059330D01*
X40281500Y-113055028D01*
X40280083Y-113050357D01*
X40279000Y-113039359D01*
X40279000Y-112750641D01*
X40280083Y-112739643D01*
X40281500Y-112734972D01*
X40283800Y-112730670D01*
X40289031Y-112724295D01*
X40302644Y-112703920D01*
X40312020Y-112681281D01*
X40316800Y-112657247D01*
X40316799Y-112632743D01*
X40312017Y-112608709D01*
X40302639Y-112586071D01*
X40289031Y-112565705D01*
X40283800Y-112559330D01*
X40281500Y-112555028D01*
X40280083Y-112550357D01*
X40279000Y-112539359D01*
X40279000Y-112250641D01*
X40280083Y-112239643D01*
X40281500Y-112234972D01*
X40283800Y-112230670D01*
X40289031Y-112224295D01*
X40302644Y-112203920D01*
X40312020Y-112181281D01*
X40316800Y-112157247D01*
X40316799Y-112132743D01*
X40312017Y-112108709D01*
X40302639Y-112086071D01*
X40289031Y-112065705D01*
X40283800Y-112059330D01*
X40281500Y-112055028D01*
X40280083Y-112050357D01*
X40279000Y-112039359D01*
X40279000Y-111750641D01*
X40280083Y-111739643D01*
X40281500Y-111734972D01*
X40283800Y-111730670D01*
X40289031Y-111724295D01*
X40302644Y-111703920D01*
X40312020Y-111681281D01*
X40316800Y-111657247D01*
X40316799Y-111632743D01*
X40312017Y-111608709D01*
X40302639Y-111586071D01*
X40289031Y-111565705D01*
X40283800Y-111559330D01*
X40281500Y-111555028D01*
X40280083Y-111550357D01*
X40279000Y-111539359D01*
X40279000Y-111250641D01*
X40280083Y-111239643D01*
X40281500Y-111234972D01*
X40283800Y-111230670D01*
X40289031Y-111224295D01*
X40302644Y-111203920D01*
X40312020Y-111181281D01*
X40316800Y-111157247D01*
X40316799Y-111132743D01*
X40312017Y-111108709D01*
X40302639Y-111086071D01*
X40289031Y-111065705D01*
X40283800Y-111059330D01*
X40281500Y-111055028D01*
X40280083Y-111050357D01*
X40279000Y-111039359D01*
X40279000Y-110750641D01*
X40280083Y-110739643D01*
X40281500Y-110734972D01*
X40283800Y-110730670D01*
X40286896Y-110726896D01*
X40290670Y-110723800D01*
X40294972Y-110721500D01*
X40299643Y-110720083D01*
X40310641Y-110719000D01*
X41149359Y-110719000D01*
X41160357Y-110720083D01*
X41160357Y-110720083D01*
G37*
G36*
X54091000Y-113726000D02*
X52929000Y-113726000D01*
X52929000Y-112974000D01*
X54091000Y-112974000D01*
X54091000Y-113726000D01*
X54091000Y-113726000D01*
G37*
G36*
X28954591Y-112266085D02*
X28988569Y-112276393D01*
X29019887Y-112293133D01*
X29047339Y-112315661D01*
X29069867Y-112343113D01*
X29086607Y-112374431D01*
X29096915Y-112408409D01*
X29101000Y-112449890D01*
X29101000Y-113051110D01*
X29096915Y-113092591D01*
X29086607Y-113126569D01*
X29069867Y-113157887D01*
X29047339Y-113185339D01*
X29019887Y-113207867D01*
X28988569Y-113224607D01*
X28954591Y-113234915D01*
X28913110Y-113239000D01*
X28236890Y-113239000D01*
X28195409Y-113234915D01*
X28161431Y-113224607D01*
X28130113Y-113207867D01*
X28102661Y-113185339D01*
X28080133Y-113157887D01*
X28063393Y-113126569D01*
X28053085Y-113092591D01*
X28049000Y-113051110D01*
X28049000Y-112449890D01*
X28053085Y-112408409D01*
X28063393Y-112374431D01*
X28080133Y-112343113D01*
X28102661Y-112315661D01*
X28130113Y-112293133D01*
X28161431Y-112276393D01*
X28195409Y-112266085D01*
X28236890Y-112262000D01*
X28913110Y-112262000D01*
X28954591Y-112266085D01*
X28954591Y-112266085D01*
G37*
G36*
X90421848Y-110904672D02*
X90496627Y-110912037D01*
X90609853Y-110946384D01*
X90666467Y-110963557D01*
X90794307Y-111031890D01*
X90822991Y-111047222D01*
X90845512Y-111065705D01*
X90960186Y-111159814D01*
X91040854Y-111258110D01*
X91072778Y-111297009D01*
X91072779Y-111297011D01*
X91156443Y-111453533D01*
X91170589Y-111500168D01*
X91207963Y-111623373D01*
X91225359Y-111800000D01*
X91207963Y-111976627D01*
X91179848Y-112069309D01*
X91156443Y-112146467D01*
X91086995Y-112276393D01*
X91072778Y-112302991D01*
X91047708Y-112333539D01*
X90960186Y-112440186D01*
X90866981Y-112516676D01*
X90822991Y-112552778D01*
X90816647Y-112556169D01*
X90666467Y-112636443D01*
X90609853Y-112653616D01*
X90496627Y-112687963D01*
X90430443Y-112694481D01*
X90364260Y-112701000D01*
X89975740Y-112701000D01*
X89909557Y-112694481D01*
X89843373Y-112687963D01*
X89730147Y-112653616D01*
X89673533Y-112636443D01*
X89523353Y-112556169D01*
X89517009Y-112552778D01*
X89473019Y-112516676D01*
X89379814Y-112440186D01*
X89292292Y-112333539D01*
X89267222Y-112302991D01*
X89253005Y-112276393D01*
X89183557Y-112146467D01*
X89160152Y-112069309D01*
X89132037Y-111976627D01*
X89114641Y-111800000D01*
X89132037Y-111623373D01*
X89169411Y-111500168D01*
X89183557Y-111453533D01*
X89267221Y-111297011D01*
X89267222Y-111297009D01*
X89299146Y-111258110D01*
X89379814Y-111159814D01*
X89494488Y-111065705D01*
X89517009Y-111047222D01*
X89545693Y-111031890D01*
X89673533Y-110963557D01*
X89730147Y-110946384D01*
X89843373Y-110912037D01*
X89918152Y-110904672D01*
X89975740Y-110899000D01*
X90364260Y-110899000D01*
X90421848Y-110904672D01*
X90421848Y-110904672D01*
G37*
G36*
X51823604Y-109568347D02*
X51860145Y-109579432D01*
X51893820Y-109597431D01*
X51923341Y-109621659D01*
X51947569Y-109651180D01*
X51965568Y-109684855D01*
X51976653Y-109721396D01*
X51981000Y-109765538D01*
X51981000Y-111214462D01*
X51976653Y-111258604D01*
X51965568Y-111295145D01*
X51947569Y-111328820D01*
X51923341Y-111358341D01*
X51893820Y-111382569D01*
X51860145Y-111400568D01*
X51823604Y-111411653D01*
X51779462Y-111416000D01*
X50830538Y-111416000D01*
X50786396Y-111411653D01*
X50749855Y-111400568D01*
X50716180Y-111382569D01*
X50686659Y-111358341D01*
X50662431Y-111328820D01*
X50644432Y-111295145D01*
X50633347Y-111258604D01*
X50629000Y-111214462D01*
X50629000Y-109765538D01*
X50633347Y-109721396D01*
X50644432Y-109684855D01*
X50662431Y-109651180D01*
X50686659Y-109621659D01*
X50716180Y-109597431D01*
X50749855Y-109579432D01*
X50786396Y-109568347D01*
X50830538Y-109564000D01*
X51779462Y-109564000D01*
X51823604Y-109568347D01*
X51823604Y-109568347D01*
G37*
G36*
X54623604Y-109568347D02*
X54660145Y-109579432D01*
X54693820Y-109597431D01*
X54723341Y-109621659D01*
X54747569Y-109651180D01*
X54765568Y-109684855D01*
X54776653Y-109721396D01*
X54781000Y-109765538D01*
X54781000Y-111214462D01*
X54776653Y-111258604D01*
X54765568Y-111295145D01*
X54747569Y-111328820D01*
X54723341Y-111358341D01*
X54693820Y-111382569D01*
X54660145Y-111400568D01*
X54623604Y-111411653D01*
X54579462Y-111416000D01*
X53630538Y-111416000D01*
X53586396Y-111411653D01*
X53549855Y-111400568D01*
X53516180Y-111382569D01*
X53486659Y-111358341D01*
X53462431Y-111328820D01*
X53444432Y-111295145D01*
X53433347Y-111258604D01*
X53429000Y-111214462D01*
X53429000Y-109765538D01*
X53433347Y-109721396D01*
X53444432Y-109684855D01*
X53462431Y-109651180D01*
X53486659Y-109621659D01*
X53516180Y-109597431D01*
X53549855Y-109579432D01*
X53586396Y-109568347D01*
X53630538Y-109564000D01*
X54579462Y-109564000D01*
X54623604Y-109568347D01*
X54623604Y-109568347D01*
G37*
G36*
X28827591Y-110412085D02*
X28861569Y-110422393D01*
X28892887Y-110439133D01*
X28920339Y-110461661D01*
X28942867Y-110489113D01*
X28959607Y-110520431D01*
X28969915Y-110554409D01*
X28974000Y-110595890D01*
X28974000Y-111197110D01*
X28969915Y-111238591D01*
X28959607Y-111272569D01*
X28942867Y-111303887D01*
X28920339Y-111331339D01*
X28892887Y-111353867D01*
X28861569Y-111370607D01*
X28827591Y-111380915D01*
X28786110Y-111385000D01*
X28109890Y-111385000D01*
X28068409Y-111380915D01*
X28034431Y-111370607D01*
X28003113Y-111353867D01*
X27975661Y-111331339D01*
X27953133Y-111303887D01*
X27936393Y-111272569D01*
X27926085Y-111238591D01*
X27922000Y-111197110D01*
X27922000Y-110595890D01*
X27926085Y-110554409D01*
X27936393Y-110520431D01*
X27953133Y-110489113D01*
X27975661Y-110461661D01*
X28003113Y-110439133D01*
X28034431Y-110422393D01*
X28068409Y-110412085D01*
X28109890Y-110408000D01*
X28786110Y-110408000D01*
X28827591Y-110412085D01*
X28827591Y-110412085D01*
G37*
G36*
X41835357Y-109495083D02*
X41840028Y-109496500D01*
X41844330Y-109498800D01*
X41850705Y-109504031D01*
X41871080Y-109517644D01*
X41893719Y-109527020D01*
X41917753Y-109531800D01*
X41942257Y-109531799D01*
X41966291Y-109527017D01*
X41988929Y-109517639D01*
X42009295Y-109504031D01*
X42015670Y-109498800D01*
X42019972Y-109496500D01*
X42024643Y-109495083D01*
X42035641Y-109494000D01*
X42324359Y-109494000D01*
X42335357Y-109495083D01*
X42340028Y-109496500D01*
X42344330Y-109498800D01*
X42350705Y-109504031D01*
X42371080Y-109517644D01*
X42393719Y-109527020D01*
X42417753Y-109531800D01*
X42442257Y-109531799D01*
X42466291Y-109527017D01*
X42488929Y-109517639D01*
X42509295Y-109504031D01*
X42515670Y-109498800D01*
X42519972Y-109496500D01*
X42524643Y-109495083D01*
X42535641Y-109494000D01*
X42824359Y-109494000D01*
X42835357Y-109495083D01*
X42840028Y-109496500D01*
X42844330Y-109498800D01*
X42850705Y-109504031D01*
X42871080Y-109517644D01*
X42893719Y-109527020D01*
X42917753Y-109531800D01*
X42942257Y-109531799D01*
X42966291Y-109527017D01*
X42988929Y-109517639D01*
X43009295Y-109504031D01*
X43015670Y-109498800D01*
X43019972Y-109496500D01*
X43024643Y-109495083D01*
X43035641Y-109494000D01*
X43324359Y-109494000D01*
X43335357Y-109495083D01*
X43340028Y-109496500D01*
X43344330Y-109498800D01*
X43350705Y-109504031D01*
X43371080Y-109517644D01*
X43393719Y-109527020D01*
X43417753Y-109531800D01*
X43442257Y-109531799D01*
X43466291Y-109527017D01*
X43488929Y-109517639D01*
X43509295Y-109504031D01*
X43515670Y-109498800D01*
X43519972Y-109496500D01*
X43524643Y-109495083D01*
X43535641Y-109494000D01*
X43824359Y-109494000D01*
X43835357Y-109495083D01*
X43840028Y-109496500D01*
X43844330Y-109498800D01*
X43850705Y-109504031D01*
X43871080Y-109517644D01*
X43893719Y-109527020D01*
X43917753Y-109531800D01*
X43942257Y-109531799D01*
X43966291Y-109527017D01*
X43988929Y-109517639D01*
X44009295Y-109504031D01*
X44015670Y-109498800D01*
X44019972Y-109496500D01*
X44024643Y-109495083D01*
X44035641Y-109494000D01*
X44324359Y-109494000D01*
X44335357Y-109495083D01*
X44340028Y-109496500D01*
X44344330Y-109498800D01*
X44350705Y-109504031D01*
X44371080Y-109517644D01*
X44393719Y-109527020D01*
X44417753Y-109531800D01*
X44442257Y-109531799D01*
X44466291Y-109527017D01*
X44488929Y-109517639D01*
X44509295Y-109504031D01*
X44515670Y-109498800D01*
X44519972Y-109496500D01*
X44524643Y-109495083D01*
X44535641Y-109494000D01*
X44824359Y-109494000D01*
X44835357Y-109495083D01*
X44840028Y-109496500D01*
X44844330Y-109498800D01*
X44848104Y-109501896D01*
X44851200Y-109505670D01*
X44853500Y-109509972D01*
X44854917Y-109514643D01*
X44856000Y-109525641D01*
X44856000Y-110364359D01*
X44854917Y-110375357D01*
X44853500Y-110380028D01*
X44851200Y-110384330D01*
X44848104Y-110388104D01*
X44844330Y-110391200D01*
X44840028Y-110393500D01*
X44835357Y-110394917D01*
X44824359Y-110396000D01*
X44535641Y-110396000D01*
X44524643Y-110394917D01*
X44519972Y-110393500D01*
X44515670Y-110391200D01*
X44509295Y-110385969D01*
X44488920Y-110372356D01*
X44466281Y-110362980D01*
X44442247Y-110358200D01*
X44417743Y-110358201D01*
X44393709Y-110362983D01*
X44371071Y-110372361D01*
X44350705Y-110385969D01*
X44344330Y-110391200D01*
X44340028Y-110393500D01*
X44335357Y-110394917D01*
X44324359Y-110396000D01*
X44035641Y-110396000D01*
X44024643Y-110394917D01*
X44019972Y-110393500D01*
X44015670Y-110391200D01*
X44009295Y-110385969D01*
X43988920Y-110372356D01*
X43966281Y-110362980D01*
X43942247Y-110358200D01*
X43917743Y-110358201D01*
X43893709Y-110362983D01*
X43871071Y-110372361D01*
X43850705Y-110385969D01*
X43844330Y-110391200D01*
X43840028Y-110393500D01*
X43835357Y-110394917D01*
X43824359Y-110396000D01*
X43535641Y-110396000D01*
X43524643Y-110394917D01*
X43519972Y-110393500D01*
X43515670Y-110391200D01*
X43509295Y-110385969D01*
X43488920Y-110372356D01*
X43466281Y-110362980D01*
X43442247Y-110358200D01*
X43417743Y-110358201D01*
X43393709Y-110362983D01*
X43371071Y-110372361D01*
X43350705Y-110385969D01*
X43344330Y-110391200D01*
X43340028Y-110393500D01*
X43335357Y-110394917D01*
X43324359Y-110396000D01*
X43035641Y-110396000D01*
X43024643Y-110394917D01*
X43019972Y-110393500D01*
X43015670Y-110391200D01*
X43009295Y-110385969D01*
X42988920Y-110372356D01*
X42966281Y-110362980D01*
X42942247Y-110358200D01*
X42917743Y-110358201D01*
X42893709Y-110362983D01*
X42871071Y-110372361D01*
X42850705Y-110385969D01*
X42844330Y-110391200D01*
X42840028Y-110393500D01*
X42835357Y-110394917D01*
X42824359Y-110396000D01*
X42535641Y-110396000D01*
X42524643Y-110394917D01*
X42519972Y-110393500D01*
X42515670Y-110391200D01*
X42509295Y-110385969D01*
X42488920Y-110372356D01*
X42466281Y-110362980D01*
X42442247Y-110358200D01*
X42417743Y-110358201D01*
X42393709Y-110362983D01*
X42371071Y-110372361D01*
X42350705Y-110385969D01*
X42344330Y-110391200D01*
X42340028Y-110393500D01*
X42335357Y-110394917D01*
X42324359Y-110396000D01*
X42035641Y-110396000D01*
X42024643Y-110394917D01*
X42019972Y-110393500D01*
X42015670Y-110391200D01*
X42009295Y-110385969D01*
X41988920Y-110372356D01*
X41966281Y-110362980D01*
X41942247Y-110358200D01*
X41917743Y-110358201D01*
X41893709Y-110362983D01*
X41871071Y-110372361D01*
X41850705Y-110385969D01*
X41844330Y-110391200D01*
X41840028Y-110393500D01*
X41835357Y-110394917D01*
X41824359Y-110396000D01*
X41535641Y-110396000D01*
X41524643Y-110394917D01*
X41519972Y-110393500D01*
X41515670Y-110391200D01*
X41511896Y-110388104D01*
X41508800Y-110384330D01*
X41506500Y-110380028D01*
X41505083Y-110375357D01*
X41504000Y-110364359D01*
X41504000Y-109525641D01*
X41505083Y-109514643D01*
X41506500Y-109509972D01*
X41508800Y-109505670D01*
X41511896Y-109501896D01*
X41515670Y-109498800D01*
X41519972Y-109496500D01*
X41524643Y-109495083D01*
X41535641Y-109494000D01*
X41824359Y-109494000D01*
X41835357Y-109495083D01*
X41835357Y-109495083D01*
G37*
G36*
X28827591Y-108837085D02*
X28861569Y-108847393D01*
X28892887Y-108864133D01*
X28920339Y-108886661D01*
X28942867Y-108914113D01*
X28959607Y-108945431D01*
X28969915Y-108979409D01*
X28974000Y-109020890D01*
X28974000Y-109622110D01*
X28969915Y-109663591D01*
X28959607Y-109697569D01*
X28942867Y-109728887D01*
X28920339Y-109756339D01*
X28892887Y-109778867D01*
X28861569Y-109795607D01*
X28827591Y-109805915D01*
X28786110Y-109810000D01*
X28109890Y-109810000D01*
X28068409Y-109805915D01*
X28034431Y-109795607D01*
X28003113Y-109778867D01*
X27975661Y-109756339D01*
X27953133Y-109728887D01*
X27936393Y-109697569D01*
X27926085Y-109663591D01*
X27922000Y-109622110D01*
X27922000Y-109020890D01*
X27926085Y-108979409D01*
X27936393Y-108945431D01*
X27953133Y-108914113D01*
X27975661Y-108886661D01*
X28003113Y-108864133D01*
X28034431Y-108847393D01*
X28068409Y-108837085D01*
X28109890Y-108833000D01*
X28786110Y-108833000D01*
X28827591Y-108837085D01*
X28827591Y-108837085D01*
G37*
G36*
X34314672Y-108433449D02*
X34314674Y-108433450D01*
X34314675Y-108433450D01*
X34383103Y-108461793D01*
X34444409Y-108502757D01*
X34444689Y-108502944D01*
X34497056Y-108555311D01*
X34497058Y-108555314D01*
X34538207Y-108616897D01*
X34566550Y-108685325D01*
X34566551Y-108685328D01*
X34581000Y-108757966D01*
X34581000Y-108832034D01*
X34570134Y-108886661D01*
X34566550Y-108904675D01*
X34538207Y-108973103D01*
X34506276Y-109020890D01*
X34497056Y-109034689D01*
X34444689Y-109087056D01*
X34444686Y-109087058D01*
X34383103Y-109128207D01*
X34314675Y-109156550D01*
X34314674Y-109156550D01*
X34314672Y-109156551D01*
X34242034Y-109171000D01*
X34167966Y-109171000D01*
X34095328Y-109156551D01*
X34095326Y-109156550D01*
X34095325Y-109156550D01*
X34026897Y-109128207D01*
X33965314Y-109087058D01*
X33965311Y-109087056D01*
X33912944Y-109034689D01*
X33903724Y-109020890D01*
X33871793Y-108973103D01*
X33843450Y-108904675D01*
X33839867Y-108886661D01*
X33829000Y-108832034D01*
X33829000Y-108757966D01*
X33843449Y-108685328D01*
X33843450Y-108685325D01*
X33871793Y-108616897D01*
X33912942Y-108555314D01*
X33912944Y-108555311D01*
X33965311Y-108502944D01*
X33965591Y-108502757D01*
X34026897Y-108461793D01*
X34095325Y-108433450D01*
X34095326Y-108433450D01*
X34095328Y-108433449D01*
X34167966Y-108419000D01*
X34242034Y-108419000D01*
X34314672Y-108433449D01*
X34314672Y-108433449D01*
G37*
G36*
X33343413Y-107820525D02*
X33418456Y-107843290D01*
X33428425Y-107846314D01*
X33506774Y-107888193D01*
X33575448Y-107944552D01*
X33631807Y-108013226D01*
X33673686Y-108091575D01*
X33673687Y-108091579D01*
X33699475Y-108176587D01*
X33708182Y-108265000D01*
X33699475Y-108353413D01*
X33676710Y-108428456D01*
X33673686Y-108438425D01*
X33631807Y-108516774D01*
X33575448Y-108585448D01*
X33506774Y-108641807D01*
X33428425Y-108683686D01*
X33423012Y-108685328D01*
X33343413Y-108709475D01*
X33277158Y-108716000D01*
X32632842Y-108716000D01*
X32566587Y-108709475D01*
X32486988Y-108685328D01*
X32481575Y-108683686D01*
X32403226Y-108641807D01*
X32334552Y-108585448D01*
X32278193Y-108516774D01*
X32236314Y-108438425D01*
X32233290Y-108428456D01*
X32210525Y-108353413D01*
X32201818Y-108265000D01*
X32210525Y-108176587D01*
X32236313Y-108091579D01*
X32236314Y-108091575D01*
X32278193Y-108013226D01*
X32334552Y-107944552D01*
X32403226Y-107888193D01*
X32481575Y-107846314D01*
X32491544Y-107843290D01*
X32566587Y-107820525D01*
X32632842Y-107814000D01*
X33277158Y-107814000D01*
X33343413Y-107820525D01*
X33343413Y-107820525D01*
G37*
G36*
X61318000Y-108531000D02*
X60216000Y-108531000D01*
X60216000Y-107029000D01*
X61318000Y-107029000D01*
X61318000Y-108531000D01*
X61318000Y-108531000D01*
G37*
G36*
X59418000Y-108531000D02*
X58316000Y-108531000D01*
X58316000Y-107029000D01*
X59418000Y-107029000D01*
X59418000Y-108531000D01*
X59418000Y-108531000D01*
G37*
G36*
X27393413Y-107460525D02*
X27463689Y-107481844D01*
X27478425Y-107486314D01*
X27556774Y-107528193D01*
X27625448Y-107584552D01*
X27681807Y-107653226D01*
X27723686Y-107731575D01*
X27723687Y-107731579D01*
X27749475Y-107816587D01*
X27758182Y-107905000D01*
X27749475Y-107993413D01*
X27728129Y-108063779D01*
X27723686Y-108078425D01*
X27681807Y-108156774D01*
X27625448Y-108225448D01*
X27556774Y-108281807D01*
X27478425Y-108323686D01*
X27468456Y-108326710D01*
X27393413Y-108349475D01*
X27327158Y-108356000D01*
X26682842Y-108356000D01*
X26616587Y-108349475D01*
X26541544Y-108326710D01*
X26531575Y-108323686D01*
X26453226Y-108281807D01*
X26384552Y-108225448D01*
X26328193Y-108156774D01*
X26286314Y-108078425D01*
X26281871Y-108063779D01*
X26260525Y-107993413D01*
X26251818Y-107905000D01*
X26260525Y-107816587D01*
X26286313Y-107731579D01*
X26286314Y-107731575D01*
X26328193Y-107653226D01*
X26384552Y-107584552D01*
X26453226Y-107528193D01*
X26531575Y-107486314D01*
X26546311Y-107481844D01*
X26616587Y-107460525D01*
X26682842Y-107454000D01*
X27327158Y-107454000D01*
X27393413Y-107460525D01*
X27393413Y-107460525D01*
G37*
G36*
X55829466Y-107083565D02*
X55868137Y-107095296D01*
X55903779Y-107114348D01*
X55935017Y-107139983D01*
X55960652Y-107171221D01*
X55979704Y-107206863D01*
X55991435Y-107245534D01*
X55996000Y-107291888D01*
X55996000Y-107943112D01*
X55991435Y-107989466D01*
X55979704Y-108028137D01*
X55960652Y-108063779D01*
X55935017Y-108095017D01*
X55903779Y-108120652D01*
X55868137Y-108139704D01*
X55829466Y-108151435D01*
X55783112Y-108156000D01*
X54706888Y-108156000D01*
X54660534Y-108151435D01*
X54621863Y-108139704D01*
X54586221Y-108120652D01*
X54554983Y-108095017D01*
X54529348Y-108063779D01*
X54510296Y-108028137D01*
X54498565Y-107989466D01*
X54494000Y-107943112D01*
X54494000Y-107291888D01*
X54498565Y-107245534D01*
X54510296Y-107206863D01*
X54529348Y-107171221D01*
X54554983Y-107139983D01*
X54586221Y-107114348D01*
X54621863Y-107095296D01*
X54660534Y-107083565D01*
X54706888Y-107079000D01*
X55783112Y-107079000D01*
X55829466Y-107083565D01*
X55829466Y-107083565D01*
G37*
G36*
X53621938Y-106821716D02*
X53642556Y-106827970D01*
X53661556Y-106838126D01*
X53678208Y-106851792D01*
X53691874Y-106868444D01*
X53702030Y-106887444D01*
X53708284Y-106908062D01*
X53711000Y-106935640D01*
X53711000Y-107394360D01*
X53708284Y-107421938D01*
X53702030Y-107442556D01*
X53691874Y-107461556D01*
X53678208Y-107478208D01*
X53661556Y-107491874D01*
X53642556Y-107502030D01*
X53621938Y-107508284D01*
X53594360Y-107511000D01*
X53085640Y-107511000D01*
X53058062Y-107508284D01*
X53037444Y-107502030D01*
X53018444Y-107491874D01*
X53001792Y-107478208D01*
X52988126Y-107461556D01*
X52977970Y-107442556D01*
X52971716Y-107421938D01*
X52969000Y-107394360D01*
X52969000Y-106935640D01*
X52971716Y-106908062D01*
X52977970Y-106887444D01*
X52988126Y-106868444D01*
X53001792Y-106851792D01*
X53018444Y-106838126D01*
X53037444Y-106827970D01*
X53058062Y-106821716D01*
X53085640Y-106819000D01*
X53594360Y-106819000D01*
X53621938Y-106821716D01*
X53621938Y-106821716D01*
G37*
G36*
X51716938Y-106821716D02*
X51737556Y-106827970D01*
X51756556Y-106838126D01*
X51773208Y-106851792D01*
X51786874Y-106868444D01*
X51797030Y-106887444D01*
X51803284Y-106908062D01*
X51806000Y-106935640D01*
X51806000Y-107394360D01*
X51803284Y-107421938D01*
X51797030Y-107442556D01*
X51786874Y-107461556D01*
X51773208Y-107478208D01*
X51756556Y-107491874D01*
X51737556Y-107502030D01*
X51716938Y-107508284D01*
X51689360Y-107511000D01*
X51180640Y-107511000D01*
X51153062Y-107508284D01*
X51132444Y-107502030D01*
X51113444Y-107491874D01*
X51096792Y-107478208D01*
X51083126Y-107461556D01*
X51072970Y-107442556D01*
X51066716Y-107421938D01*
X51064000Y-107394360D01*
X51064000Y-106935640D01*
X51066716Y-106908062D01*
X51072970Y-106887444D01*
X51083126Y-106868444D01*
X51096792Y-106851792D01*
X51113444Y-106838126D01*
X51132444Y-106827970D01*
X51153062Y-106821716D01*
X51180640Y-106819000D01*
X51689360Y-106819000D01*
X51716938Y-106821716D01*
X51716938Y-106821716D01*
G37*
G36*
X98301000Y-106691000D02*
X92199000Y-106691000D01*
X92199000Y-101589000D01*
X98301000Y-101589000D01*
X98301000Y-106691000D01*
X98301000Y-106691000D01*
G37*
G36*
X51716938Y-105851716D02*
X51737556Y-105857970D01*
X51756556Y-105868126D01*
X51773208Y-105881792D01*
X51786874Y-105898444D01*
X51797030Y-105917444D01*
X51803284Y-105938062D01*
X51806000Y-105965640D01*
X51806000Y-106424360D01*
X51803284Y-106451938D01*
X51797030Y-106472556D01*
X51786874Y-106491556D01*
X51773208Y-106508208D01*
X51756556Y-106521874D01*
X51737556Y-106532030D01*
X51716938Y-106538284D01*
X51689360Y-106541000D01*
X51180640Y-106541000D01*
X51153062Y-106538284D01*
X51132444Y-106532030D01*
X51113444Y-106521874D01*
X51096792Y-106508208D01*
X51083126Y-106491556D01*
X51072970Y-106472556D01*
X51066716Y-106451938D01*
X51064000Y-106424360D01*
X51064000Y-105965640D01*
X51066716Y-105938062D01*
X51072970Y-105917444D01*
X51083126Y-105898444D01*
X51096792Y-105881792D01*
X51113444Y-105868126D01*
X51132444Y-105857970D01*
X51153062Y-105851716D01*
X51180640Y-105849000D01*
X51689360Y-105849000D01*
X51716938Y-105851716D01*
X51716938Y-105851716D01*
G37*
G36*
X53621938Y-105851716D02*
X53642556Y-105857970D01*
X53661556Y-105868126D01*
X53678208Y-105881792D01*
X53691874Y-105898444D01*
X53702030Y-105917444D01*
X53708284Y-105938062D01*
X53711000Y-105965640D01*
X53711000Y-106424360D01*
X53708284Y-106451938D01*
X53702030Y-106472556D01*
X53691874Y-106491556D01*
X53678208Y-106508208D01*
X53661556Y-106521874D01*
X53642556Y-106532030D01*
X53621938Y-106538284D01*
X53594360Y-106541000D01*
X53085640Y-106541000D01*
X53058062Y-106538284D01*
X53037444Y-106532030D01*
X53018444Y-106521874D01*
X53001792Y-106508208D01*
X52988126Y-106491556D01*
X52977970Y-106472556D01*
X52971716Y-106451938D01*
X52969000Y-106424360D01*
X52969000Y-105965640D01*
X52971716Y-105938062D01*
X52977970Y-105917444D01*
X52988126Y-105898444D01*
X53001792Y-105881792D01*
X53018444Y-105868126D01*
X53037444Y-105857970D01*
X53058062Y-105851716D01*
X53085640Y-105849000D01*
X53594360Y-105849000D01*
X53621938Y-105851716D01*
X53621938Y-105851716D01*
G37*
G36*
X61318000Y-106331000D02*
X60216000Y-106331000D01*
X60216000Y-104829000D01*
X61318000Y-104829000D01*
X61318000Y-106331000D01*
X61318000Y-106331000D01*
G37*
G36*
X59698000Y-106331000D02*
X58396000Y-106331000D01*
X58396000Y-104829000D01*
X59698000Y-104829000D01*
X59698000Y-106331000D01*
X59698000Y-106331000D01*
G37*
G36*
X55829466Y-105208565D02*
X55868137Y-105220296D01*
X55903779Y-105239348D01*
X55935017Y-105264983D01*
X55960652Y-105296221D01*
X55979704Y-105331863D01*
X55991435Y-105370534D01*
X55996000Y-105416888D01*
X55996000Y-106068112D01*
X55991435Y-106114466D01*
X55979704Y-106153137D01*
X55960652Y-106188779D01*
X55935017Y-106220017D01*
X55903779Y-106245652D01*
X55868137Y-106264704D01*
X55829466Y-106276435D01*
X55783112Y-106281000D01*
X54706888Y-106281000D01*
X54660534Y-106276435D01*
X54621863Y-106264704D01*
X54586221Y-106245652D01*
X54554983Y-106220017D01*
X54529348Y-106188779D01*
X54510296Y-106153137D01*
X54498565Y-106114466D01*
X54494000Y-106068112D01*
X54494000Y-105416888D01*
X54498565Y-105370534D01*
X54510296Y-105331863D01*
X54529348Y-105296221D01*
X54554983Y-105264983D01*
X54586221Y-105239348D01*
X54621863Y-105220296D01*
X54660534Y-105208565D01*
X54706888Y-105204000D01*
X55783112Y-105204000D01*
X55829466Y-105208565D01*
X55829466Y-105208565D01*
G37*
G36*
X48396000Y-105541000D02*
X47394000Y-105541000D01*
X47394000Y-104639000D01*
X48396000Y-104639000D01*
X48396000Y-105541000D01*
X48396000Y-105541000D01*
G37*
G36*
X41411000Y-105541000D02*
X40409000Y-105541000D01*
X40409000Y-104639000D01*
X41411000Y-104639000D01*
X41411000Y-105541000D01*
X41411000Y-105541000D01*
G37*
G36*
X44951000Y-105541000D02*
X43949000Y-105541000D01*
X43949000Y-104639000D01*
X44951000Y-104639000D01*
X44951000Y-105541000D01*
X44951000Y-105541000D01*
G37*
G36*
X38381938Y-104408716D02*
X38402556Y-104414970D01*
X38421556Y-104425126D01*
X38438208Y-104438792D01*
X38451874Y-104455444D01*
X38462030Y-104474444D01*
X38468284Y-104495062D01*
X38471000Y-104522640D01*
X38471000Y-104981360D01*
X38468284Y-105008938D01*
X38462030Y-105029556D01*
X38451874Y-105048556D01*
X38438208Y-105065208D01*
X38421556Y-105078874D01*
X38402556Y-105089030D01*
X38381938Y-105095284D01*
X38354360Y-105098000D01*
X37845640Y-105098000D01*
X37818062Y-105095284D01*
X37797444Y-105089030D01*
X37778444Y-105078874D01*
X37761792Y-105065208D01*
X37748126Y-105048556D01*
X37737970Y-105029556D01*
X37731716Y-105008938D01*
X37729000Y-104981360D01*
X37729000Y-104522640D01*
X37731716Y-104495062D01*
X37737970Y-104474444D01*
X37748126Y-104455444D01*
X37761792Y-104438792D01*
X37778444Y-104425126D01*
X37797444Y-104414970D01*
X37818062Y-104408716D01*
X37845640Y-104406000D01*
X38354360Y-104406000D01*
X38381938Y-104408716D01*
X38381938Y-104408716D01*
G37*
G36*
X39651938Y-104281716D02*
X39672556Y-104287970D01*
X39691556Y-104298126D01*
X39708208Y-104311792D01*
X39721874Y-104328444D01*
X39732030Y-104347444D01*
X39738284Y-104368062D01*
X39741000Y-104395640D01*
X39741000Y-104854360D01*
X39738284Y-104881938D01*
X39732030Y-104902556D01*
X39721874Y-104921556D01*
X39708208Y-104938208D01*
X39691556Y-104951874D01*
X39672556Y-104962030D01*
X39651938Y-104968284D01*
X39624360Y-104971000D01*
X39115640Y-104971000D01*
X39088062Y-104968284D01*
X39067444Y-104962030D01*
X39048444Y-104951874D01*
X39031792Y-104938208D01*
X39018126Y-104921556D01*
X39007970Y-104902556D01*
X39001716Y-104881938D01*
X38999000Y-104854360D01*
X38999000Y-104395640D01*
X39001716Y-104368062D01*
X39007970Y-104347444D01*
X39018126Y-104328444D01*
X39031792Y-104311792D01*
X39048444Y-104298126D01*
X39067444Y-104287970D01*
X39088062Y-104281716D01*
X39115640Y-104279000D01*
X39624360Y-104279000D01*
X39651938Y-104281716D01*
X39651938Y-104281716D01*
G37*
G36*
X43411000Y-104591000D02*
X42409000Y-104591000D01*
X42409000Y-103689000D01*
X43411000Y-103689000D01*
X43411000Y-104591000D01*
X43411000Y-104591000D01*
G37*
G36*
X46951000Y-104591000D02*
X45949000Y-104591000D01*
X45949000Y-103689000D01*
X46951000Y-103689000D01*
X46951000Y-104591000D01*
X46951000Y-104591000D01*
G37*
G36*
X50396000Y-104591000D02*
X49394000Y-104591000D01*
X49394000Y-103689000D01*
X50396000Y-103689000D01*
X50396000Y-104591000D01*
X50396000Y-104591000D01*
G37*
G36*
X38381938Y-103438716D02*
X38402556Y-103444970D01*
X38421556Y-103455126D01*
X38438208Y-103468792D01*
X38451874Y-103485444D01*
X38462030Y-103504444D01*
X38468284Y-103525062D01*
X38471000Y-103552640D01*
X38471000Y-104011360D01*
X38468284Y-104038938D01*
X38462030Y-104059556D01*
X38451874Y-104078556D01*
X38438208Y-104095208D01*
X38421556Y-104108874D01*
X38402556Y-104119030D01*
X38381938Y-104125284D01*
X38354360Y-104128000D01*
X37845640Y-104128000D01*
X37818062Y-104125284D01*
X37797444Y-104119030D01*
X37778444Y-104108874D01*
X37761792Y-104095208D01*
X37748126Y-104078556D01*
X37737970Y-104059556D01*
X37731716Y-104038938D01*
X37729000Y-104011360D01*
X37729000Y-103552640D01*
X37731716Y-103525062D01*
X37737970Y-103504444D01*
X37748126Y-103485444D01*
X37761792Y-103468792D01*
X37778444Y-103455126D01*
X37797444Y-103444970D01*
X37818062Y-103438716D01*
X37845640Y-103436000D01*
X38354360Y-103436000D01*
X38381938Y-103438716D01*
X38381938Y-103438716D01*
G37*
G36*
X39651938Y-103311716D02*
X39672556Y-103317970D01*
X39691556Y-103328126D01*
X39708208Y-103341792D01*
X39721874Y-103358444D01*
X39732030Y-103377444D01*
X39738284Y-103398062D01*
X39741000Y-103425640D01*
X39741000Y-103884360D01*
X39738284Y-103911938D01*
X39732030Y-103932556D01*
X39721874Y-103951556D01*
X39708208Y-103968208D01*
X39691556Y-103981874D01*
X39672556Y-103992030D01*
X39651938Y-103998284D01*
X39624360Y-104001000D01*
X39115640Y-104001000D01*
X39088062Y-103998284D01*
X39067444Y-103992030D01*
X39048444Y-103981874D01*
X39031792Y-103968208D01*
X39018126Y-103951556D01*
X39007970Y-103932556D01*
X39001716Y-103911938D01*
X38999000Y-103884360D01*
X38999000Y-103425640D01*
X39001716Y-103398062D01*
X39007970Y-103377444D01*
X39018126Y-103358444D01*
X39031792Y-103341792D01*
X39048444Y-103328126D01*
X39067444Y-103317970D01*
X39088062Y-103311716D01*
X39115640Y-103309000D01*
X39624360Y-103309000D01*
X39651938Y-103311716D01*
X39651938Y-103311716D01*
G37*
G36*
X44951000Y-103641000D02*
X43949000Y-103641000D01*
X43949000Y-102739000D01*
X44951000Y-102739000D01*
X44951000Y-103641000D01*
X44951000Y-103641000D01*
G37*
G36*
X48396000Y-103641000D02*
X47394000Y-103641000D01*
X47394000Y-102739000D01*
X48396000Y-102739000D01*
X48396000Y-103641000D01*
X48396000Y-103641000D01*
G37*
G36*
X41411000Y-103641000D02*
X40409000Y-103641000D01*
X40409000Y-102739000D01*
X41411000Y-102739000D01*
X41411000Y-103641000D01*
X41411000Y-103641000D01*
G37*
G36*
X27756136Y-101983253D02*
X27847312Y-102021019D01*
X27929372Y-102075850D01*
X27999150Y-102145628D01*
X28053981Y-102227688D01*
X28091747Y-102318864D01*
X28111000Y-102415656D01*
X28111000Y-102514344D01*
X28091747Y-102611136D01*
X28053981Y-102702312D01*
X27999150Y-102784372D01*
X27929372Y-102854150D01*
X27847312Y-102908981D01*
X27756136Y-102946747D01*
X27659344Y-102966000D01*
X27560656Y-102966000D01*
X27463864Y-102946747D01*
X27372688Y-102908981D01*
X27290628Y-102854150D01*
X27220850Y-102784372D01*
X27166019Y-102702312D01*
X27128253Y-102611136D01*
X27109000Y-102514344D01*
X27109000Y-102415656D01*
X27128253Y-102318864D01*
X27166019Y-102227688D01*
X27220850Y-102145628D01*
X27290628Y-102075850D01*
X27372688Y-102021019D01*
X27463864Y-101983253D01*
X27560656Y-101964000D01*
X27659344Y-101964000D01*
X27756136Y-101983253D01*
X27756136Y-101983253D01*
G37*
G36*
X51823604Y-100170347D02*
X51860145Y-100181432D01*
X51893820Y-100199431D01*
X51923341Y-100223659D01*
X51947569Y-100253180D01*
X51965568Y-100286855D01*
X51976653Y-100323396D01*
X51981000Y-100367538D01*
X51981000Y-101816462D01*
X51976653Y-101860604D01*
X51965568Y-101897145D01*
X51947569Y-101930820D01*
X51923341Y-101960341D01*
X51893820Y-101984569D01*
X51860145Y-102002568D01*
X51823604Y-102013653D01*
X51779462Y-102018000D01*
X50830538Y-102018000D01*
X50786396Y-102013653D01*
X50749855Y-102002568D01*
X50716180Y-101984569D01*
X50686659Y-101960341D01*
X50662431Y-101930820D01*
X50644432Y-101897145D01*
X50633347Y-101860604D01*
X50629000Y-101816462D01*
X50629000Y-100367538D01*
X50633347Y-100323396D01*
X50644432Y-100286855D01*
X50662431Y-100253180D01*
X50686659Y-100223659D01*
X50716180Y-100199431D01*
X50749855Y-100181432D01*
X50786396Y-100170347D01*
X50830538Y-100166000D01*
X51779462Y-100166000D01*
X51823604Y-100170347D01*
X51823604Y-100170347D01*
G37*
G36*
X54623604Y-100170347D02*
X54660145Y-100181432D01*
X54693820Y-100199431D01*
X54723341Y-100223659D01*
X54747569Y-100253180D01*
X54765568Y-100286855D01*
X54776653Y-100323396D01*
X54781000Y-100367538D01*
X54781000Y-101816462D01*
X54776653Y-101860604D01*
X54765568Y-101897145D01*
X54747569Y-101930820D01*
X54723341Y-101960341D01*
X54693820Y-101984569D01*
X54660145Y-102002568D01*
X54623604Y-102013653D01*
X54579462Y-102018000D01*
X53630538Y-102018000D01*
X53586396Y-102013653D01*
X53549855Y-102002568D01*
X53516180Y-101984569D01*
X53486659Y-101960341D01*
X53462431Y-101930820D01*
X53444432Y-101897145D01*
X53433347Y-101860604D01*
X53429000Y-101816462D01*
X53429000Y-100367538D01*
X53433347Y-100323396D01*
X53444432Y-100286855D01*
X53462431Y-100253180D01*
X53486659Y-100223659D01*
X53516180Y-100199431D01*
X53549855Y-100181432D01*
X53586396Y-100170347D01*
X53630538Y-100166000D01*
X54579462Y-100166000D01*
X54623604Y-100170347D01*
X54623604Y-100170347D01*
G37*
G36*
X98301000Y-101103000D02*
X92199000Y-101103000D01*
X92199000Y-96001000D01*
X98301000Y-96001000D01*
X98301000Y-101103000D01*
X98301000Y-101103000D01*
G37*
G36*
X38222000Y-100835000D02*
X37470000Y-100835000D01*
X37470000Y-99033000D01*
X38222000Y-99033000D01*
X38222000Y-100835000D01*
X38222000Y-100835000D01*
G37*
G36*
X40122000Y-100835000D02*
X39370000Y-100835000D01*
X39370000Y-99033000D01*
X40122000Y-99033000D01*
X40122000Y-100835000D01*
X40122000Y-100835000D01*
G37*
G36*
X48146604Y-98773347D02*
X48183145Y-98784432D01*
X48216820Y-98802431D01*
X48246341Y-98826659D01*
X48270569Y-98856180D01*
X48288568Y-98889855D01*
X48299653Y-98926396D01*
X48304000Y-98970538D01*
X48304000Y-100419462D01*
X48299653Y-100463604D01*
X48288568Y-100500145D01*
X48270569Y-100533820D01*
X48246341Y-100563341D01*
X48216820Y-100587569D01*
X48183145Y-100605568D01*
X48146604Y-100616653D01*
X48102462Y-100621000D01*
X47153538Y-100621000D01*
X47109396Y-100616653D01*
X47072855Y-100605568D01*
X47039180Y-100587569D01*
X47009659Y-100563341D01*
X46985431Y-100533820D01*
X46967432Y-100500145D01*
X46956347Y-100463604D01*
X46952000Y-100419462D01*
X46952000Y-98970538D01*
X46956347Y-98926396D01*
X46967432Y-98889855D01*
X46985431Y-98856180D01*
X47009659Y-98826659D01*
X47039180Y-98802431D01*
X47072855Y-98784432D01*
X47109396Y-98773347D01*
X47153538Y-98769000D01*
X48102462Y-98769000D01*
X48146604Y-98773347D01*
X48146604Y-98773347D01*
G37*
G36*
X45346604Y-98773347D02*
X45383145Y-98784432D01*
X45416820Y-98802431D01*
X45446341Y-98826659D01*
X45470569Y-98856180D01*
X45488568Y-98889855D01*
X45499653Y-98926396D01*
X45504000Y-98970538D01*
X45504000Y-100419462D01*
X45499653Y-100463604D01*
X45488568Y-100500145D01*
X45470569Y-100533820D01*
X45446341Y-100563341D01*
X45416820Y-100587569D01*
X45383145Y-100605568D01*
X45346604Y-100616653D01*
X45302462Y-100621000D01*
X44353538Y-100621000D01*
X44309396Y-100616653D01*
X44272855Y-100605568D01*
X44239180Y-100587569D01*
X44209659Y-100563341D01*
X44185431Y-100533820D01*
X44167432Y-100500145D01*
X44156347Y-100463604D01*
X44152000Y-100419462D01*
X44152000Y-98970538D01*
X44156347Y-98926396D01*
X44167432Y-98889855D01*
X44185431Y-98856180D01*
X44209659Y-98826659D01*
X44239180Y-98802431D01*
X44272855Y-98784432D01*
X44309396Y-98773347D01*
X44353538Y-98769000D01*
X45302462Y-98769000D01*
X45346604Y-98773347D01*
X45346604Y-98773347D01*
G37*
G36*
X27756136Y-98983253D02*
X27847312Y-99021019D01*
X27929372Y-99075850D01*
X27999150Y-99145628D01*
X28053981Y-99227688D01*
X28091747Y-99318864D01*
X28111000Y-99415656D01*
X28111000Y-99514344D01*
X28091747Y-99611136D01*
X28053981Y-99702312D01*
X27999150Y-99784372D01*
X27929372Y-99854150D01*
X27847312Y-99908981D01*
X27756136Y-99946747D01*
X27659344Y-99966000D01*
X27560656Y-99966000D01*
X27463864Y-99946747D01*
X27372688Y-99908981D01*
X27290628Y-99854150D01*
X27220850Y-99784372D01*
X27166019Y-99702312D01*
X27128253Y-99611136D01*
X27109000Y-99514344D01*
X27109000Y-99415656D01*
X27128253Y-99318864D01*
X27166019Y-99227688D01*
X27220850Y-99145628D01*
X27290628Y-99075850D01*
X27372688Y-99021019D01*
X27463864Y-98983253D01*
X27560656Y-98964000D01*
X27659344Y-98964000D01*
X27756136Y-98983253D01*
X27756136Y-98983253D01*
G37*
G36*
X98301000Y-95515000D02*
X92199000Y-95515000D01*
X92199000Y-90413000D01*
X98301000Y-90413000D01*
X98301000Y-95515000D01*
X98301000Y-95515000D01*
G37*
G36*
X98301000Y-89927000D02*
X92199000Y-89927000D01*
X92199000Y-84825000D01*
X98301000Y-84825000D01*
X98301000Y-89927000D01*
X98301000Y-89927000D01*
G37*
G36*
X98301000Y-84339000D02*
X92199000Y-84339000D01*
X92199000Y-79237000D01*
X98301000Y-79237000D01*
X98301000Y-84339000D01*
X98301000Y-84339000D01*
G37*
G36*
X98301000Y-78751000D02*
X92199000Y-78751000D01*
X92199000Y-73649000D01*
X98301000Y-73649000D01*
X98301000Y-78751000D01*
X98301000Y-78751000D01*
G37*
G36*
X93181000Y-45971000D02*
X92079000Y-45971000D01*
X92079000Y-44069000D01*
X93181000Y-44069000D01*
X93181000Y-45971000D01*
X93181000Y-45971000D01*
G37*
G36*
X83181000Y-45971000D02*
X82079000Y-45971000D01*
X82079000Y-44069000D01*
X83181000Y-44069000D01*
X83181000Y-45971000D01*
X83181000Y-45971000D01*
G37*
G36*
X85181000Y-45971000D02*
X84079000Y-45971000D01*
X84079000Y-44069000D01*
X85181000Y-44069000D01*
X85181000Y-45971000D01*
X85181000Y-45971000D01*
G37*
G36*
X87181000Y-45971000D02*
X86079000Y-45971000D01*
X86079000Y-44069000D01*
X87181000Y-44069000D01*
X87181000Y-45971000D01*
X87181000Y-45971000D01*
G37*
G36*
X89181000Y-45971000D02*
X88079000Y-45971000D01*
X88079000Y-44069000D01*
X89181000Y-44069000D01*
X89181000Y-45971000D01*
X89181000Y-45971000D01*
G37*
G36*
X91181000Y-45971000D02*
X90079000Y-45971000D01*
X90079000Y-44069000D01*
X91181000Y-44069000D01*
X91181000Y-45971000D01*
X91181000Y-45971000D01*
G37*
G36*
X74861000Y-42891000D02*
X74863402Y-42915386D01*
X74870515Y-42938835D01*
X74882066Y-42960446D01*
X74897612Y-42979388D01*
X74916554Y-42994934D01*
X74938165Y-43006485D01*
X74961614Y-43013598D01*
X74986000Y-43016000D01*
X75061000Y-43016000D01*
X75061000Y-44868000D01*
X74986000Y-44868000D01*
X74961614Y-44870402D01*
X74938165Y-44877515D01*
X74916554Y-44889066D01*
X74897612Y-44904612D01*
X74882066Y-44923554D01*
X74870515Y-44945165D01*
X74863402Y-44968614D01*
X74861000Y-44993000D01*
X74861000Y-45868000D01*
X72459000Y-45868000D01*
X72459000Y-44993000D01*
X72456598Y-44968614D01*
X72449485Y-44945165D01*
X72437934Y-44923554D01*
X72422388Y-44904612D01*
X72403446Y-44889066D01*
X72381835Y-44877515D01*
X72358386Y-44870402D01*
X72334000Y-44868000D01*
X72259000Y-44868000D01*
X72259000Y-43016000D01*
X72334000Y-43016000D01*
X72358386Y-43013598D01*
X72381835Y-43006485D01*
X72403446Y-42994934D01*
X72422388Y-42979388D01*
X72437934Y-42960446D01*
X72449485Y-42938835D01*
X72456598Y-42915386D01*
X72459000Y-42891000D01*
X72459000Y-42016000D01*
X74861000Y-42016000D01*
X74861000Y-42891000D01*
X74861000Y-42891000D01*
G37*
G36*
X38236000Y-45851000D02*
X37234000Y-45851000D01*
X37234000Y-44949000D01*
X38236000Y-44949000D01*
X38236000Y-45851000D01*
X38236000Y-45851000D01*
G37*
G36*
X77878938Y-45099716D02*
X77899556Y-45105970D01*
X77918556Y-45116126D01*
X77935208Y-45129792D01*
X77948874Y-45146444D01*
X77959030Y-45165444D01*
X77965284Y-45186062D01*
X77968000Y-45213640D01*
X77968000Y-45672360D01*
X77965284Y-45699938D01*
X77959030Y-45720556D01*
X77948874Y-45739556D01*
X77935208Y-45756208D01*
X77918556Y-45769874D01*
X77899556Y-45780030D01*
X77878938Y-45786284D01*
X77851360Y-45789000D01*
X77342640Y-45789000D01*
X77315062Y-45786284D01*
X77294444Y-45780030D01*
X77275444Y-45769874D01*
X77258792Y-45756208D01*
X77245126Y-45739556D01*
X77234970Y-45720556D01*
X77228716Y-45699938D01*
X77226000Y-45672360D01*
X77226000Y-45213640D01*
X77228716Y-45186062D01*
X77234970Y-45165444D01*
X77245126Y-45146444D01*
X77258792Y-45129792D01*
X77275444Y-45116126D01*
X77294444Y-45105970D01*
X77315062Y-45099716D01*
X77342640Y-45097000D01*
X77851360Y-45097000D01*
X77878938Y-45099716D01*
X77878938Y-45099716D01*
G37*
G36*
X40236000Y-44901000D02*
X39234000Y-44901000D01*
X39234000Y-43999000D01*
X40236000Y-43999000D01*
X40236000Y-44901000D01*
X40236000Y-44901000D01*
G37*
G36*
X43559591Y-43864085D02*
X43593569Y-43874393D01*
X43624887Y-43891133D01*
X43652339Y-43913661D01*
X43674867Y-43941113D01*
X43691607Y-43972431D01*
X43701915Y-44006409D01*
X43706000Y-44047890D01*
X43706000Y-44649110D01*
X43701915Y-44690591D01*
X43691607Y-44724569D01*
X43674867Y-44755887D01*
X43652339Y-44783339D01*
X43624887Y-44805867D01*
X43593569Y-44822607D01*
X43559591Y-44832915D01*
X43518110Y-44837000D01*
X42841890Y-44837000D01*
X42800409Y-44832915D01*
X42766431Y-44822607D01*
X42735113Y-44805867D01*
X42707661Y-44783339D01*
X42685133Y-44755887D01*
X42668393Y-44724569D01*
X42658085Y-44690591D01*
X42654000Y-44649110D01*
X42654000Y-44047890D01*
X42658085Y-44006409D01*
X42668393Y-43972431D01*
X42685133Y-43941113D01*
X42707661Y-43913661D01*
X42735113Y-43891133D01*
X42766431Y-43874393D01*
X42800409Y-43864085D01*
X42841890Y-43860000D01*
X43518110Y-43860000D01*
X43559591Y-43864085D01*
X43559591Y-43864085D01*
G37*
G36*
X77878938Y-44129716D02*
X77899556Y-44135970D01*
X77918556Y-44146126D01*
X77935208Y-44159792D01*
X77948874Y-44176444D01*
X77959030Y-44195444D01*
X77965284Y-44216062D01*
X77968000Y-44243640D01*
X77968000Y-44702360D01*
X77965284Y-44729938D01*
X77959030Y-44750556D01*
X77948874Y-44769556D01*
X77935208Y-44786208D01*
X77918556Y-44799874D01*
X77899556Y-44810030D01*
X77878938Y-44816284D01*
X77851360Y-44819000D01*
X77342640Y-44819000D01*
X77315062Y-44816284D01*
X77294444Y-44810030D01*
X77275444Y-44799874D01*
X77258792Y-44786208D01*
X77245126Y-44769556D01*
X77234970Y-44750556D01*
X77228716Y-44729938D01*
X77226000Y-44702360D01*
X77226000Y-44243640D01*
X77228716Y-44216062D01*
X77234970Y-44195444D01*
X77245126Y-44176444D01*
X77258792Y-44159792D01*
X77275444Y-44146126D01*
X77294444Y-44135970D01*
X77315062Y-44129716D01*
X77342640Y-44127000D01*
X77851360Y-44127000D01*
X77878938Y-44129716D01*
X77878938Y-44129716D01*
G37*
G36*
X96531000Y-44071000D02*
X93929000Y-44071000D01*
X93929000Y-42969000D01*
X96531000Y-42969000D01*
X96531000Y-44071000D01*
X96531000Y-44071000D01*
G37*
G36*
X81331000Y-44071000D02*
X78729000Y-44071000D01*
X78729000Y-42969000D01*
X81331000Y-42969000D01*
X81331000Y-44071000D01*
X81331000Y-44071000D01*
G37*
G36*
X38236000Y-43951000D02*
X37234000Y-43951000D01*
X37234000Y-43049000D01*
X38236000Y-43049000D01*
X38236000Y-43951000D01*
X38236000Y-43951000D01*
G37*
G36*
X30866000Y-43526000D02*
X28564000Y-43526000D01*
X28564000Y-41624000D01*
X30866000Y-41624000D01*
X30866000Y-43526000D01*
X30866000Y-43526000D01*
G37*
G36*
X43559591Y-42289085D02*
X43593569Y-42299393D01*
X43624887Y-42316133D01*
X43652339Y-42338661D01*
X43674867Y-42366113D01*
X43691607Y-42397431D01*
X43701915Y-42431409D01*
X43706000Y-42472890D01*
X43706000Y-43074110D01*
X43701915Y-43115591D01*
X43691607Y-43149569D01*
X43674867Y-43180887D01*
X43652339Y-43208339D01*
X43624887Y-43230867D01*
X43593569Y-43247607D01*
X43559591Y-43257915D01*
X43518110Y-43262000D01*
X42841890Y-43262000D01*
X42800409Y-43257915D01*
X42766431Y-43247607D01*
X42735113Y-43230867D01*
X42707661Y-43208339D01*
X42685133Y-43180887D01*
X42668393Y-43149569D01*
X42658085Y-43115591D01*
X42654000Y-43074110D01*
X42654000Y-42472890D01*
X42658085Y-42431409D01*
X42668393Y-42397431D01*
X42685133Y-42366113D01*
X42707661Y-42338661D01*
X42735113Y-42316133D01*
X42766431Y-42299393D01*
X42800409Y-42289085D01*
X42841890Y-42285000D01*
X43518110Y-42285000D01*
X43559591Y-42289085D01*
X43559591Y-42289085D01*
G37*
G36*
X81331000Y-42071000D02*
X78729000Y-42071000D01*
X78729000Y-40969000D01*
X81331000Y-40969000D01*
X81331000Y-42071000D01*
X81331000Y-42071000D01*
G37*
G36*
X96531000Y-42071000D02*
X93929000Y-42071000D01*
X93929000Y-40969000D01*
X96531000Y-40969000D01*
X96531000Y-42071000D01*
X96531000Y-42071000D01*
G37*
G36*
X40044466Y-40528565D02*
X40083137Y-40540296D01*
X40118779Y-40559348D01*
X40150017Y-40584983D01*
X40175652Y-40616221D01*
X40194704Y-40651863D01*
X40206435Y-40690534D01*
X40211000Y-40736888D01*
X40211000Y-41813112D01*
X40206435Y-41859466D01*
X40194704Y-41898137D01*
X40175652Y-41933779D01*
X40150017Y-41965017D01*
X40118779Y-41990652D01*
X40083137Y-42009704D01*
X40044466Y-42021435D01*
X39998112Y-42026000D01*
X39346888Y-42026000D01*
X39300534Y-42021435D01*
X39261863Y-42009704D01*
X39226221Y-41990652D01*
X39194983Y-41965017D01*
X39169348Y-41933779D01*
X39150296Y-41898137D01*
X39138565Y-41859466D01*
X39134000Y-41813112D01*
X39134000Y-40736888D01*
X39138565Y-40690534D01*
X39150296Y-40651863D01*
X39169348Y-40616221D01*
X39194983Y-40584983D01*
X39226221Y-40559348D01*
X39261863Y-40540296D01*
X39300534Y-40528565D01*
X39346888Y-40524000D01*
X39998112Y-40524000D01*
X40044466Y-40528565D01*
X40044466Y-40528565D01*
G37*
G36*
X38169466Y-40528565D02*
X38208137Y-40540296D01*
X38243779Y-40559348D01*
X38275017Y-40584983D01*
X38300652Y-40616221D01*
X38319704Y-40651863D01*
X38331435Y-40690534D01*
X38336000Y-40736888D01*
X38336000Y-41813112D01*
X38331435Y-41859466D01*
X38319704Y-41898137D01*
X38300652Y-41933779D01*
X38275017Y-41965017D01*
X38243779Y-41990652D01*
X38208137Y-42009704D01*
X38169466Y-42021435D01*
X38123112Y-42026000D01*
X37471888Y-42026000D01*
X37425534Y-42021435D01*
X37386863Y-42009704D01*
X37351221Y-41990652D01*
X37319983Y-41965017D01*
X37294348Y-41933779D01*
X37275296Y-41898137D01*
X37263565Y-41859466D01*
X37259000Y-41813112D01*
X37259000Y-40736888D01*
X37263565Y-40690534D01*
X37275296Y-40651863D01*
X37294348Y-40616221D01*
X37319983Y-40584983D01*
X37351221Y-40559348D01*
X37386863Y-40540296D01*
X37425534Y-40528565D01*
X37471888Y-40524000D01*
X38123112Y-40524000D01*
X38169466Y-40528565D01*
X38169466Y-40528565D01*
G37*
G36*
X33666000Y-40876000D02*
X32264000Y-40876000D01*
X32264000Y-28974000D01*
X33666000Y-28974000D01*
X33666000Y-40876000D01*
X33666000Y-40876000D01*
G37*
G36*
X96531000Y-40071000D02*
X93929000Y-40071000D01*
X93929000Y-38969000D01*
X96531000Y-38969000D01*
X96531000Y-40071000D01*
X96531000Y-40071000D01*
G37*
G36*
X81331000Y-40071000D02*
X78729000Y-40071000D01*
X78729000Y-38969000D01*
X81331000Y-38969000D01*
X81331000Y-40071000D01*
X81331000Y-40071000D01*
G37*
G36*
X40044466Y-37988565D02*
X40083137Y-38000296D01*
X40118779Y-38019348D01*
X40150017Y-38044983D01*
X40175652Y-38076221D01*
X40194704Y-38111863D01*
X40206435Y-38150534D01*
X40211000Y-38196888D01*
X40211000Y-39273112D01*
X40206435Y-39319466D01*
X40194704Y-39358137D01*
X40175652Y-39393779D01*
X40150017Y-39425017D01*
X40118779Y-39450652D01*
X40083137Y-39469704D01*
X40044466Y-39481435D01*
X39998112Y-39486000D01*
X39346888Y-39486000D01*
X39300534Y-39481435D01*
X39261863Y-39469704D01*
X39226221Y-39450652D01*
X39194983Y-39425017D01*
X39169348Y-39393779D01*
X39150296Y-39358137D01*
X39138565Y-39319466D01*
X39134000Y-39273112D01*
X39134000Y-38196888D01*
X39138565Y-38150534D01*
X39150296Y-38111863D01*
X39169348Y-38076221D01*
X39194983Y-38044983D01*
X39226221Y-38019348D01*
X39261863Y-38000296D01*
X39300534Y-37988565D01*
X39346888Y-37984000D01*
X39998112Y-37984000D01*
X40044466Y-37988565D01*
X40044466Y-37988565D01*
G37*
G36*
X38169466Y-37988565D02*
X38208137Y-38000296D01*
X38243779Y-38019348D01*
X38275017Y-38044983D01*
X38300652Y-38076221D01*
X38319704Y-38111863D01*
X38331435Y-38150534D01*
X38336000Y-38196888D01*
X38336000Y-39273112D01*
X38331435Y-39319466D01*
X38319704Y-39358137D01*
X38300652Y-39393779D01*
X38275017Y-39425017D01*
X38243779Y-39450652D01*
X38208137Y-39469704D01*
X38169466Y-39481435D01*
X38123112Y-39486000D01*
X37471888Y-39486000D01*
X37425534Y-39481435D01*
X37386863Y-39469704D01*
X37351221Y-39450652D01*
X37319983Y-39425017D01*
X37294348Y-39393779D01*
X37275296Y-39358137D01*
X37263565Y-39319466D01*
X37259000Y-39273112D01*
X37259000Y-38196888D01*
X37263565Y-38150534D01*
X37275296Y-38111863D01*
X37294348Y-38076221D01*
X37319983Y-38044983D01*
X37351221Y-38019348D01*
X37386863Y-38000296D01*
X37425534Y-37988565D01*
X37471888Y-37984000D01*
X38123112Y-37984000D01*
X38169466Y-37988565D01*
X38169466Y-37988565D01*
G37*
G36*
X96531000Y-38071000D02*
X93929000Y-38071000D01*
X93929000Y-36969000D01*
X96531000Y-36969000D01*
X96531000Y-38071000D01*
X96531000Y-38071000D01*
G37*
G36*
X81331000Y-38071000D02*
X78729000Y-38071000D01*
X78729000Y-36969000D01*
X81331000Y-36969000D01*
X81331000Y-38071000D01*
X81331000Y-38071000D01*
G37*
G36*
X40044466Y-35448565D02*
X40083137Y-35460296D01*
X40118779Y-35479348D01*
X40150017Y-35504983D01*
X40175652Y-35536221D01*
X40194704Y-35571863D01*
X40206435Y-35610534D01*
X40211000Y-35656888D01*
X40211000Y-36733112D01*
X40206435Y-36779466D01*
X40194704Y-36818137D01*
X40175652Y-36853779D01*
X40150017Y-36885017D01*
X40118779Y-36910652D01*
X40083137Y-36929704D01*
X40044466Y-36941435D01*
X39998112Y-36946000D01*
X39346888Y-36946000D01*
X39300534Y-36941435D01*
X39261863Y-36929704D01*
X39226221Y-36910652D01*
X39194983Y-36885017D01*
X39169348Y-36853779D01*
X39150296Y-36818137D01*
X39138565Y-36779466D01*
X39134000Y-36733112D01*
X39134000Y-35656888D01*
X39138565Y-35610534D01*
X39150296Y-35571863D01*
X39169348Y-35536221D01*
X39194983Y-35504983D01*
X39226221Y-35479348D01*
X39261863Y-35460296D01*
X39300534Y-35448565D01*
X39346888Y-35444000D01*
X39998112Y-35444000D01*
X40044466Y-35448565D01*
X40044466Y-35448565D01*
G37*
G36*
X38169466Y-35448565D02*
X38208137Y-35460296D01*
X38243779Y-35479348D01*
X38275017Y-35504983D01*
X38300652Y-35536221D01*
X38319704Y-35571863D01*
X38331435Y-35610534D01*
X38336000Y-35656888D01*
X38336000Y-36733112D01*
X38331435Y-36779466D01*
X38319704Y-36818137D01*
X38300652Y-36853779D01*
X38275017Y-36885017D01*
X38243779Y-36910652D01*
X38208137Y-36929704D01*
X38169466Y-36941435D01*
X38123112Y-36946000D01*
X37471888Y-36946000D01*
X37425534Y-36941435D01*
X37386863Y-36929704D01*
X37351221Y-36910652D01*
X37319983Y-36885017D01*
X37294348Y-36853779D01*
X37275296Y-36818137D01*
X37263565Y-36779466D01*
X37259000Y-36733112D01*
X37259000Y-35656888D01*
X37263565Y-35610534D01*
X37275296Y-35571863D01*
X37294348Y-35536221D01*
X37319983Y-35504983D01*
X37351221Y-35479348D01*
X37386863Y-35460296D01*
X37425534Y-35448565D01*
X37471888Y-35444000D01*
X38123112Y-35444000D01*
X38169466Y-35448565D01*
X38169466Y-35448565D01*
G37*
G36*
X81331000Y-36071000D02*
X78729000Y-36071000D01*
X78729000Y-34969000D01*
X81331000Y-34969000D01*
X81331000Y-36071000D01*
X81331000Y-36071000D01*
G37*
G36*
X96531000Y-36071000D02*
X93929000Y-36071000D01*
X93929000Y-34969000D01*
X96531000Y-34969000D01*
X96531000Y-36071000D01*
X96531000Y-36071000D01*
G37*
G36*
X66243466Y-34185565D02*
X66282137Y-34197296D01*
X66317779Y-34216348D01*
X66349017Y-34241983D01*
X66374652Y-34273221D01*
X66393704Y-34308863D01*
X66405435Y-34347534D01*
X66410000Y-34393888D01*
X66410000Y-35045112D01*
X66405435Y-35091466D01*
X66393704Y-35130137D01*
X66374652Y-35165779D01*
X66349017Y-35197017D01*
X66317779Y-35222652D01*
X66282137Y-35241704D01*
X66243466Y-35253435D01*
X66197112Y-35258000D01*
X65120888Y-35258000D01*
X65074534Y-35253435D01*
X65035863Y-35241704D01*
X65000221Y-35222652D01*
X64968983Y-35197017D01*
X64943348Y-35165779D01*
X64924296Y-35130137D01*
X64912565Y-35091466D01*
X64908000Y-35045112D01*
X64908000Y-34393888D01*
X64912565Y-34347534D01*
X64924296Y-34308863D01*
X64943348Y-34273221D01*
X64968983Y-34241983D01*
X65000221Y-34216348D01*
X65035863Y-34197296D01*
X65074534Y-34185565D01*
X65120888Y-34181000D01*
X66197112Y-34181000D01*
X66243466Y-34185565D01*
X66243466Y-34185565D01*
G37*
G36*
X75027000Y-34768000D02*
X73375000Y-34768000D01*
X73375000Y-34066000D01*
X75027000Y-34066000D01*
X75027000Y-34768000D01*
X75027000Y-34768000D01*
G37*
G36*
X69627000Y-34768000D02*
X67975000Y-34768000D01*
X67975000Y-34066000D01*
X69627000Y-34066000D01*
X69627000Y-34768000D01*
X69627000Y-34768000D01*
G37*
G36*
X38169466Y-32908565D02*
X38208137Y-32920296D01*
X38243779Y-32939348D01*
X38275017Y-32964983D01*
X38300652Y-32996221D01*
X38319704Y-33031863D01*
X38331435Y-33070534D01*
X38336000Y-33116888D01*
X38336000Y-34193112D01*
X38331435Y-34239466D01*
X38319704Y-34278137D01*
X38300652Y-34313779D01*
X38275017Y-34345017D01*
X38243779Y-34370652D01*
X38208137Y-34389704D01*
X38169466Y-34401435D01*
X38123112Y-34406000D01*
X37471888Y-34406000D01*
X37425534Y-34401435D01*
X37386863Y-34389704D01*
X37351221Y-34370652D01*
X37319983Y-34345017D01*
X37294348Y-34313779D01*
X37275296Y-34278137D01*
X37263565Y-34239466D01*
X37259000Y-34193112D01*
X37259000Y-33116888D01*
X37263565Y-33070534D01*
X37275296Y-33031863D01*
X37294348Y-32996221D01*
X37319983Y-32964983D01*
X37351221Y-32939348D01*
X37386863Y-32920296D01*
X37425534Y-32908565D01*
X37471888Y-32904000D01*
X38123112Y-32904000D01*
X38169466Y-32908565D01*
X38169466Y-32908565D01*
G37*
G36*
X40044466Y-32908565D02*
X40083137Y-32920296D01*
X40118779Y-32939348D01*
X40150017Y-32964983D01*
X40175652Y-32996221D01*
X40194704Y-33031863D01*
X40206435Y-33070534D01*
X40211000Y-33116888D01*
X40211000Y-34193112D01*
X40206435Y-34239466D01*
X40194704Y-34278137D01*
X40175652Y-34313779D01*
X40150017Y-34345017D01*
X40118779Y-34370652D01*
X40083137Y-34389704D01*
X40044466Y-34401435D01*
X39998112Y-34406000D01*
X39346888Y-34406000D01*
X39300534Y-34401435D01*
X39261863Y-34389704D01*
X39226221Y-34370652D01*
X39194983Y-34345017D01*
X39169348Y-34313779D01*
X39150296Y-34278137D01*
X39138565Y-34239466D01*
X39134000Y-34193112D01*
X39134000Y-33116888D01*
X39138565Y-33070534D01*
X39150296Y-33031863D01*
X39169348Y-32996221D01*
X39194983Y-32964983D01*
X39226221Y-32939348D01*
X39261863Y-32920296D01*
X39300534Y-32908565D01*
X39346888Y-32904000D01*
X39998112Y-32904000D01*
X40044466Y-32908565D01*
X40044466Y-32908565D01*
G37*
G36*
X96531000Y-34071000D02*
X93929000Y-34071000D01*
X93929000Y-32969000D01*
X96531000Y-32969000D01*
X96531000Y-34071000D01*
X96531000Y-34071000D01*
G37*
G36*
X81331000Y-34071000D02*
X78729000Y-34071000D01*
X78729000Y-32969000D01*
X81331000Y-32969000D01*
X81331000Y-34071000D01*
X81331000Y-34071000D01*
G37*
G36*
X75027000Y-33498000D02*
X73375000Y-33498000D01*
X73375000Y-32796000D01*
X75027000Y-32796000D01*
X75027000Y-33498000D01*
X75027000Y-33498000D01*
G37*
G36*
X69627000Y-33498000D02*
X67975000Y-33498000D01*
X67975000Y-32796000D01*
X69627000Y-32796000D01*
X69627000Y-33498000D01*
X69627000Y-33498000D01*
G37*
G36*
X66243466Y-32310565D02*
X66282137Y-32322296D01*
X66317779Y-32341348D01*
X66349017Y-32366983D01*
X66374652Y-32398221D01*
X66393704Y-32433863D01*
X66405435Y-32472534D01*
X66410000Y-32518888D01*
X66410000Y-33170112D01*
X66405435Y-33216466D01*
X66393704Y-33255137D01*
X66374652Y-33290779D01*
X66349017Y-33322017D01*
X66317779Y-33347652D01*
X66282137Y-33366704D01*
X66243466Y-33378435D01*
X66197112Y-33383000D01*
X65120888Y-33383000D01*
X65074534Y-33378435D01*
X65035863Y-33366704D01*
X65000221Y-33347652D01*
X64968983Y-33322017D01*
X64943348Y-33290779D01*
X64924296Y-33255137D01*
X64912565Y-33216466D01*
X64908000Y-33170112D01*
X64908000Y-32518888D01*
X64912565Y-32472534D01*
X64924296Y-32433863D01*
X64943348Y-32398221D01*
X64968983Y-32366983D01*
X65000221Y-32341348D01*
X65035863Y-32322296D01*
X65074534Y-32310565D01*
X65120888Y-32306000D01*
X66197112Y-32306000D01*
X66243466Y-32310565D01*
X66243466Y-32310565D01*
G37*
G36*
X75027000Y-32228000D02*
X73375000Y-32228000D01*
X73375000Y-31526000D01*
X75027000Y-31526000D01*
X75027000Y-32228000D01*
X75027000Y-32228000D01*
G37*
G36*
X69627000Y-32228000D02*
X67975000Y-32228000D01*
X67975000Y-31526000D01*
X69627000Y-31526000D01*
X69627000Y-32228000D01*
X69627000Y-32228000D01*
G37*
G36*
X81331000Y-32071000D02*
X78729000Y-32071000D01*
X78729000Y-30969000D01*
X81331000Y-30969000D01*
X81331000Y-32071000D01*
X81331000Y-32071000D01*
G37*
G36*
X96531000Y-32071000D02*
X93929000Y-32071000D01*
X93929000Y-30969000D01*
X96531000Y-30969000D01*
X96531000Y-32071000D01*
X96531000Y-32071000D01*
G37*
G36*
X40044466Y-30368565D02*
X40083137Y-30380296D01*
X40118779Y-30399348D01*
X40150017Y-30424983D01*
X40175652Y-30456221D01*
X40194704Y-30491863D01*
X40206435Y-30530534D01*
X40211000Y-30576888D01*
X40211000Y-31653112D01*
X40206435Y-31699466D01*
X40194704Y-31738137D01*
X40175652Y-31773779D01*
X40150017Y-31805017D01*
X40118779Y-31830652D01*
X40083137Y-31849704D01*
X40044466Y-31861435D01*
X39998112Y-31866000D01*
X39346888Y-31866000D01*
X39300534Y-31861435D01*
X39261863Y-31849704D01*
X39226221Y-31830652D01*
X39194983Y-31805017D01*
X39169348Y-31773779D01*
X39150296Y-31738137D01*
X39138565Y-31699466D01*
X39134000Y-31653112D01*
X39134000Y-30576888D01*
X39138565Y-30530534D01*
X39150296Y-30491863D01*
X39169348Y-30456221D01*
X39194983Y-30424983D01*
X39226221Y-30399348D01*
X39261863Y-30380296D01*
X39300534Y-30368565D01*
X39346888Y-30364000D01*
X39998112Y-30364000D01*
X40044466Y-30368565D01*
X40044466Y-30368565D01*
G37*
G36*
X38169466Y-30368565D02*
X38208137Y-30380296D01*
X38243779Y-30399348D01*
X38275017Y-30424983D01*
X38300652Y-30456221D01*
X38319704Y-30491863D01*
X38331435Y-30530534D01*
X38336000Y-30576888D01*
X38336000Y-31653112D01*
X38331435Y-31699466D01*
X38319704Y-31738137D01*
X38300652Y-31773779D01*
X38275017Y-31805017D01*
X38243779Y-31830652D01*
X38208137Y-31849704D01*
X38169466Y-31861435D01*
X38123112Y-31866000D01*
X37471888Y-31866000D01*
X37425534Y-31861435D01*
X37386863Y-31849704D01*
X37351221Y-31830652D01*
X37319983Y-31805017D01*
X37294348Y-31773779D01*
X37275296Y-31738137D01*
X37263565Y-31699466D01*
X37259000Y-31653112D01*
X37259000Y-30576888D01*
X37263565Y-30530534D01*
X37275296Y-30491863D01*
X37294348Y-30456221D01*
X37319983Y-30424983D01*
X37351221Y-30399348D01*
X37386863Y-30380296D01*
X37425534Y-30368565D01*
X37471888Y-30364000D01*
X38123112Y-30364000D01*
X38169466Y-30368565D01*
X38169466Y-30368565D01*
G37*
G36*
X75027000Y-30958000D02*
X73375000Y-30958000D01*
X73375000Y-30256000D01*
X75027000Y-30256000D01*
X75027000Y-30958000D01*
X75027000Y-30958000D01*
G37*
G36*
X69627000Y-30958000D02*
X67975000Y-30958000D01*
X67975000Y-30256000D01*
X69627000Y-30256000D01*
X69627000Y-30958000D01*
X69627000Y-30958000D01*
G37*
G36*
X96531000Y-30071000D02*
X93929000Y-30071000D01*
X93929000Y-28969000D01*
X96531000Y-28969000D01*
X96531000Y-30071000D01*
X96531000Y-30071000D01*
G37*
G36*
X81331000Y-30071000D02*
X78729000Y-30071000D01*
X78729000Y-28969000D01*
X81331000Y-28969000D01*
X81331000Y-30071000D01*
X81331000Y-30071000D01*
G37*
G36*
X38169466Y-27828565D02*
X38208137Y-27840296D01*
X38243779Y-27859348D01*
X38275017Y-27884983D01*
X38300652Y-27916221D01*
X38319704Y-27951863D01*
X38331435Y-27990534D01*
X38336000Y-28036888D01*
X38336000Y-29113112D01*
X38331435Y-29159466D01*
X38319704Y-29198137D01*
X38300652Y-29233779D01*
X38275017Y-29265017D01*
X38243779Y-29290652D01*
X38208137Y-29309704D01*
X38169466Y-29321435D01*
X38123112Y-29326000D01*
X37471888Y-29326000D01*
X37425534Y-29321435D01*
X37386863Y-29309704D01*
X37351221Y-29290652D01*
X37319983Y-29265017D01*
X37294348Y-29233779D01*
X37275296Y-29198137D01*
X37263565Y-29159466D01*
X37259000Y-29113112D01*
X37259000Y-28036888D01*
X37263565Y-27990534D01*
X37275296Y-27951863D01*
X37294348Y-27916221D01*
X37319983Y-27884983D01*
X37351221Y-27859348D01*
X37386863Y-27840296D01*
X37425534Y-27828565D01*
X37471888Y-27824000D01*
X38123112Y-27824000D01*
X38169466Y-27828565D01*
X38169466Y-27828565D01*
G37*
G36*
X40044466Y-27828565D02*
X40083137Y-27840296D01*
X40118779Y-27859348D01*
X40150017Y-27884983D01*
X40175652Y-27916221D01*
X40194704Y-27951863D01*
X40206435Y-27990534D01*
X40211000Y-28036888D01*
X40211000Y-29113112D01*
X40206435Y-29159466D01*
X40194704Y-29198137D01*
X40175652Y-29233779D01*
X40150017Y-29265017D01*
X40118779Y-29290652D01*
X40083137Y-29309704D01*
X40044466Y-29321435D01*
X39998112Y-29326000D01*
X39346888Y-29326000D01*
X39300534Y-29321435D01*
X39261863Y-29309704D01*
X39226221Y-29290652D01*
X39194983Y-29265017D01*
X39169348Y-29233779D01*
X39150296Y-29198137D01*
X39138565Y-29159466D01*
X39134000Y-29113112D01*
X39134000Y-28036888D01*
X39138565Y-27990534D01*
X39150296Y-27951863D01*
X39169348Y-27916221D01*
X39194983Y-27884983D01*
X39226221Y-27859348D01*
X39261863Y-27840296D01*
X39300534Y-27828565D01*
X39346888Y-27824000D01*
X39998112Y-27824000D01*
X40044466Y-27828565D01*
X40044466Y-27828565D01*
G37*
G36*
X47236000Y-29226000D02*
X46234000Y-29226000D01*
X46234000Y-27924000D01*
X47236000Y-27924000D01*
X47236000Y-29226000D01*
X47236000Y-29226000D01*
G37*
G36*
X43936000Y-29226000D02*
X42934000Y-29226000D01*
X42934000Y-27924000D01*
X43936000Y-27924000D01*
X43936000Y-29226000D01*
X43936000Y-29226000D01*
G37*
G36*
X68903466Y-27447565D02*
X68942137Y-27459296D01*
X68977779Y-27478348D01*
X69009017Y-27503983D01*
X69034652Y-27535221D01*
X69053704Y-27570863D01*
X69065435Y-27609534D01*
X69070000Y-27655888D01*
X69070000Y-28732112D01*
X69065435Y-28778466D01*
X69053704Y-28817137D01*
X69034652Y-28852779D01*
X69009017Y-28884017D01*
X68977779Y-28909652D01*
X68942137Y-28928704D01*
X68903466Y-28940435D01*
X68857112Y-28945000D01*
X68205888Y-28945000D01*
X68159534Y-28940435D01*
X68120863Y-28928704D01*
X68085221Y-28909652D01*
X68053983Y-28884017D01*
X68028348Y-28852779D01*
X68009296Y-28817137D01*
X67997565Y-28778466D01*
X67993000Y-28732112D01*
X67993000Y-27655888D01*
X67997565Y-27609534D01*
X68009296Y-27570863D01*
X68028348Y-27535221D01*
X68053983Y-27503983D01*
X68085221Y-27478348D01*
X68120863Y-27459296D01*
X68159534Y-27447565D01*
X68205888Y-27443000D01*
X68857112Y-27443000D01*
X68903466Y-27447565D01*
X68903466Y-27447565D01*
G37*
G36*
X70778466Y-27447565D02*
X70817137Y-27459296D01*
X70852779Y-27478348D01*
X70884017Y-27503983D01*
X70909652Y-27535221D01*
X70928704Y-27570863D01*
X70940435Y-27609534D01*
X70945000Y-27655888D01*
X70945000Y-28732112D01*
X70940435Y-28778466D01*
X70928704Y-28817137D01*
X70909652Y-28852779D01*
X70884017Y-28884017D01*
X70852779Y-28909652D01*
X70817137Y-28928704D01*
X70778466Y-28940435D01*
X70732112Y-28945000D01*
X70080888Y-28945000D01*
X70034534Y-28940435D01*
X69995863Y-28928704D01*
X69960221Y-28909652D01*
X69928983Y-28884017D01*
X69903348Y-28852779D01*
X69884296Y-28817137D01*
X69872565Y-28778466D01*
X69868000Y-28732112D01*
X69868000Y-27655888D01*
X69872565Y-27609534D01*
X69884296Y-27570863D01*
X69903348Y-27535221D01*
X69928983Y-27503983D01*
X69960221Y-27478348D01*
X69995863Y-27459296D01*
X70034534Y-27447565D01*
X70080888Y-27443000D01*
X70732112Y-27443000D01*
X70778466Y-27447565D01*
X70778466Y-27447565D01*
G37*
G36*
X74842466Y-27447565D02*
X74881137Y-27459296D01*
X74916779Y-27478348D01*
X74948017Y-27503983D01*
X74973652Y-27535221D01*
X74992704Y-27570863D01*
X75004435Y-27609534D01*
X75009000Y-27655888D01*
X75009000Y-28732112D01*
X75004435Y-28778466D01*
X74992704Y-28817137D01*
X74973652Y-28852779D01*
X74948017Y-28884017D01*
X74916779Y-28909652D01*
X74881137Y-28928704D01*
X74842466Y-28940435D01*
X74796112Y-28945000D01*
X74144888Y-28945000D01*
X74098534Y-28940435D01*
X74059863Y-28928704D01*
X74024221Y-28909652D01*
X73992983Y-28884017D01*
X73967348Y-28852779D01*
X73948296Y-28817137D01*
X73936565Y-28778466D01*
X73932000Y-28732112D01*
X73932000Y-27655888D01*
X73936565Y-27609534D01*
X73948296Y-27570863D01*
X73967348Y-27535221D01*
X73992983Y-27503983D01*
X74024221Y-27478348D01*
X74059863Y-27459296D01*
X74098534Y-27447565D01*
X74144888Y-27443000D01*
X74796112Y-27443000D01*
X74842466Y-27447565D01*
X74842466Y-27447565D01*
G37*
G36*
X72967466Y-27447565D02*
X73006137Y-27459296D01*
X73041779Y-27478348D01*
X73073017Y-27503983D01*
X73098652Y-27535221D01*
X73117704Y-27570863D01*
X73129435Y-27609534D01*
X73134000Y-27655888D01*
X73134000Y-28732112D01*
X73129435Y-28778466D01*
X73117704Y-28817137D01*
X73098652Y-28852779D01*
X73073017Y-28884017D01*
X73041779Y-28909652D01*
X73006137Y-28928704D01*
X72967466Y-28940435D01*
X72921112Y-28945000D01*
X72269888Y-28945000D01*
X72223534Y-28940435D01*
X72184863Y-28928704D01*
X72149221Y-28909652D01*
X72117983Y-28884017D01*
X72092348Y-28852779D01*
X72073296Y-28817137D01*
X72061565Y-28778466D01*
X72057000Y-28732112D01*
X72057000Y-27655888D01*
X72061565Y-27609534D01*
X72073296Y-27570863D01*
X72092348Y-27535221D01*
X72117983Y-27503983D01*
X72149221Y-27478348D01*
X72184863Y-27459296D01*
X72223534Y-27447565D01*
X72269888Y-27443000D01*
X72921112Y-27443000D01*
X72967466Y-27447565D01*
X72967466Y-27447565D01*
G37*
G36*
X30866000Y-28226000D02*
X28564000Y-28226000D01*
X28564000Y-26324000D01*
X30866000Y-26324000D01*
X30866000Y-28226000D01*
X30866000Y-28226000D01*
G37*
G36*
X76989938Y-26176716D02*
X77010556Y-26182970D01*
X77029556Y-26193126D01*
X77046208Y-26206792D01*
X77059874Y-26223444D01*
X77070030Y-26242444D01*
X77076284Y-26263062D01*
X77079000Y-26290640D01*
X77079000Y-26749360D01*
X77076284Y-26776938D01*
X77070030Y-26797556D01*
X77059874Y-26816556D01*
X77046208Y-26833208D01*
X77029556Y-26846874D01*
X77010556Y-26857030D01*
X76989938Y-26863284D01*
X76962360Y-26866000D01*
X76453640Y-26866000D01*
X76426062Y-26863284D01*
X76405444Y-26857030D01*
X76386444Y-26846874D01*
X76369792Y-26833208D01*
X76356126Y-26816556D01*
X76345970Y-26797556D01*
X76339716Y-26776938D01*
X76337000Y-26749360D01*
X76337000Y-26290640D01*
X76339716Y-26263062D01*
X76345970Y-26242444D01*
X76356126Y-26223444D01*
X76369792Y-26206792D01*
X76386444Y-26193126D01*
X76405444Y-26182970D01*
X76426062Y-26176716D01*
X76453640Y-26174000D01*
X76962360Y-26174000D01*
X76989938Y-26176716D01*
X76989938Y-26176716D01*
G37*
G36*
X40044466Y-25288565D02*
X40083137Y-25300296D01*
X40118779Y-25319348D01*
X40150017Y-25344983D01*
X40175652Y-25376221D01*
X40194704Y-25411863D01*
X40206435Y-25450534D01*
X40211000Y-25496888D01*
X40211000Y-26573112D01*
X40206435Y-26619466D01*
X40194704Y-26658137D01*
X40175652Y-26693779D01*
X40150017Y-26725017D01*
X40118779Y-26750652D01*
X40083137Y-26769704D01*
X40044466Y-26781435D01*
X39998112Y-26786000D01*
X39346888Y-26786000D01*
X39300534Y-26781435D01*
X39261863Y-26769704D01*
X39226221Y-26750652D01*
X39194983Y-26725017D01*
X39169348Y-26693779D01*
X39150296Y-26658137D01*
X39138565Y-26619466D01*
X39134000Y-26573112D01*
X39134000Y-25496888D01*
X39138565Y-25450534D01*
X39150296Y-25411863D01*
X39169348Y-25376221D01*
X39194983Y-25344983D01*
X39226221Y-25319348D01*
X39261863Y-25300296D01*
X39300534Y-25288565D01*
X39346888Y-25284000D01*
X39998112Y-25284000D01*
X40044466Y-25288565D01*
X40044466Y-25288565D01*
G37*
G36*
X38169466Y-25288565D02*
X38208137Y-25300296D01*
X38243779Y-25319348D01*
X38275017Y-25344983D01*
X38300652Y-25376221D01*
X38319704Y-25411863D01*
X38331435Y-25450534D01*
X38336000Y-25496888D01*
X38336000Y-26573112D01*
X38331435Y-26619466D01*
X38319704Y-26658137D01*
X38300652Y-26693779D01*
X38275017Y-26725017D01*
X38243779Y-26750652D01*
X38208137Y-26769704D01*
X38169466Y-26781435D01*
X38123112Y-26786000D01*
X37471888Y-26786000D01*
X37425534Y-26781435D01*
X37386863Y-26769704D01*
X37351221Y-26750652D01*
X37319983Y-26725017D01*
X37294348Y-26693779D01*
X37275296Y-26658137D01*
X37263565Y-26619466D01*
X37259000Y-26573112D01*
X37259000Y-25496888D01*
X37263565Y-25450534D01*
X37275296Y-25411863D01*
X37294348Y-25376221D01*
X37319983Y-25344983D01*
X37351221Y-25319348D01*
X37386863Y-25300296D01*
X37425534Y-25288565D01*
X37471888Y-25284000D01*
X38123112Y-25284000D01*
X38169466Y-25288565D01*
X38169466Y-25288565D01*
G37*
G36*
X43936000Y-26686000D02*
X42934000Y-26686000D01*
X42934000Y-25384000D01*
X43936000Y-25384000D01*
X43936000Y-26686000D01*
X43936000Y-26686000D01*
G37*
G36*
X47236000Y-26686000D02*
X46234000Y-26686000D01*
X46234000Y-25384000D01*
X47236000Y-25384000D01*
X47236000Y-26686000D01*
X47236000Y-26686000D01*
G37*
G36*
X76989938Y-25206716D02*
X77010556Y-25212970D01*
X77029556Y-25223126D01*
X77046208Y-25236792D01*
X77059874Y-25253444D01*
X77070030Y-25272444D01*
X77076284Y-25293062D01*
X77079000Y-25320640D01*
X77079000Y-25779360D01*
X77076284Y-25806938D01*
X77070030Y-25827556D01*
X77059874Y-25846556D01*
X77046208Y-25863208D01*
X77029556Y-25876874D01*
X77010556Y-25887030D01*
X76989938Y-25893284D01*
X76962360Y-25896000D01*
X76453640Y-25896000D01*
X76426062Y-25893284D01*
X76405444Y-25887030D01*
X76386444Y-25876874D01*
X76369792Y-25863208D01*
X76356126Y-25846556D01*
X76345970Y-25827556D01*
X76339716Y-25806938D01*
X76337000Y-25779360D01*
X76337000Y-25320640D01*
X76339716Y-25293062D01*
X76345970Y-25272444D01*
X76356126Y-25253444D01*
X76369792Y-25236792D01*
X76386444Y-25223126D01*
X76405444Y-25212970D01*
X76426062Y-25206716D01*
X76453640Y-25204000D01*
X76962360Y-25204000D01*
X76989938Y-25206716D01*
X76989938Y-25206716D01*
G37*
G36*
X57526000Y-24746000D02*
X55924000Y-24746000D01*
X55924000Y-22244000D01*
X57526000Y-22244000D01*
X57526000Y-24746000D01*
X57526000Y-24746000D01*
G37*
G36*
X52026000Y-24746000D02*
X50424000Y-24746000D01*
X50424000Y-22244000D01*
X52026000Y-22244000D01*
X52026000Y-24746000D01*
X52026000Y-24746000D01*
G37*
G36*
X76989938Y-24017716D02*
X77010556Y-24023970D01*
X77029556Y-24034126D01*
X77046208Y-24047792D01*
X77059874Y-24064444D01*
X77070030Y-24083444D01*
X77076284Y-24104062D01*
X77079000Y-24131640D01*
X77079000Y-24590360D01*
X77076284Y-24617938D01*
X77070030Y-24638556D01*
X77059874Y-24657556D01*
X77046208Y-24674208D01*
X77029556Y-24687874D01*
X77010556Y-24698030D01*
X76989938Y-24704284D01*
X76962360Y-24707000D01*
X76453640Y-24707000D01*
X76426062Y-24704284D01*
X76405444Y-24698030D01*
X76386444Y-24687874D01*
X76369792Y-24674208D01*
X76356126Y-24657556D01*
X76345970Y-24638556D01*
X76339716Y-24617938D01*
X76337000Y-24590360D01*
X76337000Y-24131640D01*
X76339716Y-24104062D01*
X76345970Y-24083444D01*
X76356126Y-24064444D01*
X76369792Y-24047792D01*
X76386444Y-24034126D01*
X76405444Y-24023970D01*
X76426062Y-24017716D01*
X76453640Y-24015000D01*
X76962360Y-24015000D01*
X76989938Y-24017716D01*
X76989938Y-24017716D01*
G37*
G36*
X40044466Y-22748565D02*
X40083137Y-22760296D01*
X40118779Y-22779348D01*
X40150017Y-22804983D01*
X40175652Y-22836221D01*
X40194704Y-22871863D01*
X40206435Y-22910534D01*
X40211000Y-22956888D01*
X40211000Y-24033112D01*
X40206435Y-24079466D01*
X40194704Y-24118137D01*
X40175652Y-24153779D01*
X40150017Y-24185017D01*
X40118779Y-24210652D01*
X40083137Y-24229704D01*
X40044466Y-24241435D01*
X39998112Y-24246000D01*
X39346888Y-24246000D01*
X39300534Y-24241435D01*
X39261863Y-24229704D01*
X39226221Y-24210652D01*
X39194983Y-24185017D01*
X39169348Y-24153779D01*
X39150296Y-24118137D01*
X39138565Y-24079466D01*
X39134000Y-24033112D01*
X39134000Y-22956888D01*
X39138565Y-22910534D01*
X39150296Y-22871863D01*
X39169348Y-22836221D01*
X39194983Y-22804983D01*
X39226221Y-22779348D01*
X39261863Y-22760296D01*
X39300534Y-22748565D01*
X39346888Y-22744000D01*
X39998112Y-22744000D01*
X40044466Y-22748565D01*
X40044466Y-22748565D01*
G37*
G36*
X38169466Y-22748565D02*
X38208137Y-22760296D01*
X38243779Y-22779348D01*
X38275017Y-22804983D01*
X38300652Y-22836221D01*
X38319704Y-22871863D01*
X38331435Y-22910534D01*
X38336000Y-22956888D01*
X38336000Y-24033112D01*
X38331435Y-24079466D01*
X38319704Y-24118137D01*
X38300652Y-24153779D01*
X38275017Y-24185017D01*
X38243779Y-24210652D01*
X38208137Y-24229704D01*
X38169466Y-24241435D01*
X38123112Y-24246000D01*
X37471888Y-24246000D01*
X37425534Y-24241435D01*
X37386863Y-24229704D01*
X37351221Y-24210652D01*
X37319983Y-24185017D01*
X37294348Y-24153779D01*
X37275296Y-24118137D01*
X37263565Y-24079466D01*
X37259000Y-24033112D01*
X37259000Y-22956888D01*
X37263565Y-22910534D01*
X37275296Y-22871863D01*
X37294348Y-22836221D01*
X37319983Y-22804983D01*
X37351221Y-22779348D01*
X37386863Y-22760296D01*
X37425534Y-22748565D01*
X37471888Y-22744000D01*
X38123112Y-22744000D01*
X38169466Y-22748565D01*
X38169466Y-22748565D01*
G37*
G36*
X47236000Y-24146000D02*
X46234000Y-24146000D01*
X46234000Y-22844000D01*
X47236000Y-22844000D01*
X47236000Y-24146000D01*
X47236000Y-24146000D01*
G37*
G36*
X43936000Y-24146000D02*
X42934000Y-24146000D01*
X42934000Y-22844000D01*
X43936000Y-22844000D01*
X43936000Y-24146000D01*
X43936000Y-24146000D01*
G37*
G36*
X76989938Y-23047716D02*
X77010556Y-23053970D01*
X77029556Y-23064126D01*
X77046208Y-23077792D01*
X77059874Y-23094444D01*
X77070030Y-23113444D01*
X77076284Y-23134062D01*
X77079000Y-23161640D01*
X77079000Y-23620360D01*
X77076284Y-23647938D01*
X77070030Y-23668556D01*
X77059874Y-23687556D01*
X77046208Y-23704208D01*
X77029556Y-23717874D01*
X77010556Y-23728030D01*
X76989938Y-23734284D01*
X76962360Y-23737000D01*
X76453640Y-23737000D01*
X76426062Y-23734284D01*
X76405444Y-23728030D01*
X76386444Y-23717874D01*
X76369792Y-23704208D01*
X76356126Y-23687556D01*
X76345970Y-23668556D01*
X76339716Y-23647938D01*
X76337000Y-23620360D01*
X76337000Y-23161640D01*
X76339716Y-23134062D01*
X76345970Y-23113444D01*
X76356126Y-23094444D01*
X76369792Y-23077792D01*
X76386444Y-23064126D01*
X76405444Y-23053970D01*
X76426062Y-23047716D01*
X76453640Y-23045000D01*
X76962360Y-23045000D01*
X76989938Y-23047716D01*
X76989938Y-23047716D01*
G37*
G36*
X74449938Y-21731716D02*
X74470556Y-21737970D01*
X74489556Y-21748126D01*
X74506208Y-21761792D01*
X74519874Y-21778444D01*
X74530030Y-21797444D01*
X74536284Y-21818062D01*
X74539000Y-21845640D01*
X74539000Y-22304360D01*
X74536284Y-22331938D01*
X74530030Y-22352556D01*
X74519874Y-22371556D01*
X74506208Y-22388208D01*
X74489556Y-22401874D01*
X74470556Y-22412030D01*
X74449938Y-22418284D01*
X74422360Y-22421000D01*
X73913640Y-22421000D01*
X73886062Y-22418284D01*
X73865444Y-22412030D01*
X73846444Y-22401874D01*
X73829792Y-22388208D01*
X73816126Y-22371556D01*
X73805970Y-22352556D01*
X73799716Y-22331938D01*
X73797000Y-22304360D01*
X73797000Y-21845640D01*
X73799716Y-21818062D01*
X73805970Y-21797444D01*
X73816126Y-21778444D01*
X73829792Y-21761792D01*
X73846444Y-21748126D01*
X73865444Y-21737970D01*
X73886062Y-21731716D01*
X73913640Y-21729000D01*
X74422360Y-21729000D01*
X74449938Y-21731716D01*
X74449938Y-21731716D01*
G37*
G36*
X76989938Y-21731716D02*
X77010556Y-21737970D01*
X77029556Y-21748126D01*
X77046208Y-21761792D01*
X77059874Y-21778444D01*
X77070030Y-21797444D01*
X77076284Y-21818062D01*
X77079000Y-21845640D01*
X77079000Y-22304360D01*
X77076284Y-22331938D01*
X77070030Y-22352556D01*
X77059874Y-22371556D01*
X77046208Y-22388208D01*
X77029556Y-22401874D01*
X77010556Y-22412030D01*
X76989938Y-22418284D01*
X76962360Y-22421000D01*
X76453640Y-22421000D01*
X76426062Y-22418284D01*
X76405444Y-22412030D01*
X76386444Y-22401874D01*
X76369792Y-22388208D01*
X76356126Y-22371556D01*
X76345970Y-22352556D01*
X76339716Y-22331938D01*
X76337000Y-22304360D01*
X76337000Y-21845640D01*
X76339716Y-21818062D01*
X76345970Y-21797444D01*
X76356126Y-21778444D01*
X76369792Y-21761792D01*
X76386444Y-21748126D01*
X76405444Y-21737970D01*
X76426062Y-21731716D01*
X76453640Y-21729000D01*
X76962360Y-21729000D01*
X76989938Y-21731716D01*
X76989938Y-21731716D01*
G37*
G36*
X38169466Y-20208565D02*
X38208137Y-20220296D01*
X38243779Y-20239348D01*
X38275017Y-20264983D01*
X38300652Y-20296221D01*
X38319704Y-20331863D01*
X38331435Y-20370534D01*
X38336000Y-20416888D01*
X38336000Y-21493112D01*
X38331435Y-21539466D01*
X38319704Y-21578137D01*
X38300652Y-21613779D01*
X38275017Y-21645017D01*
X38243779Y-21670652D01*
X38208137Y-21689704D01*
X38169466Y-21701435D01*
X38123112Y-21706000D01*
X37471888Y-21706000D01*
X37425534Y-21701435D01*
X37386863Y-21689704D01*
X37351221Y-21670652D01*
X37319983Y-21645017D01*
X37294348Y-21613779D01*
X37275296Y-21578137D01*
X37263565Y-21539466D01*
X37259000Y-21493112D01*
X37259000Y-20416888D01*
X37263565Y-20370534D01*
X37275296Y-20331863D01*
X37294348Y-20296221D01*
X37319983Y-20264983D01*
X37351221Y-20239348D01*
X37386863Y-20220296D01*
X37425534Y-20208565D01*
X37471888Y-20204000D01*
X38123112Y-20204000D01*
X38169466Y-20208565D01*
X38169466Y-20208565D01*
G37*
G36*
X40044466Y-20208565D02*
X40083137Y-20220296D01*
X40118779Y-20239348D01*
X40150017Y-20264983D01*
X40175652Y-20296221D01*
X40194704Y-20331863D01*
X40206435Y-20370534D01*
X40211000Y-20416888D01*
X40211000Y-21493112D01*
X40206435Y-21539466D01*
X40194704Y-21578137D01*
X40175652Y-21613779D01*
X40150017Y-21645017D01*
X40118779Y-21670652D01*
X40083137Y-21689704D01*
X40044466Y-21701435D01*
X39998112Y-21706000D01*
X39346888Y-21706000D01*
X39300534Y-21701435D01*
X39261863Y-21689704D01*
X39226221Y-21670652D01*
X39194983Y-21645017D01*
X39169348Y-21613779D01*
X39150296Y-21578137D01*
X39138565Y-21539466D01*
X39134000Y-21493112D01*
X39134000Y-20416888D01*
X39138565Y-20370534D01*
X39150296Y-20331863D01*
X39169348Y-20296221D01*
X39194983Y-20264983D01*
X39226221Y-20239348D01*
X39261863Y-20220296D01*
X39300534Y-20208565D01*
X39346888Y-20204000D01*
X39998112Y-20204000D01*
X40044466Y-20208565D01*
X40044466Y-20208565D01*
G37*
G36*
X76989938Y-20761716D02*
X77010556Y-20767970D01*
X77029556Y-20778126D01*
X77046208Y-20791792D01*
X77059874Y-20808444D01*
X77070030Y-20827444D01*
X77076284Y-20848062D01*
X77079000Y-20875640D01*
X77079000Y-21334360D01*
X77076284Y-21361938D01*
X77070030Y-21382556D01*
X77059874Y-21401556D01*
X77046208Y-21418208D01*
X77029556Y-21431874D01*
X77010556Y-21442030D01*
X76989938Y-21448284D01*
X76962360Y-21451000D01*
X76453640Y-21451000D01*
X76426062Y-21448284D01*
X76405444Y-21442030D01*
X76386444Y-21431874D01*
X76369792Y-21418208D01*
X76356126Y-21401556D01*
X76345970Y-21382556D01*
X76339716Y-21361938D01*
X76337000Y-21334360D01*
X76337000Y-20875640D01*
X76339716Y-20848062D01*
X76345970Y-20827444D01*
X76356126Y-20808444D01*
X76369792Y-20791792D01*
X76386444Y-20778126D01*
X76405444Y-20767970D01*
X76426062Y-20761716D01*
X76453640Y-20759000D01*
X76962360Y-20759000D01*
X76989938Y-20761716D01*
X76989938Y-20761716D01*
G37*
G36*
X74449938Y-20761716D02*
X74470556Y-20767970D01*
X74489556Y-20778126D01*
X74506208Y-20791792D01*
X74519874Y-20808444D01*
X74530030Y-20827444D01*
X74536284Y-20848062D01*
X74539000Y-20875640D01*
X74539000Y-21334360D01*
X74536284Y-21361938D01*
X74530030Y-21382556D01*
X74519874Y-21401556D01*
X74506208Y-21418208D01*
X74489556Y-21431874D01*
X74470556Y-21442030D01*
X74449938Y-21448284D01*
X74422360Y-21451000D01*
X73913640Y-21451000D01*
X73886062Y-21448284D01*
X73865444Y-21442030D01*
X73846444Y-21431874D01*
X73829792Y-21418208D01*
X73816126Y-21401556D01*
X73805970Y-21382556D01*
X73799716Y-21361938D01*
X73797000Y-21334360D01*
X73797000Y-20875640D01*
X73799716Y-20848062D01*
X73805970Y-20827444D01*
X73816126Y-20808444D01*
X73829792Y-20791792D01*
X73846444Y-20778126D01*
X73865444Y-20767970D01*
X73886062Y-20761716D01*
X73913640Y-20759000D01*
X74422360Y-20759000D01*
X74449938Y-20761716D01*
X74449938Y-20761716D01*
G37*
G36*
X45826938Y-20586716D02*
X45847556Y-20592970D01*
X45866556Y-20603126D01*
X45883208Y-20616792D01*
X45896874Y-20633444D01*
X45907030Y-20652444D01*
X45913284Y-20673062D01*
X45916000Y-20700640D01*
X45916000Y-21209360D01*
X45913284Y-21236938D01*
X45907030Y-21257556D01*
X45896874Y-21276556D01*
X45883208Y-21293208D01*
X45866556Y-21306874D01*
X45847556Y-21317030D01*
X45826938Y-21323284D01*
X45799360Y-21326000D01*
X45340640Y-21326000D01*
X45313062Y-21323284D01*
X45292444Y-21317030D01*
X45273444Y-21306874D01*
X45256792Y-21293208D01*
X45243126Y-21276556D01*
X45232970Y-21257556D01*
X45226716Y-21236938D01*
X45224000Y-21209360D01*
X45224000Y-20700640D01*
X45226716Y-20673062D01*
X45232970Y-20652444D01*
X45243126Y-20633444D01*
X45256792Y-20616792D01*
X45273444Y-20603126D01*
X45292444Y-20592970D01*
X45313062Y-20586716D01*
X45340640Y-20584000D01*
X45799360Y-20584000D01*
X45826938Y-20586716D01*
X45826938Y-20586716D01*
G37*
G36*
X44856938Y-20586716D02*
X44877556Y-20592970D01*
X44896556Y-20603126D01*
X44913208Y-20616792D01*
X44926874Y-20633444D01*
X44937030Y-20652444D01*
X44943284Y-20673062D01*
X44946000Y-20700640D01*
X44946000Y-21209360D01*
X44943284Y-21236938D01*
X44937030Y-21257556D01*
X44926874Y-21276556D01*
X44913208Y-21293208D01*
X44896556Y-21306874D01*
X44877556Y-21317030D01*
X44856938Y-21323284D01*
X44829360Y-21326000D01*
X44370640Y-21326000D01*
X44343062Y-21323284D01*
X44322444Y-21317030D01*
X44303444Y-21306874D01*
X44286792Y-21293208D01*
X44273126Y-21276556D01*
X44262970Y-21257556D01*
X44256716Y-21236938D01*
X44254000Y-21209360D01*
X44254000Y-20700640D01*
X44256716Y-20673062D01*
X44262970Y-20652444D01*
X44273126Y-20633444D01*
X44286792Y-20616792D01*
X44303444Y-20603126D01*
X44322444Y-20592970D01*
X44343062Y-20586716D01*
X44370640Y-20584000D01*
X44829360Y-20584000D01*
X44856938Y-20586716D01*
X44856938Y-20586716D01*
G37*
M02*
