G04 #@! TF.GenerationSoftware,KiCad,Pcbnew,5.0.2-bee76a0~70~ubuntu18.04.1*
G04 #@! TF.CreationDate,2019-01-18T14:13:04+00:00*
G04 #@! TF.ProjectId,badge,62616467-652e-46b6-9963-61645f706362,rev?*
G04 #@! TF.SameCoordinates,Original*
G04 #@! TF.FileFunction,Copper,L1,Top*
G04 #@! TF.FilePolarity,Positive*
%FSLAX46Y46*%
G04 Gerber Fmt 4.6, Leading zero omitted, Abs format (unit mm)*
G04 Created by KiCad (PCBNEW 5.0.2-bee76a0~70~ubuntu18.04.1) date Fri 18 Jan 2019 14:13:04 GMT*
%MOMM*%
%LPD*%
G01*
G04 APERTURE LIST*
G04 #@! TA.AperFunction,EtchedComponent*
%ADD10C,0.010000*%
G04 #@! TD*
G04 #@! TA.AperFunction,ComponentPad*
%ADD11R,6.000000X5.000000*%
G04 #@! TD*
G04 #@! TA.AperFunction,Conductor*
%ADD12C,0.100000*%
G04 #@! TD*
G04 #@! TA.AperFunction,SMDPad,CuDef*
%ADD13C,0.850000*%
G04 #@! TD*
G04 #@! TA.AperFunction,ComponentPad*
%ADD14O,1.400000X0.800000*%
G04 #@! TD*
G04 #@! TA.AperFunction,SMDPad,CuDef*
%ADD15R,0.700000X0.300000*%
G04 #@! TD*
G04 #@! TA.AperFunction,ComponentPad*
%ADD16C,0.650000*%
G04 #@! TD*
G04 #@! TA.AperFunction,ComponentPad*
%ADD17C,1.700000*%
G04 #@! TD*
G04 #@! TA.AperFunction,ComponentPad*
%ADD18O,2.000000X1.700000*%
G04 #@! TD*
G04 #@! TA.AperFunction,SMDPad,CuDef*
%ADD19R,1.700000X0.900000*%
G04 #@! TD*
G04 #@! TA.AperFunction,SMDPad,CuDef*
%ADD20R,1.500000X0.700000*%
G04 #@! TD*
G04 #@! TA.AperFunction,SMDPad,CuDef*
%ADD21R,0.800000X1.000000*%
G04 #@! TD*
G04 #@! TA.AperFunction,ViaPad*
%ADD22C,0.800000*%
G04 #@! TD*
G04 #@! TA.AperFunction,Conductor*
%ADD23C,0.250000*%
G04 #@! TD*
G04 APERTURE END LIST*
D10*
G04 #@! TO.C,G\002A\002A\002A*
G36*
X81353277Y-83525250D02*
X81634384Y-83562852D01*
X81884554Y-83621456D01*
X82059656Y-83694815D01*
X82078959Y-83708442D01*
X82175537Y-83802880D01*
X82218458Y-83915920D01*
X82222772Y-84095204D01*
X82219699Y-84153973D01*
X82193441Y-84367802D01*
X82134135Y-84500754D01*
X82042000Y-84585279D01*
X81864946Y-84659766D01*
X81600069Y-84710904D01*
X81285176Y-84733935D01*
X80958074Y-84724103D01*
X80946625Y-84723083D01*
X80708500Y-84701333D01*
X80708500Y-84140550D01*
X80710026Y-83872541D01*
X80719489Y-83704983D01*
X80744216Y-83611330D01*
X80791534Y-83565034D01*
X80868769Y-83539547D01*
X80874789Y-83538031D01*
X81085367Y-83514894D01*
X81353277Y-83525250D01*
X81353277Y-83525250D01*
G37*
X81353277Y-83525250D02*
X81634384Y-83562852D01*
X81884554Y-83621456D01*
X82059656Y-83694815D01*
X82078959Y-83708442D01*
X82175537Y-83802880D01*
X82218458Y-83915920D01*
X82222772Y-84095204D01*
X82219699Y-84153973D01*
X82193441Y-84367802D01*
X82134135Y-84500754D01*
X82042000Y-84585279D01*
X81864946Y-84659766D01*
X81600069Y-84710904D01*
X81285176Y-84733935D01*
X80958074Y-84724103D01*
X80946625Y-84723083D01*
X80708500Y-84701333D01*
X80708500Y-84140550D01*
X80710026Y-83872541D01*
X80719489Y-83704983D01*
X80744216Y-83611330D01*
X80791534Y-83565034D01*
X80868769Y-83539547D01*
X80874789Y-83538031D01*
X81085367Y-83514894D01*
X81353277Y-83525250D01*
G36*
X81253363Y-85045424D02*
X81509512Y-85060984D01*
X81518952Y-85061857D01*
X81873498Y-85116026D01*
X82119221Y-85209433D01*
X82271506Y-85354835D01*
X82345738Y-85564990D01*
X82359500Y-85758853D01*
X82323894Y-86068117D01*
X82208663Y-86284503D01*
X82001186Y-86422468D01*
X81719146Y-86492398D01*
X81351049Y-86530257D01*
X81037090Y-86534537D01*
X80819625Y-86506727D01*
X80770054Y-86479468D01*
X80737661Y-86413647D01*
X80718943Y-86286686D01*
X80710394Y-86076006D01*
X80708500Y-85790727D01*
X80708500Y-85103767D01*
X80879458Y-85060860D01*
X81027364Y-85045357D01*
X81253363Y-85045424D01*
X81253363Y-85045424D01*
G37*
X81253363Y-85045424D02*
X81509512Y-85060984D01*
X81518952Y-85061857D01*
X81873498Y-85116026D01*
X82119221Y-85209433D01*
X82271506Y-85354835D01*
X82345738Y-85564990D01*
X82359500Y-85758853D01*
X82323894Y-86068117D01*
X82208663Y-86284503D01*
X82001186Y-86422468D01*
X81719146Y-86492398D01*
X81351049Y-86530257D01*
X81037090Y-86534537D01*
X80819625Y-86506727D01*
X80770054Y-86479468D01*
X80737661Y-86413647D01*
X80718943Y-86286686D01*
X80710394Y-86076006D01*
X80708500Y-85790727D01*
X80708500Y-85103767D01*
X80879458Y-85060860D01*
X81027364Y-85045357D01*
X81253363Y-85045424D01*
G36*
X67724496Y-83651559D02*
X67790937Y-83787723D01*
X67881621Y-83994290D01*
X67986803Y-84246844D01*
X68096738Y-84520972D01*
X68201679Y-84792258D01*
X68291881Y-85036287D01*
X68357598Y-85228646D01*
X68389084Y-85344918D01*
X68390458Y-85359875D01*
X68330837Y-85379026D01*
X68169922Y-85394499D01*
X67933407Y-85404542D01*
X67691926Y-85407500D01*
X66994353Y-85407500D01*
X67111436Y-85105875D01*
X67187387Y-84906830D01*
X67289014Y-84636003D01*
X67398516Y-84340939D01*
X67438342Y-84232750D01*
X67533430Y-83980532D01*
X67616085Y-83773604D01*
X67674458Y-83641039D01*
X67692044Y-83610212D01*
X67724496Y-83651559D01*
X67724496Y-83651559D01*
G37*
X67724496Y-83651559D02*
X67790937Y-83787723D01*
X67881621Y-83994290D01*
X67986803Y-84246844D01*
X68096738Y-84520972D01*
X68201679Y-84792258D01*
X68291881Y-85036287D01*
X68357598Y-85228646D01*
X68389084Y-85344918D01*
X68390458Y-85359875D01*
X68330837Y-85379026D01*
X68169922Y-85394499D01*
X67933407Y-85404542D01*
X67691926Y-85407500D01*
X66994353Y-85407500D01*
X67111436Y-85105875D01*
X67187387Y-84906830D01*
X67289014Y-84636003D01*
X67398516Y-84340939D01*
X67438342Y-84232750D01*
X67533430Y-83980532D01*
X67616085Y-83773604D01*
X67674458Y-83641039D01*
X67692044Y-83610212D01*
X67724496Y-83651559D01*
G36*
X49427368Y-75875115D02*
X49870151Y-76320728D01*
X50265198Y-76723591D01*
X50605553Y-77076315D01*
X50884263Y-77371514D01*
X51094371Y-77601799D01*
X51228923Y-77759783D01*
X51280963Y-77838078D01*
X51280731Y-77843748D01*
X51194614Y-77876538D01*
X50984881Y-77899334D01*
X50654542Y-77911905D01*
X50352726Y-77914500D01*
X49468447Y-77914500D01*
X49451598Y-79740125D01*
X49434750Y-81565750D01*
X47557135Y-81582552D01*
X47080946Y-81585390D01*
X46646297Y-81585256D01*
X46269302Y-81582372D01*
X45966079Y-81576958D01*
X45752741Y-81569238D01*
X45645406Y-81559433D01*
X45636260Y-81556093D01*
X45625093Y-81483770D01*
X45614996Y-81300935D01*
X45606355Y-81024076D01*
X45599558Y-80669681D01*
X45594991Y-80254235D01*
X45593043Y-79794227D01*
X45593000Y-79713666D01*
X45593000Y-77914500D01*
X44707747Y-77914500D01*
X44292993Y-77909215D01*
X43997992Y-77893492D01*
X43825288Y-77867524D01*
X43778667Y-77843585D01*
X43812242Y-77783055D01*
X43929963Y-77641197D01*
X44124986Y-77425282D01*
X44390465Y-77142579D01*
X44719554Y-76800358D01*
X45105408Y-76405887D01*
X45541180Y-75966437D01*
X45632559Y-75874953D01*
X47530278Y-73977234D01*
X49427368Y-75875115D01*
X49427368Y-75875115D01*
G37*
X49427368Y-75875115D02*
X49870151Y-76320728D01*
X50265198Y-76723591D01*
X50605553Y-77076315D01*
X50884263Y-77371514D01*
X51094371Y-77601799D01*
X51228923Y-77759783D01*
X51280963Y-77838078D01*
X51280731Y-77843748D01*
X51194614Y-77876538D01*
X50984881Y-77899334D01*
X50654542Y-77911905D01*
X50352726Y-77914500D01*
X49468447Y-77914500D01*
X49451598Y-79740125D01*
X49434750Y-81565750D01*
X47557135Y-81582552D01*
X47080946Y-81585390D01*
X46646297Y-81585256D01*
X46269302Y-81582372D01*
X45966079Y-81576958D01*
X45752741Y-81569238D01*
X45645406Y-81559433D01*
X45636260Y-81556093D01*
X45625093Y-81483770D01*
X45614996Y-81300935D01*
X45606355Y-81024076D01*
X45599558Y-80669681D01*
X45594991Y-80254235D01*
X45593043Y-79794227D01*
X45593000Y-79713666D01*
X45593000Y-77914500D01*
X44707747Y-77914500D01*
X44292993Y-77909215D01*
X43997992Y-77893492D01*
X43825288Y-77867524D01*
X43778667Y-77843585D01*
X43812242Y-77783055D01*
X43929963Y-77641197D01*
X44124986Y-77425282D01*
X44390465Y-77142579D01*
X44719554Y-76800358D01*
X45105408Y-76405887D01*
X45541180Y-75966437D01*
X45632559Y-75874953D01*
X47530278Y-73977234D01*
X49427368Y-75875115D01*
G36*
X54906476Y-81419240D02*
X55040675Y-81537045D01*
X55245212Y-81726906D01*
X55510581Y-81979724D01*
X55827280Y-82286398D01*
X56185804Y-82637825D01*
X56576651Y-83024907D01*
X56804477Y-83252229D01*
X58705221Y-85153765D01*
X56797774Y-87061213D01*
X56392674Y-87464271D01*
X56014855Y-87836253D01*
X55673757Y-88168153D01*
X55378822Y-88450966D01*
X55139489Y-88675684D01*
X54965197Y-88833304D01*
X54865388Y-88914818D01*
X54845413Y-88923746D01*
X54829086Y-88847070D01*
X54815411Y-88667857D01*
X54805579Y-88410561D01*
X54800780Y-88099638D01*
X54800500Y-88001390D01*
X54800500Y-87123947D01*
X52974875Y-87107098D01*
X51149250Y-87090250D01*
X51149250Y-83216750D01*
X54800500Y-83183052D01*
X54800500Y-82298773D01*
X54804011Y-81976816D01*
X54813650Y-81702576D01*
X54828070Y-81499940D01*
X54845924Y-81392794D01*
X54852116Y-81382594D01*
X54906476Y-81419240D01*
X54906476Y-81419240D01*
G37*
X54906476Y-81419240D02*
X55040675Y-81537045D01*
X55245212Y-81726906D01*
X55510581Y-81979724D01*
X55827280Y-82286398D01*
X56185804Y-82637825D01*
X56576651Y-83024907D01*
X56804477Y-83252229D01*
X58705221Y-85153765D01*
X56797774Y-87061213D01*
X56392674Y-87464271D01*
X56014855Y-87836253D01*
X55673757Y-88168153D01*
X55378822Y-88450966D01*
X55139489Y-88675684D01*
X54965197Y-88833304D01*
X54865388Y-88914818D01*
X54845413Y-88923746D01*
X54829086Y-88847070D01*
X54815411Y-88667857D01*
X54805579Y-88410561D01*
X54800780Y-88099638D01*
X54800500Y-88001390D01*
X54800500Y-87123947D01*
X52974875Y-87107098D01*
X51149250Y-87090250D01*
X51149250Y-83216750D01*
X54800500Y-83183052D01*
X54800500Y-82298773D01*
X54804011Y-81976816D01*
X54813650Y-81702576D01*
X54828070Y-81499940D01*
X54845924Y-81392794D01*
X54852116Y-81382594D01*
X54906476Y-81419240D01*
G36*
X40227964Y-81403273D02*
X40242312Y-81567702D01*
X40252853Y-81814452D01*
X40258423Y-82121187D01*
X40259000Y-82263276D01*
X40259000Y-83183052D01*
X43910250Y-83216750D01*
X43910250Y-87090250D01*
X42084625Y-87107098D01*
X40259000Y-87123947D01*
X40259000Y-88008226D01*
X40255488Y-88330183D01*
X40245849Y-88604423D01*
X40231429Y-88807059D01*
X40213575Y-88914205D01*
X40207383Y-88924405D01*
X40153023Y-88887759D01*
X40018823Y-88769955D01*
X39814288Y-88580094D01*
X39548920Y-88327279D01*
X39232225Y-88020609D01*
X38873706Y-87669186D01*
X38482866Y-87282111D01*
X38255154Y-87054903D01*
X36354543Y-85153500D01*
X38258750Y-83248500D01*
X38664080Y-82844097D01*
X39042173Y-82468981D01*
X39383526Y-82132424D01*
X39678641Y-81843695D01*
X39918015Y-81612066D01*
X40092149Y-81446807D01*
X40191541Y-81357190D01*
X40210978Y-81343500D01*
X40227964Y-81403273D01*
X40227964Y-81403273D01*
G37*
X40227964Y-81403273D02*
X40242312Y-81567702D01*
X40252853Y-81814452D01*
X40258423Y-82121187D01*
X40259000Y-82263276D01*
X40259000Y-83183052D01*
X43910250Y-83216750D01*
X43910250Y-87090250D01*
X42084625Y-87107098D01*
X40259000Y-87123947D01*
X40259000Y-88008226D01*
X40255488Y-88330183D01*
X40245849Y-88604423D01*
X40231429Y-88807059D01*
X40213575Y-88914205D01*
X40207383Y-88924405D01*
X40153023Y-88887759D01*
X40018823Y-88769955D01*
X39814288Y-88580094D01*
X39548920Y-88327279D01*
X39232225Y-88020609D01*
X38873706Y-87669186D01*
X38482866Y-87282111D01*
X38255154Y-87054903D01*
X36354543Y-85153500D01*
X38258750Y-83248500D01*
X38664080Y-82844097D01*
X39042173Y-82468981D01*
X39383526Y-82132424D01*
X39678641Y-81843695D01*
X39918015Y-81612066D01*
X40092149Y-81446807D01*
X40191541Y-81357190D01*
X40210978Y-81343500D01*
X40227964Y-81403273D01*
G36*
X81889048Y-80918354D02*
X82572661Y-81040447D01*
X83234756Y-81278721D01*
X83427944Y-81373843D01*
X84039436Y-81760363D01*
X84556314Y-82219435D01*
X84978578Y-82738891D01*
X85306228Y-83306564D01*
X85539263Y-83910288D01*
X85677684Y-84537895D01*
X85721491Y-85177220D01*
X85670683Y-85816093D01*
X85525262Y-86442350D01*
X85285225Y-87043823D01*
X84950575Y-87608346D01*
X84521310Y-88123750D01*
X83997431Y-88577871D01*
X83427944Y-88933156D01*
X82802813Y-89193643D01*
X82127663Y-89352685D01*
X81432765Y-89406811D01*
X80748390Y-89352551D01*
X80404685Y-89279815D01*
X79730410Y-89042576D01*
X79127290Y-88710266D01*
X78599316Y-88295102D01*
X78150479Y-87809299D01*
X77784768Y-87265073D01*
X77605909Y-86886010D01*
X80264000Y-86886010D01*
X81105375Y-86849381D01*
X81442374Y-86830264D01*
X81753976Y-86804564D01*
X82007399Y-86775509D01*
X82169861Y-86746327D01*
X82179651Y-86743583D01*
X82438291Y-86607156D01*
X82657102Y-86382461D01*
X82802878Y-86108056D01*
X82835182Y-85982360D01*
X82826841Y-85677978D01*
X82715313Y-85381918D01*
X82520598Y-85133382D01*
X82335885Y-85003707D01*
X82090020Y-84879016D01*
X82296580Y-84772199D01*
X82462018Y-84656577D01*
X82582871Y-84521099D01*
X82587819Y-84512566D01*
X82663175Y-84265217D01*
X82660666Y-83977176D01*
X82582900Y-83706002D01*
X82548372Y-83641553D01*
X82436414Y-83496574D01*
X82288865Y-83387745D01*
X82086371Y-83309147D01*
X81809573Y-83254859D01*
X81439116Y-83218961D01*
X81109368Y-83201422D01*
X80264000Y-83165977D01*
X80264000Y-86886010D01*
X77605909Y-86886010D01*
X77506173Y-86674638D01*
X77318684Y-86050212D01*
X77226292Y-85404009D01*
X77232986Y-84748244D01*
X77342756Y-84095134D01*
X77559592Y-83456894D01*
X77887484Y-82845740D01*
X78174872Y-82453136D01*
X78672822Y-81942816D01*
X79239189Y-81530199D01*
X79858985Y-81218365D01*
X80517220Y-81010392D01*
X81198904Y-80909362D01*
X81889048Y-80918354D01*
X81889048Y-80918354D01*
G37*
X81889048Y-80918354D02*
X82572661Y-81040447D01*
X83234756Y-81278721D01*
X83427944Y-81373843D01*
X84039436Y-81760363D01*
X84556314Y-82219435D01*
X84978578Y-82738891D01*
X85306228Y-83306564D01*
X85539263Y-83910288D01*
X85677684Y-84537895D01*
X85721491Y-85177220D01*
X85670683Y-85816093D01*
X85525262Y-86442350D01*
X85285225Y-87043823D01*
X84950575Y-87608346D01*
X84521310Y-88123750D01*
X83997431Y-88577871D01*
X83427944Y-88933156D01*
X82802813Y-89193643D01*
X82127663Y-89352685D01*
X81432765Y-89406811D01*
X80748390Y-89352551D01*
X80404685Y-89279815D01*
X79730410Y-89042576D01*
X79127290Y-88710266D01*
X78599316Y-88295102D01*
X78150479Y-87809299D01*
X77784768Y-87265073D01*
X77605909Y-86886010D01*
X80264000Y-86886010D01*
X81105375Y-86849381D01*
X81442374Y-86830264D01*
X81753976Y-86804564D01*
X82007399Y-86775509D01*
X82169861Y-86746327D01*
X82179651Y-86743583D01*
X82438291Y-86607156D01*
X82657102Y-86382461D01*
X82802878Y-86108056D01*
X82835182Y-85982360D01*
X82826841Y-85677978D01*
X82715313Y-85381918D01*
X82520598Y-85133382D01*
X82335885Y-85003707D01*
X82090020Y-84879016D01*
X82296580Y-84772199D01*
X82462018Y-84656577D01*
X82582871Y-84521099D01*
X82587819Y-84512566D01*
X82663175Y-84265217D01*
X82660666Y-83977176D01*
X82582900Y-83706002D01*
X82548372Y-83641553D01*
X82436414Y-83496574D01*
X82288865Y-83387745D01*
X82086371Y-83309147D01*
X81809573Y-83254859D01*
X81439116Y-83218961D01*
X81109368Y-83201422D01*
X80264000Y-83165977D01*
X80264000Y-86886010D01*
X77605909Y-86886010D01*
X77506173Y-86674638D01*
X77318684Y-86050212D01*
X77226292Y-85404009D01*
X77232986Y-84748244D01*
X77342756Y-84095134D01*
X77559592Y-83456894D01*
X77887484Y-82845740D01*
X78174872Y-82453136D01*
X78672822Y-81942816D01*
X79239189Y-81530199D01*
X79858985Y-81218365D01*
X80517220Y-81010392D01*
X81198904Y-80909362D01*
X81889048Y-80918354D01*
G36*
X68485412Y-80955818D02*
X68655795Y-80987879D01*
X69346835Y-81202233D01*
X69970738Y-81515820D01*
X70522007Y-81916831D01*
X70995140Y-82393458D01*
X71384637Y-82933894D01*
X71685000Y-83526329D01*
X71890727Y-84158956D01*
X71996319Y-84819966D01*
X71996276Y-85497551D01*
X71885098Y-86179904D01*
X71657285Y-86855215D01*
X71521792Y-87141080D01*
X71232281Y-87597846D01*
X70852096Y-88046092D01*
X70413924Y-88454055D01*
X69950455Y-88789972D01*
X69659500Y-88950644D01*
X68982180Y-89212478D01*
X68286261Y-89362915D01*
X67592042Y-89399287D01*
X66919822Y-89318921D01*
X66897250Y-89314029D01*
X66189926Y-89096161D01*
X65545095Y-88771077D01*
X64971674Y-88345754D01*
X64478577Y-87827163D01*
X64074721Y-87222281D01*
X63973137Y-87026750D01*
X63882486Y-86804500D01*
X66050789Y-86804500D01*
X66522188Y-86804500D01*
X66681863Y-86312375D01*
X66841539Y-85820250D01*
X68603960Y-85820250D01*
X68763636Y-86312375D01*
X68844641Y-86554980D01*
X68905831Y-86700979D01*
X68965590Y-86774886D01*
X69042297Y-86801216D01*
X69132655Y-86804500D01*
X69274057Y-86791857D01*
X69340244Y-86761005D01*
X69340938Y-86756875D01*
X69318733Y-86687752D01*
X69256412Y-86515147D01*
X69159590Y-86254058D01*
X69033884Y-85919484D01*
X68884907Y-85526424D01*
X68718275Y-85089875D01*
X68657461Y-84931250D01*
X67975046Y-83153250D01*
X67721898Y-83134633D01*
X67468750Y-83116017D01*
X67060228Y-84182383D01*
X66899549Y-84601405D01*
X66727266Y-85050011D01*
X66559612Y-85485974D01*
X66412822Y-85867068D01*
X66351248Y-86026625D01*
X66050789Y-86804500D01*
X63882486Y-86804500D01*
X63701094Y-86359782D01*
X63548422Y-85708648D01*
X63512363Y-85054338D01*
X63589515Y-84381210D01*
X63788471Y-83669504D01*
X64096330Y-83016035D01*
X64504703Y-82430341D01*
X65005202Y-81921958D01*
X65589436Y-81500425D01*
X66249018Y-81175278D01*
X66484500Y-81089855D01*
X66936196Y-80980342D01*
X67454555Y-80919887D01*
X67988115Y-80910907D01*
X68485412Y-80955818D01*
X68485412Y-80955818D01*
G37*
X68485412Y-80955818D02*
X68655795Y-80987879D01*
X69346835Y-81202233D01*
X69970738Y-81515820D01*
X70522007Y-81916831D01*
X70995140Y-82393458D01*
X71384637Y-82933894D01*
X71685000Y-83526329D01*
X71890727Y-84158956D01*
X71996319Y-84819966D01*
X71996276Y-85497551D01*
X71885098Y-86179904D01*
X71657285Y-86855215D01*
X71521792Y-87141080D01*
X71232281Y-87597846D01*
X70852096Y-88046092D01*
X70413924Y-88454055D01*
X69950455Y-88789972D01*
X69659500Y-88950644D01*
X68982180Y-89212478D01*
X68286261Y-89362915D01*
X67592042Y-89399287D01*
X66919822Y-89318921D01*
X66897250Y-89314029D01*
X66189926Y-89096161D01*
X65545095Y-88771077D01*
X64971674Y-88345754D01*
X64478577Y-87827163D01*
X64074721Y-87222281D01*
X63973137Y-87026750D01*
X63882486Y-86804500D01*
X66050789Y-86804500D01*
X66522188Y-86804500D01*
X66681863Y-86312375D01*
X66841539Y-85820250D01*
X68603960Y-85820250D01*
X68763636Y-86312375D01*
X68844641Y-86554980D01*
X68905831Y-86700979D01*
X68965590Y-86774886D01*
X69042297Y-86801216D01*
X69132655Y-86804500D01*
X69274057Y-86791857D01*
X69340244Y-86761005D01*
X69340938Y-86756875D01*
X69318733Y-86687752D01*
X69256412Y-86515147D01*
X69159590Y-86254058D01*
X69033884Y-85919484D01*
X68884907Y-85526424D01*
X68718275Y-85089875D01*
X68657461Y-84931250D01*
X67975046Y-83153250D01*
X67721898Y-83134633D01*
X67468750Y-83116017D01*
X67060228Y-84182383D01*
X66899549Y-84601405D01*
X66727266Y-85050011D01*
X66559612Y-85485974D01*
X66412822Y-85867068D01*
X66351248Y-86026625D01*
X66050789Y-86804500D01*
X63882486Y-86804500D01*
X63701094Y-86359782D01*
X63548422Y-85708648D01*
X63512363Y-85054338D01*
X63589515Y-84381210D01*
X63788471Y-83669504D01*
X64096330Y-83016035D01*
X64504703Y-82430341D01*
X65005202Y-81921958D01*
X65589436Y-81500425D01*
X66249018Y-81175278D01*
X66484500Y-81089855D01*
X66936196Y-80980342D01*
X67454555Y-80919887D01*
X67988115Y-80910907D01*
X68485412Y-80955818D01*
G36*
X49466500Y-92392500D02*
X50387250Y-92392500D01*
X50768262Y-92395308D01*
X51036503Y-92404550D01*
X51206095Y-92421448D01*
X51291161Y-92447227D01*
X51308000Y-92472278D01*
X51264530Y-92532789D01*
X51141776Y-92670581D01*
X50951221Y-92874128D01*
X50704347Y-93131903D01*
X50412639Y-93432377D01*
X50087577Y-93764023D01*
X49740646Y-94115314D01*
X49383328Y-94474722D01*
X49027106Y-94830719D01*
X48683464Y-95171779D01*
X48363883Y-95486374D01*
X48079847Y-95762976D01*
X47842839Y-95990058D01*
X47664341Y-96156093D01*
X47555837Y-96249552D01*
X47528949Y-96266000D01*
X47471800Y-96222485D01*
X47334931Y-96098208D01*
X47128060Y-95902572D01*
X46860908Y-95644979D01*
X46543194Y-95334830D01*
X46184637Y-94981528D01*
X45794958Y-94594475D01*
X45608471Y-94408228D01*
X45209075Y-94006808D01*
X44839137Y-93631423D01*
X44508068Y-93291886D01*
X44225278Y-92998015D01*
X44000179Y-92759623D01*
X43842182Y-92586528D01*
X43760699Y-92488543D01*
X43751500Y-92471478D01*
X43785179Y-92438656D01*
X43895358Y-92415552D01*
X44095744Y-92400989D01*
X44400048Y-92393790D01*
X44671276Y-92392500D01*
X45591052Y-92392500D01*
X45624750Y-88741250D01*
X47545625Y-88724443D01*
X49466500Y-88707637D01*
X49466500Y-92392500D01*
X49466500Y-92392500D01*
G37*
X49466500Y-92392500D02*
X50387250Y-92392500D01*
X50768262Y-92395308D01*
X51036503Y-92404550D01*
X51206095Y-92421448D01*
X51291161Y-92447227D01*
X51308000Y-92472278D01*
X51264530Y-92532789D01*
X51141776Y-92670581D01*
X50951221Y-92874128D01*
X50704347Y-93131903D01*
X50412639Y-93432377D01*
X50087577Y-93764023D01*
X49740646Y-94115314D01*
X49383328Y-94474722D01*
X49027106Y-94830719D01*
X48683464Y-95171779D01*
X48363883Y-95486374D01*
X48079847Y-95762976D01*
X47842839Y-95990058D01*
X47664341Y-96156093D01*
X47555837Y-96249552D01*
X47528949Y-96266000D01*
X47471800Y-96222485D01*
X47334931Y-96098208D01*
X47128060Y-95902572D01*
X46860908Y-95644979D01*
X46543194Y-95334830D01*
X46184637Y-94981528D01*
X45794958Y-94594475D01*
X45608471Y-94408228D01*
X45209075Y-94006808D01*
X44839137Y-93631423D01*
X44508068Y-93291886D01*
X44225278Y-92998015D01*
X44000179Y-92759623D01*
X43842182Y-92586528D01*
X43760699Y-92488543D01*
X43751500Y-92471478D01*
X43785179Y-92438656D01*
X43895358Y-92415552D01*
X44095744Y-92400989D01*
X44400048Y-92393790D01*
X44671276Y-92392500D01*
X45591052Y-92392500D01*
X45624750Y-88741250D01*
X47545625Y-88724443D01*
X49466500Y-88707637D01*
X49466500Y-92392500D01*
G04 #@! TD*
D11*
G04 #@! TO.P,GND,1*
G04 #@! TO.N,GND*
X95250000Y-76200000D03*
G04 #@! TD*
G04 #@! TO.P,GP1,1*
G04 #@! TO.N,Net-(GP1-Pad1)*
X95250000Y-87376000D03*
G04 #@! TD*
G04 #@! TO.P,GP2,1*
G04 #@! TO.N,Net-(GP2-Pad1)*
X95250000Y-92964000D03*
G04 #@! TD*
G04 #@! TO.P,SCL,1*
G04 #@! TO.N,Net-(R1-Pad2)*
X95250000Y-104140000D03*
G04 #@! TD*
G04 #@! TO.P,SDA,1*
G04 #@! TO.N,Net-(R2-Pad2)*
X95250000Y-98552000D03*
G04 #@! TD*
D12*
G04 #@! TO.N,GND*
G04 #@! TO.C,D7*
G36*
X47223329Y-109421023D02*
X47243957Y-109424083D01*
X47264185Y-109429150D01*
X47283820Y-109436176D01*
X47302672Y-109445092D01*
X47320559Y-109455813D01*
X47337309Y-109468235D01*
X47352760Y-109482240D01*
X47366765Y-109497691D01*
X47379187Y-109514441D01*
X47389908Y-109532328D01*
X47398824Y-109551180D01*
X47405850Y-109570815D01*
X47410917Y-109591043D01*
X47413977Y-109611671D01*
X47415000Y-109632500D01*
X47415000Y-110432500D01*
X47413977Y-110453329D01*
X47410917Y-110473957D01*
X47405850Y-110494185D01*
X47398824Y-110513820D01*
X47389908Y-110532672D01*
X47379187Y-110550559D01*
X47366765Y-110567309D01*
X47352760Y-110582760D01*
X47337309Y-110596765D01*
X47320559Y-110609187D01*
X47302672Y-110619908D01*
X47283820Y-110628824D01*
X47264185Y-110635850D01*
X47243957Y-110640917D01*
X47223329Y-110643977D01*
X47202500Y-110645000D01*
X46777500Y-110645000D01*
X46756671Y-110643977D01*
X46736043Y-110640917D01*
X46715815Y-110635850D01*
X46696180Y-110628824D01*
X46677328Y-110619908D01*
X46659441Y-110609187D01*
X46642691Y-110596765D01*
X46627240Y-110582760D01*
X46613235Y-110567309D01*
X46600813Y-110550559D01*
X46590092Y-110532672D01*
X46581176Y-110513820D01*
X46574150Y-110494185D01*
X46569083Y-110473957D01*
X46566023Y-110453329D01*
X46565000Y-110432500D01*
X46565000Y-109632500D01*
X46566023Y-109611671D01*
X46569083Y-109591043D01*
X46574150Y-109570815D01*
X46581176Y-109551180D01*
X46590092Y-109532328D01*
X46600813Y-109514441D01*
X46613235Y-109497691D01*
X46627240Y-109482240D01*
X46642691Y-109468235D01*
X46659441Y-109455813D01*
X46677328Y-109445092D01*
X46696180Y-109436176D01*
X46715815Y-109429150D01*
X46736043Y-109424083D01*
X46756671Y-109421023D01*
X46777500Y-109420000D01*
X47202500Y-109420000D01*
X47223329Y-109421023D01*
X47223329Y-109421023D01*
G37*
D13*
G04 #@! TD*
G04 #@! TO.P,D7,1*
G04 #@! TO.N,GND*
X46990000Y-110032500D03*
D12*
G04 #@! TO.N,Net-(D7-Pad2)*
G04 #@! TO.C,D7*
G36*
X47223329Y-107796023D02*
X47243957Y-107799083D01*
X47264185Y-107804150D01*
X47283820Y-107811176D01*
X47302672Y-107820092D01*
X47320559Y-107830813D01*
X47337309Y-107843235D01*
X47352760Y-107857240D01*
X47366765Y-107872691D01*
X47379187Y-107889441D01*
X47389908Y-107907328D01*
X47398824Y-107926180D01*
X47405850Y-107945815D01*
X47410917Y-107966043D01*
X47413977Y-107986671D01*
X47415000Y-108007500D01*
X47415000Y-108807500D01*
X47413977Y-108828329D01*
X47410917Y-108848957D01*
X47405850Y-108869185D01*
X47398824Y-108888820D01*
X47389908Y-108907672D01*
X47379187Y-108925559D01*
X47366765Y-108942309D01*
X47352760Y-108957760D01*
X47337309Y-108971765D01*
X47320559Y-108984187D01*
X47302672Y-108994908D01*
X47283820Y-109003824D01*
X47264185Y-109010850D01*
X47243957Y-109015917D01*
X47223329Y-109018977D01*
X47202500Y-109020000D01*
X46777500Y-109020000D01*
X46756671Y-109018977D01*
X46736043Y-109015917D01*
X46715815Y-109010850D01*
X46696180Y-109003824D01*
X46677328Y-108994908D01*
X46659441Y-108984187D01*
X46642691Y-108971765D01*
X46627240Y-108957760D01*
X46613235Y-108942309D01*
X46600813Y-108925559D01*
X46590092Y-108907672D01*
X46581176Y-108888820D01*
X46574150Y-108869185D01*
X46569083Y-108848957D01*
X46566023Y-108828329D01*
X46565000Y-108807500D01*
X46565000Y-108007500D01*
X46566023Y-107986671D01*
X46569083Y-107966043D01*
X46574150Y-107945815D01*
X46581176Y-107926180D01*
X46590092Y-107907328D01*
X46600813Y-107889441D01*
X46613235Y-107872691D01*
X46627240Y-107857240D01*
X46642691Y-107843235D01*
X46659441Y-107830813D01*
X46677328Y-107820092D01*
X46696180Y-107811176D01*
X46715815Y-107804150D01*
X46736043Y-107799083D01*
X46756671Y-107796023D01*
X46777500Y-107795000D01*
X47202500Y-107795000D01*
X47223329Y-107796023D01*
X47223329Y-107796023D01*
G37*
D13*
G04 #@! TD*
G04 #@! TO.P,D7,2*
G04 #@! TO.N,Net-(D7-Pad2)*
X46990000Y-108407500D03*
D12*
G04 #@! TO.N,Net-(D4-Pad1)*
G04 #@! TO.C,D4*
G36*
X45572329Y-109421023D02*
X45592957Y-109424083D01*
X45613185Y-109429150D01*
X45632820Y-109436176D01*
X45651672Y-109445092D01*
X45669559Y-109455813D01*
X45686309Y-109468235D01*
X45701760Y-109482240D01*
X45715765Y-109497691D01*
X45728187Y-109514441D01*
X45738908Y-109532328D01*
X45747824Y-109551180D01*
X45754850Y-109570815D01*
X45759917Y-109591043D01*
X45762977Y-109611671D01*
X45764000Y-109632500D01*
X45764000Y-110432500D01*
X45762977Y-110453329D01*
X45759917Y-110473957D01*
X45754850Y-110494185D01*
X45747824Y-110513820D01*
X45738908Y-110532672D01*
X45728187Y-110550559D01*
X45715765Y-110567309D01*
X45701760Y-110582760D01*
X45686309Y-110596765D01*
X45669559Y-110609187D01*
X45651672Y-110619908D01*
X45632820Y-110628824D01*
X45613185Y-110635850D01*
X45592957Y-110640917D01*
X45572329Y-110643977D01*
X45551500Y-110645000D01*
X45126500Y-110645000D01*
X45105671Y-110643977D01*
X45085043Y-110640917D01*
X45064815Y-110635850D01*
X45045180Y-110628824D01*
X45026328Y-110619908D01*
X45008441Y-110609187D01*
X44991691Y-110596765D01*
X44976240Y-110582760D01*
X44962235Y-110567309D01*
X44949813Y-110550559D01*
X44939092Y-110532672D01*
X44930176Y-110513820D01*
X44923150Y-110494185D01*
X44918083Y-110473957D01*
X44915023Y-110453329D01*
X44914000Y-110432500D01*
X44914000Y-109632500D01*
X44915023Y-109611671D01*
X44918083Y-109591043D01*
X44923150Y-109570815D01*
X44930176Y-109551180D01*
X44939092Y-109532328D01*
X44949813Y-109514441D01*
X44962235Y-109497691D01*
X44976240Y-109482240D01*
X44991691Y-109468235D01*
X45008441Y-109455813D01*
X45026328Y-109445092D01*
X45045180Y-109436176D01*
X45064815Y-109429150D01*
X45085043Y-109424083D01*
X45105671Y-109421023D01*
X45126500Y-109420000D01*
X45551500Y-109420000D01*
X45572329Y-109421023D01*
X45572329Y-109421023D01*
G37*
D13*
G04 #@! TD*
G04 #@! TO.P,D4,1*
G04 #@! TO.N,Net-(D4-Pad1)*
X45339000Y-110032500D03*
D12*
G04 #@! TO.N,Net-(D4-Pad2)*
G04 #@! TO.C,D4*
G36*
X45572329Y-107796023D02*
X45592957Y-107799083D01*
X45613185Y-107804150D01*
X45632820Y-107811176D01*
X45651672Y-107820092D01*
X45669559Y-107830813D01*
X45686309Y-107843235D01*
X45701760Y-107857240D01*
X45715765Y-107872691D01*
X45728187Y-107889441D01*
X45738908Y-107907328D01*
X45747824Y-107926180D01*
X45754850Y-107945815D01*
X45759917Y-107966043D01*
X45762977Y-107986671D01*
X45764000Y-108007500D01*
X45764000Y-108807500D01*
X45762977Y-108828329D01*
X45759917Y-108848957D01*
X45754850Y-108869185D01*
X45747824Y-108888820D01*
X45738908Y-108907672D01*
X45728187Y-108925559D01*
X45715765Y-108942309D01*
X45701760Y-108957760D01*
X45686309Y-108971765D01*
X45669559Y-108984187D01*
X45651672Y-108994908D01*
X45632820Y-109003824D01*
X45613185Y-109010850D01*
X45592957Y-109015917D01*
X45572329Y-109018977D01*
X45551500Y-109020000D01*
X45126500Y-109020000D01*
X45105671Y-109018977D01*
X45085043Y-109015917D01*
X45064815Y-109010850D01*
X45045180Y-109003824D01*
X45026328Y-108994908D01*
X45008441Y-108984187D01*
X44991691Y-108971765D01*
X44976240Y-108957760D01*
X44962235Y-108942309D01*
X44949813Y-108925559D01*
X44939092Y-108907672D01*
X44930176Y-108888820D01*
X44923150Y-108869185D01*
X44918083Y-108848957D01*
X44915023Y-108828329D01*
X44914000Y-108807500D01*
X44914000Y-108007500D01*
X44915023Y-107986671D01*
X44918083Y-107966043D01*
X44923150Y-107945815D01*
X44930176Y-107926180D01*
X44939092Y-107907328D01*
X44949813Y-107889441D01*
X44962235Y-107872691D01*
X44976240Y-107857240D01*
X44991691Y-107843235D01*
X45008441Y-107830813D01*
X45026328Y-107820092D01*
X45045180Y-107811176D01*
X45064815Y-107804150D01*
X45085043Y-107799083D01*
X45105671Y-107796023D01*
X45126500Y-107795000D01*
X45551500Y-107795000D01*
X45572329Y-107796023D01*
X45572329Y-107796023D01*
G37*
D13*
G04 #@! TD*
G04 #@! TO.P,D4,2*
G04 #@! TO.N,Net-(D4-Pad2)*
X45339000Y-108407500D03*
D14*
G04 #@! TO.P,J1,S1*
G04 #@! TO.N,Net-(J1-PadS1)*
X32955000Y-108265000D03*
D15*
G04 #@! TO.P,J1,A1*
G04 #@! TO.N,GND*
X34865000Y-109645000D03*
G04 #@! TO.P,J1,A2*
G04 #@! TO.N,N/C*
X34865000Y-110145000D03*
G04 #@! TO.P,J1,A3*
X34865000Y-110645000D03*
G04 #@! TO.P,J1,A4*
G04 #@! TO.N,Net-(C13-Pad1)*
X34865000Y-111145000D03*
G04 #@! TO.P,J1,A5*
G04 #@! TO.N,Net-(J1-PadA5)*
X34865000Y-111645000D03*
G04 #@! TO.P,J1,A6*
G04 #@! TO.N,/USB_P*
X34865000Y-112145000D03*
G04 #@! TO.P,J1,A7*
G04 #@! TO.N,/USB_N*
X34865000Y-112645000D03*
G04 #@! TO.P,J1,A12*
G04 #@! TO.N,GND*
X34865000Y-115145000D03*
G04 #@! TO.P,J1,A10*
G04 #@! TO.N,N/C*
X34865000Y-114145000D03*
G04 #@! TO.P,J1,A9*
G04 #@! TO.N,Net-(C13-Pad1)*
X34865000Y-113645000D03*
G04 #@! TO.P,J1,A8*
G04 #@! TO.N,Net-(J1-PadA8)*
X34865000Y-113145000D03*
G04 #@! TO.P,J1,A11*
G04 #@! TO.N,N/C*
X34865000Y-114645000D03*
D14*
G04 #@! TO.P,J1,S1*
G04 #@! TO.N,Net-(J1-PadS1)*
X32955000Y-116525000D03*
X27005000Y-116885000D03*
X27005000Y-107905000D03*
D16*
G04 #@! TO.P,J1,B1*
G04 #@! TO.N,GND*
X33555000Y-115195000D03*
G04 #@! TO.P,J1,B4*
G04 #@! TO.N,Net-(C13-Pad1)*
X33555000Y-113595000D03*
G04 #@! TO.P,J1,B6*
G04 #@! TO.N,/USB_P*
X33555000Y-112795000D03*
G04 #@! TO.P,J1,B7*
G04 #@! TO.N,/USB_N*
X33555000Y-111995000D03*
G04 #@! TO.P,J1,B9*
G04 #@! TO.N,Net-(C13-Pad1)*
X33555000Y-111195000D03*
G04 #@! TO.P,J1,B12*
G04 #@! TO.N,GND*
X33555000Y-109595000D03*
G04 #@! TO.P,J1,B2*
G04 #@! TO.N,N/C*
X32855000Y-114795000D03*
G04 #@! TO.P,J1,B3*
X32855000Y-113995000D03*
G04 #@! TO.P,J1,B5*
G04 #@! TO.N,Net-(J1-PadB5)*
X32855000Y-113195000D03*
G04 #@! TO.P,J1,B8*
G04 #@! TO.N,Net-(J1-PadB8)*
X32855000Y-111595000D03*
G04 #@! TO.P,J1,B10*
G04 #@! TO.N,N/C*
X32855000Y-110795000D03*
G04 #@! TO.P,J1,B11*
X32855000Y-109995000D03*
G04 #@! TD*
D12*
G04 #@! TO.N,Net-(BT1-Pad1)*
G04 #@! TO.C,BT1*
G36*
X90944504Y-113451204D02*
X90968773Y-113454804D01*
X90992571Y-113460765D01*
X91015671Y-113469030D01*
X91037849Y-113479520D01*
X91058893Y-113492133D01*
X91078598Y-113506747D01*
X91096777Y-113523223D01*
X91113253Y-113541402D01*
X91127867Y-113561107D01*
X91140480Y-113582151D01*
X91150970Y-113604329D01*
X91159235Y-113627429D01*
X91165196Y-113651227D01*
X91168796Y-113675496D01*
X91170000Y-113700000D01*
X91170000Y-114900000D01*
X91168796Y-114924504D01*
X91165196Y-114948773D01*
X91159235Y-114972571D01*
X91150970Y-114995671D01*
X91140480Y-115017849D01*
X91127867Y-115038893D01*
X91113253Y-115058598D01*
X91096777Y-115076777D01*
X91078598Y-115093253D01*
X91058893Y-115107867D01*
X91037849Y-115120480D01*
X91015671Y-115130970D01*
X90992571Y-115139235D01*
X90968773Y-115145196D01*
X90944504Y-115148796D01*
X90920000Y-115150000D01*
X89420000Y-115150000D01*
X89395496Y-115148796D01*
X89371227Y-115145196D01*
X89347429Y-115139235D01*
X89324329Y-115130970D01*
X89302151Y-115120480D01*
X89281107Y-115107867D01*
X89261402Y-115093253D01*
X89243223Y-115076777D01*
X89226747Y-115058598D01*
X89212133Y-115038893D01*
X89199520Y-115017849D01*
X89189030Y-114995671D01*
X89180765Y-114972571D01*
X89174804Y-114948773D01*
X89171204Y-114924504D01*
X89170000Y-114900000D01*
X89170000Y-113700000D01*
X89171204Y-113675496D01*
X89174804Y-113651227D01*
X89180765Y-113627429D01*
X89189030Y-113604329D01*
X89199520Y-113582151D01*
X89212133Y-113561107D01*
X89226747Y-113541402D01*
X89243223Y-113523223D01*
X89261402Y-113506747D01*
X89281107Y-113492133D01*
X89302151Y-113479520D01*
X89324329Y-113469030D01*
X89347429Y-113460765D01*
X89371227Y-113454804D01*
X89395496Y-113451204D01*
X89420000Y-113450000D01*
X90920000Y-113450000D01*
X90944504Y-113451204D01*
X90944504Y-113451204D01*
G37*
D17*
G04 #@! TD*
G04 #@! TO.P,BT1,1*
G04 #@! TO.N,Net-(BT1-Pad1)*
X90170000Y-114300000D03*
D18*
G04 #@! TO.P,BT1,2*
G04 #@! TO.N,GND*
X90170000Y-111800000D03*
G04 #@! TD*
D12*
G04 #@! TO.N,Net-(D6-Pad2)*
G04 #@! TO.C,D6*
G36*
X48747329Y-107796023D02*
X48767957Y-107799083D01*
X48788185Y-107804150D01*
X48807820Y-107811176D01*
X48826672Y-107820092D01*
X48844559Y-107830813D01*
X48861309Y-107843235D01*
X48876760Y-107857240D01*
X48890765Y-107872691D01*
X48903187Y-107889441D01*
X48913908Y-107907328D01*
X48922824Y-107926180D01*
X48929850Y-107945815D01*
X48934917Y-107966043D01*
X48937977Y-107986671D01*
X48939000Y-108007500D01*
X48939000Y-108807500D01*
X48937977Y-108828329D01*
X48934917Y-108848957D01*
X48929850Y-108869185D01*
X48922824Y-108888820D01*
X48913908Y-108907672D01*
X48903187Y-108925559D01*
X48890765Y-108942309D01*
X48876760Y-108957760D01*
X48861309Y-108971765D01*
X48844559Y-108984187D01*
X48826672Y-108994908D01*
X48807820Y-109003824D01*
X48788185Y-109010850D01*
X48767957Y-109015917D01*
X48747329Y-109018977D01*
X48726500Y-109020000D01*
X48301500Y-109020000D01*
X48280671Y-109018977D01*
X48260043Y-109015917D01*
X48239815Y-109010850D01*
X48220180Y-109003824D01*
X48201328Y-108994908D01*
X48183441Y-108984187D01*
X48166691Y-108971765D01*
X48151240Y-108957760D01*
X48137235Y-108942309D01*
X48124813Y-108925559D01*
X48114092Y-108907672D01*
X48105176Y-108888820D01*
X48098150Y-108869185D01*
X48093083Y-108848957D01*
X48090023Y-108828329D01*
X48089000Y-108807500D01*
X48089000Y-108007500D01*
X48090023Y-107986671D01*
X48093083Y-107966043D01*
X48098150Y-107945815D01*
X48105176Y-107926180D01*
X48114092Y-107907328D01*
X48124813Y-107889441D01*
X48137235Y-107872691D01*
X48151240Y-107857240D01*
X48166691Y-107843235D01*
X48183441Y-107830813D01*
X48201328Y-107820092D01*
X48220180Y-107811176D01*
X48239815Y-107804150D01*
X48260043Y-107799083D01*
X48280671Y-107796023D01*
X48301500Y-107795000D01*
X48726500Y-107795000D01*
X48747329Y-107796023D01*
X48747329Y-107796023D01*
G37*
D13*
G04 #@! TD*
G04 #@! TO.P,D6,2*
G04 #@! TO.N,Net-(D6-Pad2)*
X48514000Y-108407500D03*
D12*
G04 #@! TO.N,GND*
G04 #@! TO.C,D6*
G36*
X48747329Y-109421023D02*
X48767957Y-109424083D01*
X48788185Y-109429150D01*
X48807820Y-109436176D01*
X48826672Y-109445092D01*
X48844559Y-109455813D01*
X48861309Y-109468235D01*
X48876760Y-109482240D01*
X48890765Y-109497691D01*
X48903187Y-109514441D01*
X48913908Y-109532328D01*
X48922824Y-109551180D01*
X48929850Y-109570815D01*
X48934917Y-109591043D01*
X48937977Y-109611671D01*
X48939000Y-109632500D01*
X48939000Y-110432500D01*
X48937977Y-110453329D01*
X48934917Y-110473957D01*
X48929850Y-110494185D01*
X48922824Y-110513820D01*
X48913908Y-110532672D01*
X48903187Y-110550559D01*
X48890765Y-110567309D01*
X48876760Y-110582760D01*
X48861309Y-110596765D01*
X48844559Y-110609187D01*
X48826672Y-110619908D01*
X48807820Y-110628824D01*
X48788185Y-110635850D01*
X48767957Y-110640917D01*
X48747329Y-110643977D01*
X48726500Y-110645000D01*
X48301500Y-110645000D01*
X48280671Y-110643977D01*
X48260043Y-110640917D01*
X48239815Y-110635850D01*
X48220180Y-110628824D01*
X48201328Y-110619908D01*
X48183441Y-110609187D01*
X48166691Y-110596765D01*
X48151240Y-110582760D01*
X48137235Y-110567309D01*
X48124813Y-110550559D01*
X48114092Y-110532672D01*
X48105176Y-110513820D01*
X48098150Y-110494185D01*
X48093083Y-110473957D01*
X48090023Y-110453329D01*
X48089000Y-110432500D01*
X48089000Y-109632500D01*
X48090023Y-109611671D01*
X48093083Y-109591043D01*
X48098150Y-109570815D01*
X48105176Y-109551180D01*
X48114092Y-109532328D01*
X48124813Y-109514441D01*
X48137235Y-109497691D01*
X48151240Y-109482240D01*
X48166691Y-109468235D01*
X48183441Y-109455813D01*
X48201328Y-109445092D01*
X48220180Y-109436176D01*
X48239815Y-109429150D01*
X48260043Y-109424083D01*
X48280671Y-109421023D01*
X48301500Y-109420000D01*
X48726500Y-109420000D01*
X48747329Y-109421023D01*
X48747329Y-109421023D01*
G37*
D13*
G04 #@! TD*
G04 #@! TO.P,D6,1*
G04 #@! TO.N,GND*
X48514000Y-110032500D03*
D19*
G04 #@! TO.P,SW1,1*
G04 #@! TO.N,GND*
X27305000Y-95045000D03*
G04 #@! TO.P,SW1,2*
G04 #@! TO.N,Net-(Q5-Pad6)*
X27305000Y-91645000D03*
G04 #@! TD*
D20*
G04 #@! TO.P,SW2,1*
G04 #@! TO.N,Net-(Q5-Pad4)*
X29370000Y-98715000D03*
G04 #@! TO.P,SW2,2*
G04 #@! TO.N,GND*
X29370000Y-101715000D03*
G04 #@! TO.P,SW2,3*
G04 #@! TO.N,N/C*
X29370000Y-103215000D03*
D21*
G04 #@! TO.P,SW2,*
G04 #@! TO.N,*
X26510000Y-97315000D03*
X26510000Y-104615000D03*
X28720000Y-104615000D03*
X28720000Y-97315000D03*
G04 #@! TD*
D11*
G04 #@! TO.P,3V3,1*
G04 #@! TO.N,Net-(3V3-Pad1)*
X95250000Y-81788000D03*
G04 #@! TD*
D22*
G04 #@! TO.N,Net-(BT1-Pad1)*
X56388000Y-116586000D03*
X47879000Y-115316000D03*
X60960000Y-116760010D03*
G04 #@! TO.N,GND*
X41275000Y-37465000D03*
X34290000Y-35560000D03*
X56769000Y-104648000D03*
X41079999Y-101284360D03*
X44704000Y-41021000D03*
X41529000Y-41021000D03*
X84963000Y-36576000D03*
X72390000Y-36195000D03*
X62715000Y-114895000D03*
X49760252Y-109196252D03*
X86106000Y-76200000D03*
G04 #@! TO.N,Net-(C8-Pad1)*
X36195000Y-28575000D03*
X41275000Y-28575000D03*
G04 #@! TO.N,Net-(C9-Pad1)*
X36195000Y-24765000D03*
X41275000Y-24765000D03*
G04 #@! TO.N,Net-(C13-Pad1)*
X61849000Y-110236000D03*
X58420000Y-109474000D03*
X37413922Y-114696184D03*
X35941000Y-113665000D03*
X36168373Y-110574910D03*
G04 #@! TO.N,Net-(D4-Pad1)*
X57785000Y-113030000D03*
G04 #@! TO.N,Net-(D4-Pad2)*
X55880000Y-110490000D03*
G04 #@! TO.N,Net-(D6-Pad2)*
X49657000Y-99314000D03*
G04 #@! TO.N,Net-(D7-Pad2)*
X56642000Y-100965000D03*
G04 #@! TO.N,Net-(J1-PadA5)*
X30480000Y-114337000D03*
X30480000Y-116205000D03*
X36703000Y-111420000D03*
G04 #@! TO.N,Net-(J1-PadB5)*
X30480000Y-109855000D03*
X30480000Y-111379000D03*
X30734000Y-113030000D03*
G04 #@! TO.N,Net-(Q4-Pad3)*
X45720000Y-105410000D03*
X46810153Y-106500153D03*
G04 #@! TO.N,Net-(Q5-Pad1)*
X38441022Y-106464932D03*
X40275362Y-108071354D03*
G04 #@! TO.N,Net-(Q5-Pad3)*
X39157438Y-105767256D03*
X41021000Y-107405000D03*
G04 #@! TO.N,Net-(Q5-Pad4)*
X31115000Y-37465000D03*
X77470000Y-38825000D03*
X37719000Y-101981000D03*
X78105000Y-21209000D03*
X82550000Y-36195000D03*
X30861000Y-97409000D03*
G04 #@! TO.N,Net-(Q5-Pad6)*
X37846000Y-98171000D03*
X58293000Y-41021000D03*
X63119000Y-36068000D03*
X74041000Y-23495000D03*
G04 #@! TO.N,Net-(R1-Pad2)*
X71374000Y-41021000D03*
X75184000Y-40894000D03*
X84328000Y-47752000D03*
X86868000Y-49530000D03*
X90424000Y-95250000D03*
G04 #@! TO.N,Net-(R2-Pad2)*
X76454000Y-30734000D03*
X76454000Y-34417000D03*
X82804000Y-49022000D03*
X86106000Y-51054000D03*
G04 #@! TO.N,Net-(R6-Pad2)*
X29300000Y-35560000D03*
X76835000Y-40005000D03*
G04 #@! TO.N,Net-(R7-Pad2)*
X79248000Y-20955000D03*
X83693000Y-36068000D03*
G04 #@! TO.N,Net-(R17-Pad2)*
X39626851Y-109775998D03*
X43307000Y-101944000D03*
G04 #@! TO.N,Net-(R18-Pad2)*
X48895000Y-101219000D03*
X39567549Y-108777756D03*
G04 #@! TO.N,Net-(U1-Pad4)*
X36345153Y-36450000D03*
X91440000Y-38190000D03*
G04 #@! TO.N,Net-(U1-Pad5)*
X35411630Y-35297046D03*
X92710000Y-37465000D03*
G04 #@! TO.N,Net-(U1-Pad7)*
X31115000Y-34290000D03*
X92710000Y-41275000D03*
G04 #@! TO.N,Net-(U1-Pad12)*
X85852000Y-42672000D03*
X70104000Y-42780999D03*
G04 #@! TO.N,Net-(U1-Pad21)*
X44196000Y-108077000D03*
X46101000Y-101981000D03*
G04 #@! TO.N,Net-(U1-Pad22)*
X42164000Y-108368000D03*
X42545000Y-99949000D03*
X89662000Y-47117000D03*
X85598000Y-48387000D03*
G04 #@! TO.N,Net-(U4-Pad9)*
X48768000Y-73660000D03*
G04 #@! TO.N,Net-(U4-Pad10)*
X49022000Y-85090000D03*
G04 #@! TO.N,Net-(U4-Pad1)*
X45720000Y-84836000D03*
G04 #@! TO.N,Net-(U4-Pad6)*
X75184000Y-56134000D03*
G04 #@! TO.N,Net-(U4-Pad7)*
X66294000Y-79248000D03*
G04 #@! TO.N,Net-(U4-Pad8)*
X48260000Y-87630000D03*
G04 #@! TO.N,Net-(3V3-Pad1)*
X36195000Y-34380000D03*
X53975000Y-23495000D03*
X44191347Y-116336653D03*
X47050786Y-114686429D03*
X77978000Y-22479000D03*
X78232000Y-24384000D03*
X76327000Y-41656000D03*
X66675000Y-40894000D03*
X67183000Y-36068000D03*
X67183000Y-33020000D03*
X92837000Y-42926000D03*
X51943000Y-108331000D03*
X91186000Y-83312000D03*
G04 #@! TO.N,/USB_P*
X58801000Y-112522000D03*
X46736000Y-112268000D03*
G04 #@! TO.N,/USB_N*
X59690000Y-113157000D03*
X47244000Y-113284000D03*
G04 #@! TO.N,Net-(GP1-Pad1)*
X90969000Y-49530000D03*
X92239000Y-50800000D03*
G04 #@! TD*
D23*
G04 #@! TO.N,Net-(BT1-Pad1)*
X49149000Y-116586000D02*
X56388000Y-116586000D01*
X47879000Y-115316000D02*
X49149000Y-116586000D01*
X89070000Y-114300000D02*
X86609990Y-116760010D01*
X90170000Y-114300000D02*
X89070000Y-114300000D01*
X86609990Y-116760010D02*
X64516000Y-116760010D01*
X60960000Y-116760010D02*
X64516000Y-116760010D01*
X64516000Y-116760010D02*
X64906992Y-116760010D01*
G04 #@! TO.N,GND*
X26834999Y-99092999D02*
X27305000Y-98622998D01*
X27305000Y-95745000D02*
X27305000Y-95045000D01*
X27305000Y-98622998D02*
X27305000Y-95745000D01*
X28370000Y-101715000D02*
X26834999Y-100179999D01*
X26834999Y-100179999D02*
X26834999Y-99092999D01*
X29370000Y-101715000D02*
X28370000Y-101715000D01*
X34865000Y-109245000D02*
X34865000Y-109645000D01*
X34865000Y-106810000D02*
X34865000Y-109245000D01*
X29770000Y-101715000D02*
X34865000Y-106810000D01*
X29370000Y-101715000D02*
X29770000Y-101715000D01*
X33605000Y-109645000D02*
X33555000Y-109595000D01*
X34865000Y-109645000D02*
X33605000Y-109645000D01*
X33605000Y-115145000D02*
X33555000Y-115195000D01*
X34865000Y-115145000D02*
X33605000Y-115145000D01*
X36195000Y-37465000D02*
X41275000Y-37465000D01*
X36195000Y-37465000D02*
X34290000Y-35560000D01*
X46990000Y-110032500D02*
X47515000Y-110032500D01*
X49008280Y-109538220D02*
X48514000Y-110032500D01*
X62715000Y-114895000D02*
X57358220Y-109538220D01*
X62865000Y-114895000D02*
X62715000Y-114895000D01*
X48514000Y-110032500D02*
X46990000Y-110032500D01*
X56769000Y-108949000D02*
X57358220Y-109538220D01*
X56769000Y-104648000D02*
X56769000Y-108949000D01*
X34865000Y-106810000D02*
X35554359Y-106810000D01*
X35554359Y-106810000D02*
X41079999Y-101284360D01*
X26129999Y-57690001D02*
X42799000Y-41021000D01*
X27305000Y-95045000D02*
X27305000Y-94345000D01*
X27305000Y-94345000D02*
X26129999Y-93169999D01*
X44704000Y-41021000D02*
X42799000Y-41021000D01*
X42799000Y-41021000D02*
X41529000Y-41021000D01*
X73170999Y-36975999D02*
X72390000Y-36195000D01*
X84963000Y-36576000D02*
X84563001Y-36975999D01*
X84563001Y-36975999D02*
X73170999Y-36975999D01*
X49760252Y-109514472D02*
X49784000Y-109538220D01*
X49760252Y-109196252D02*
X49760252Y-109514472D01*
X57358220Y-109538220D02*
X49784000Y-109538220D01*
X49784000Y-109538220D02*
X49008280Y-109538220D01*
X26129999Y-57690001D02*
X26129999Y-91694000D01*
X26129999Y-93169999D02*
X26129999Y-88392000D01*
X26129999Y-88392000D02*
X26129999Y-88170001D01*
X65810000Y-111800000D02*
X62715000Y-114895000D01*
X90170000Y-111800000D02*
X65810000Y-111800000D01*
X86106000Y-76200000D02*
X95250000Y-76200000D01*
G04 #@! TO.N,Net-(C8-Pad1)*
X36195000Y-28575000D02*
X41275000Y-28575000D01*
G04 #@! TO.N,Net-(C9-Pad1)*
X36195000Y-24765000D02*
X41275000Y-24765000D01*
G04 #@! TO.N,Net-(3V3-Pad1)*
X67836999Y-42055999D02*
X67818000Y-42037000D01*
G04 #@! TO.N,Net-(C13-Pad1)*
X33605000Y-113645000D02*
X33555000Y-113595000D01*
X34865000Y-113645000D02*
X33605000Y-113645000D01*
X33605000Y-111145000D02*
X33555000Y-111195000D01*
X34865000Y-111145000D02*
X33605000Y-111145000D01*
X61849000Y-110236000D02*
X59055000Y-110236000D01*
X59055000Y-110236000D02*
X58420000Y-109601000D01*
X58420000Y-109601000D02*
X58420000Y-109474000D01*
X34885000Y-113665000D02*
X34865000Y-113645000D01*
X35941000Y-113665000D02*
X34885000Y-113665000D01*
X35941000Y-113665000D02*
X36382738Y-113665000D01*
X36382738Y-113665000D02*
X37413922Y-114696184D01*
X35306000Y-111145000D02*
X34865000Y-111145000D01*
X35649315Y-111145000D02*
X35306000Y-111145000D01*
X35465000Y-111145000D02*
X35306000Y-111145000D01*
X35649315Y-111145000D02*
X35649315Y-111093968D01*
X35649315Y-111093968D02*
X36168373Y-110574910D01*
G04 #@! TO.N,Net-(D4-Pad1)*
X57385001Y-112630001D02*
X57785000Y-113030000D01*
X57385001Y-112630001D02*
X57004001Y-112630001D01*
X45339000Y-110745000D02*
X45339000Y-110032500D01*
X46014020Y-111420020D02*
X45339000Y-110745000D01*
X55794020Y-111420020D02*
X46014020Y-111420020D01*
X57004001Y-112630001D02*
X55794020Y-111420020D01*
G04 #@! TO.N,Net-(D4-Pad2)*
X45339000Y-108407500D02*
X46101000Y-109169500D01*
X55480001Y-110889999D02*
X55880000Y-110490000D01*
X55399990Y-110970010D02*
X55480001Y-110889999D01*
X46554856Y-110970010D02*
X55399990Y-110970010D01*
X46101000Y-110516154D02*
X46554856Y-110970010D01*
X46101000Y-109169500D02*
X46101000Y-110516154D01*
G04 #@! TO.N,Net-(D6-Pad2)*
X56064002Y-99314000D02*
X49657000Y-99314000D01*
X57367001Y-100616999D02*
X56064002Y-99314000D01*
X57367001Y-101313001D02*
X57367001Y-100616999D01*
X48514000Y-108407500D02*
X50272502Y-108407500D01*
X50272502Y-108407500D02*
X57367001Y-101313001D01*
G04 #@! TO.N,Net-(D7-Pad2)*
X54432500Y-100965000D02*
X56642000Y-100965000D01*
X46990000Y-108407500D02*
X54432500Y-100965000D01*
G04 #@! TO.N,Net-(J1-PadS1)*
X32595000Y-107905000D02*
X32955000Y-108265000D01*
G04 #@! TO.N,Net-(J1-PadA5)*
X30480000Y-114337000D02*
X30480000Y-116205000D01*
X34865000Y-111645000D02*
X36310000Y-111645000D01*
X36535000Y-111420000D02*
X36703000Y-111420000D01*
X36310000Y-111645000D02*
X36535000Y-111420000D01*
G04 #@! TO.N,Net-(J1-PadB5)*
X30480000Y-109855000D02*
X30480000Y-111379000D01*
X32690000Y-113030000D02*
X32855000Y-113195000D01*
X30734000Y-113030000D02*
X32690000Y-113030000D01*
G04 #@! TO.N,Net-(Q4-Pad3)*
X46736000Y-106426000D02*
X46810153Y-106500153D01*
X45720000Y-105410000D02*
X46810153Y-106500153D01*
G04 #@! TO.N,Net-(Q5-Pad1)*
X38441022Y-106464932D02*
X38668940Y-106464932D01*
X38668940Y-106464932D02*
X40275362Y-108071354D01*
G04 #@! TO.N,Net-(Q5-Pad3)*
X39157438Y-105767256D02*
X40795182Y-107405000D01*
X40795182Y-107405000D02*
X41021000Y-107405000D01*
G04 #@! TO.N,Net-(Q5-Pad4)*
X35121998Y-37465000D02*
X31115000Y-37465000D01*
X42454999Y-38190001D02*
X35846999Y-38190001D01*
X35846999Y-38190001D02*
X35121998Y-37465000D01*
X42454999Y-38190001D02*
X42635001Y-38190001D01*
X42635001Y-38190001D02*
X43180000Y-38735000D01*
X43180000Y-38735000D02*
X53340000Y-38735000D01*
X53340000Y-38735000D02*
X77380000Y-38735000D01*
X77380000Y-38735000D02*
X77470000Y-38825000D01*
X37719000Y-101981000D02*
X34453000Y-98715000D01*
X78105000Y-21209000D02*
X82550000Y-25654000D01*
X82550000Y-25654000D02*
X82550000Y-36195000D01*
X30861000Y-98715000D02*
X30861000Y-97409000D01*
X30861000Y-98715000D02*
X29370000Y-98715000D01*
X34453000Y-98715000D02*
X30861000Y-98715000D01*
G04 #@! TO.N,Net-(Q5-Pad6)*
X27305000Y-92345000D02*
X27305000Y-91645000D01*
X33131000Y-98171000D02*
X27305000Y-92345000D01*
X37846000Y-98171000D02*
X33131000Y-98171000D01*
X63119000Y-36068000D02*
X63119000Y-34417000D01*
X63119000Y-34417000D02*
X74041000Y-23495000D01*
X37846000Y-98171000D02*
X34671000Y-98171000D01*
X31750000Y-64770000D02*
X31750000Y-53340000D01*
X31750000Y-53340000D02*
X43180000Y-41910000D01*
X57404000Y-41910000D02*
X58293000Y-41021000D01*
X43180000Y-41910000D02*
X57404000Y-41910000D01*
X27432000Y-90818000D02*
X27432000Y-69088000D01*
X27305000Y-90945000D02*
X27432000Y-90818000D01*
X31750000Y-64770000D02*
X27432000Y-69088000D01*
X27305000Y-91645000D02*
X27305000Y-90945000D01*
X27432000Y-69088000D02*
X27305000Y-69215000D01*
G04 #@! TO.N,Net-(R1-Pad2)*
X71374000Y-41021000D02*
X75057000Y-41021000D01*
X75057000Y-41021000D02*
X75184000Y-40894000D01*
X85540315Y-49530000D02*
X86868000Y-49530000D01*
X84328000Y-47752000D02*
X84328000Y-48317685D01*
X84328000Y-48317685D02*
X85540315Y-49530000D01*
X92000000Y-104140000D02*
X95250000Y-104140000D01*
X90424000Y-102564000D02*
X92000000Y-104140000D01*
X90424000Y-95250000D02*
X90424000Y-102564000D01*
G04 #@! TO.N,Net-(R2-Pad2)*
X76454000Y-30734000D02*
X76454000Y-34417000D01*
X82804000Y-49022000D02*
X84074000Y-49022000D01*
X84074000Y-49022000D02*
X86106000Y-51054000D01*
G04 #@! TO.N,Net-(R6-Pad2)*
X29300000Y-35560000D02*
X29300000Y-36125685D01*
X29300000Y-36125685D02*
X29300000Y-38825000D01*
X29300000Y-38825000D02*
X29845000Y-39370000D01*
X29845000Y-39370000D02*
X43180000Y-39370000D01*
X43180000Y-39370000D02*
X53340000Y-39370000D01*
X53340000Y-39370000D02*
X76200000Y-39370000D01*
X76200000Y-39370000D02*
X76835000Y-40005000D01*
G04 #@! TO.N,Net-(R7-Pad2)*
X79248000Y-20955000D02*
X83693000Y-25400000D01*
X83693000Y-25400000D02*
X83693000Y-36068000D01*
G04 #@! TO.N,Net-(R17-Pad2)*
X39626851Y-109775998D02*
X42560799Y-109775998D01*
X43307000Y-109029797D02*
X43307000Y-101944000D01*
X42560799Y-109775998D02*
X43307000Y-109029797D01*
G04 #@! TO.N,Net-(R18-Pad2)*
X45212000Y-101219000D02*
X48895000Y-101219000D01*
X43216999Y-99223999D02*
X45212000Y-101219000D01*
X42196999Y-99223999D02*
X43216999Y-99223999D01*
X39586148Y-108796355D02*
X40702647Y-108796355D01*
X41805000Y-99615998D02*
X42196999Y-99223999D01*
X41746001Y-107753001D02*
X41746001Y-101691360D01*
X39567549Y-108777756D02*
X39586148Y-108796355D01*
X41746001Y-101691360D02*
X41805000Y-101632361D01*
X40702647Y-108796355D02*
X41746001Y-107753001D01*
X41805000Y-101632361D02*
X41805000Y-99615998D01*
G04 #@! TO.N,Net-(U1-Pad4)*
X42165000Y-36450000D02*
X36345153Y-36450000D01*
X53340000Y-38100000D02*
X43815000Y-38100000D01*
X43815000Y-38100000D02*
X42165000Y-36450000D01*
X53340000Y-38100000D02*
X91350000Y-38100000D01*
X91350000Y-38100000D02*
X91440000Y-38190000D01*
G04 #@! TO.N,Net-(U1-Pad5)*
X35811629Y-35697045D02*
X35411630Y-35297046D01*
X43816410Y-37465000D02*
X42048455Y-35697045D01*
X42048455Y-35697045D02*
X35811629Y-35697045D01*
X43816410Y-37465000D02*
X53340000Y-37465000D01*
X53340000Y-37465000D02*
X92710000Y-37465000D01*
G04 #@! TO.N,Net-(U1-Pad7)*
X31115000Y-34290000D02*
X29210000Y-34290000D01*
X29210000Y-34290000D02*
X28575000Y-34925000D01*
X28575000Y-34925000D02*
X28575000Y-39370000D01*
X28575000Y-39370000D02*
X29210000Y-40005000D01*
X29210000Y-40005000D02*
X43180000Y-40005000D01*
X43180000Y-40005000D02*
X53340000Y-40005000D01*
X53340000Y-40005000D02*
X75565000Y-40005000D01*
X92165001Y-40730001D02*
X92710000Y-41275000D01*
X75565000Y-40005000D02*
X76290001Y-40730001D01*
X76290001Y-40730001D02*
X92165001Y-40730001D01*
G04 #@! TO.N,Net-(U1-Pad12)*
X70104000Y-42780999D02*
X70104000Y-42780999D01*
X85743001Y-42780999D02*
X85852000Y-42672000D01*
X70104000Y-42780999D02*
X85743001Y-42780999D01*
G04 #@! TO.N,Net-(U1-Pad21)*
X44196000Y-108077000D02*
X44196000Y-103886000D01*
X44196000Y-103886000D02*
X46101000Y-101981000D01*
G04 #@! TO.N,Net-(U1-Pad22)*
X42563999Y-107968001D02*
X42563999Y-102507999D01*
X42164000Y-108368000D02*
X42563999Y-107968001D01*
X42563999Y-102507999D02*
X42563999Y-101370311D01*
X42563999Y-101370311D02*
X42563999Y-99967999D01*
X42563999Y-99967999D02*
X42545000Y-99949000D01*
X88392000Y-48387000D02*
X89662000Y-47117000D01*
X85598000Y-48387000D02*
X88392000Y-48387000D01*
G04 #@! TO.N,Net-(U4-Pad9)*
X48768000Y-76200000D02*
X48768000Y-76454000D01*
X48768000Y-73660000D02*
X48768000Y-76200000D01*
G04 #@! TO.N,Net-(U4-Pad10)*
X49022000Y-85090000D02*
X52578000Y-85090000D01*
G04 #@! TO.N,Net-(U4-Pad1)*
X45720000Y-84836000D02*
X43434000Y-84836000D01*
G04 #@! TO.N,Net-(U4-Pad6)*
X75184000Y-56134000D02*
X79756000Y-60706000D01*
X79756000Y-60706000D02*
X79756000Y-86360000D01*
G04 #@! TO.N,Net-(U4-Pad7)*
X66294000Y-81280000D02*
X67310000Y-82296000D01*
X66294000Y-79248000D02*
X66294000Y-81280000D01*
G04 #@! TO.N,Net-(U4-Pad8)*
X48260000Y-87630000D02*
X48260000Y-88900000D01*
G04 #@! TO.N,Net-(3V3-Pad1)*
X50165000Y-23495000D02*
X53975000Y-23495000D01*
X36195000Y-34380000D02*
X39280000Y-34380000D01*
X39280000Y-34380000D02*
X50165000Y-23495000D01*
X44191347Y-116336653D02*
X45841571Y-114686429D01*
X45841571Y-114686429D02*
X47050786Y-114686429D01*
X77978000Y-22479000D02*
X77978000Y-24130000D01*
X77978000Y-24130000D02*
X78232000Y-24384000D01*
X76327000Y-41656000D02*
X75927001Y-42055999D01*
X75927001Y-42055999D02*
X67836999Y-42055999D01*
X67183000Y-36068000D02*
X67183000Y-33020000D01*
X76327000Y-41656000D02*
X91567000Y-41656000D01*
X51943000Y-108331000D02*
X57817011Y-102456989D01*
X67818000Y-42037000D02*
X66675000Y-40894000D01*
X95250000Y-81788000D02*
X94750000Y-81788000D01*
X59182000Y-101092000D02*
X57817011Y-102456989D01*
X75446000Y-101092000D02*
X59182000Y-101092000D01*
X92964001Y-43053001D02*
X91948000Y-42037000D01*
X92964001Y-51148001D02*
X92964001Y-43053001D01*
X91186000Y-52926002D02*
X92964001Y-51148001D01*
X94750000Y-81788000D02*
X91186000Y-85352000D01*
X91186000Y-85352000D02*
X75446000Y-101092000D01*
X91948000Y-42037000D02*
X92837000Y-42926000D01*
X91567000Y-41656000D02*
X91948000Y-42037000D01*
X91186000Y-85352000D02*
X91186000Y-83312000D01*
G04 #@! TO.N,/USB_P*
X58801000Y-113087002D02*
X58801000Y-112522000D01*
X58133001Y-113755001D02*
X58801000Y-113087002D01*
X34265000Y-112145000D02*
X34865000Y-112145000D01*
X34189999Y-112220001D02*
X34265000Y-112145000D01*
X34189999Y-112619620D02*
X34189999Y-112220001D01*
X34014619Y-112795000D02*
X34189999Y-112619620D01*
X33555000Y-112795000D02*
X34014619Y-112795000D01*
X34865000Y-112145000D02*
X46613000Y-112145000D01*
X46613000Y-112145000D02*
X46736000Y-112268000D01*
X57436999Y-113755001D02*
X58133001Y-113755001D01*
X55949998Y-112268000D02*
X57436999Y-113755001D01*
X46736000Y-112268000D02*
X55949998Y-112268000D01*
G04 #@! TO.N,/USB_N*
X58641989Y-114205011D02*
X59690000Y-113157000D01*
X33555000Y-111995000D02*
X33417002Y-111995000D01*
X46678998Y-113284000D02*
X47244000Y-113284000D01*
X46039998Y-112645000D02*
X46678998Y-113284000D01*
X58641989Y-114205011D02*
X56801011Y-114205011D01*
X55880000Y-113284000D02*
X47244000Y-113284000D01*
X56801011Y-114205011D02*
X55880000Y-113284000D01*
X29754999Y-116553001D02*
X30549998Y-117348000D01*
X30385999Y-112304999D02*
X29754999Y-112935999D01*
X33417002Y-111995000D02*
X33107003Y-112304999D01*
X29754999Y-112935999D02*
X29754999Y-116553001D01*
X33107003Y-112304999D02*
X30385999Y-112304999D01*
X35835108Y-117348000D02*
X38608000Y-114575108D01*
X30549998Y-117348000D02*
X35835108Y-117348000D01*
X38608000Y-113153000D02*
X39116000Y-112645000D01*
X38608000Y-114575108D02*
X38608000Y-113153000D01*
X34865000Y-112645000D02*
X39116000Y-112645000D01*
X39116000Y-112645000D02*
X46039998Y-112645000D01*
G04 #@! TO.N,Net-(GP1-Pad1)*
X90969000Y-49530000D02*
X92239000Y-50800000D01*
G04 #@! TD*
M02*
