G04 #@! TF.GenerationSoftware,KiCad,Pcbnew,5.0.2-bee76a0~70~ubuntu18.04.1*
G04 #@! TF.CreationDate,2019-01-18T14:13:04+00:00*
G04 #@! TF.ProjectId,badge,62616467-652e-46b6-9963-61645f706362,rev?*
G04 #@! TF.SameCoordinates,Original*
G04 #@! TF.FileFunction,Legend,Bot*
G04 #@! TF.FilePolarity,Positive*
%FSLAX46Y46*%
G04 Gerber Fmt 4.6, Leading zero omitted, Abs format (unit mm)*
G04 Created by KiCad (PCBNEW 5.0.2-bee76a0~70~ubuntu18.04.1) date Fri 18 Jan 2019 14:13:04 GMT*
%MOMM*%
%LPD*%
G01*
G04 APERTURE LIST*
%ADD10C,0.120000*%
%ADD11C,0.150000*%
G04 APERTURE END LIST*
D10*
G04 #@! TO.C,C1*
X38476422Y-20245000D02*
X38993578Y-20245000D01*
X38476422Y-21665000D02*
X38993578Y-21665000D01*
G04 #@! TO.C,C2*
X38476422Y-26745000D02*
X38993578Y-26745000D01*
X38476422Y-25325000D02*
X38993578Y-25325000D01*
G04 #@! TO.C,C3*
X38476422Y-31825000D02*
X38993578Y-31825000D01*
X38476422Y-30405000D02*
X38993578Y-30405000D01*
G04 #@! TO.C,C4*
X38476422Y-32945000D02*
X38993578Y-32945000D01*
X38476422Y-34365000D02*
X38993578Y-34365000D01*
G04 #@! TO.C,C6*
X38476422Y-41985000D02*
X38993578Y-41985000D01*
X38476422Y-40565000D02*
X38993578Y-40565000D01*
G04 #@! TO.C,C7*
X38476422Y-38025000D02*
X38993578Y-38025000D01*
X38476422Y-39445000D02*
X38993578Y-39445000D01*
G04 #@! TO.C,C8*
X38476422Y-29285000D02*
X38993578Y-29285000D01*
X38476422Y-27865000D02*
X38993578Y-27865000D01*
G04 #@! TO.C,C9*
X38476422Y-24205000D02*
X38993578Y-24205000D01*
X38476422Y-22785000D02*
X38993578Y-22785000D01*
G04 #@! TO.C,C11*
X66369000Y-33523422D02*
X66369000Y-34040578D01*
X64949000Y-33523422D02*
X64949000Y-34040578D01*
G04 #@! TO.C,C12*
X38476422Y-35485000D02*
X38993578Y-35485000D01*
X38476422Y-36905000D02*
X38993578Y-36905000D01*
G04 #@! TO.C,D1*
X42835000Y-29575000D02*
X42835000Y-27575000D01*
X42835000Y-27575000D02*
X46735000Y-27575000D01*
X42835000Y-29575000D02*
X46735000Y-29575000D01*
G04 #@! TO.C,D2*
X47335000Y-22495000D02*
X47335000Y-24495000D01*
X47335000Y-24495000D02*
X43435000Y-24495000D01*
X47335000Y-22495000D02*
X43435000Y-22495000D01*
G04 #@! TO.C,D3*
X42835000Y-27035000D02*
X46735000Y-27035000D01*
X42835000Y-25035000D02*
X46735000Y-25035000D01*
X42835000Y-27035000D02*
X42835000Y-25035000D01*
G04 #@! TO.C,D5*
X61367000Y-105480000D02*
X61367000Y-107880000D01*
X58267000Y-107880000D02*
X58267000Y-104930000D01*
G04 #@! TO.C,L1*
X50675000Y-24995000D02*
X50675000Y-26695000D01*
X50675000Y-26695000D02*
X57275000Y-26695000D01*
X57275000Y-26695000D02*
X57275000Y-24995000D01*
X57275000Y-21995000D02*
X57275000Y-20295000D01*
X57275000Y-20295000D02*
X50675000Y-20295000D01*
X50675000Y-20295000D02*
X50675000Y-21995000D01*
G04 #@! TO.C,Q1*
X39495000Y-42870000D02*
X39495000Y-43800000D01*
X39495000Y-46030000D02*
X39495000Y-45100000D01*
X39495000Y-46030000D02*
X37335000Y-46030000D01*
X39495000Y-42870000D02*
X38035000Y-42870000D01*
G04 #@! TO.C,Q2*
X46210000Y-102560000D02*
X44750000Y-102560000D01*
X46210000Y-105720000D02*
X44050000Y-105720000D01*
X46210000Y-105720000D02*
X46210000Y-104790000D01*
X46210000Y-102560000D02*
X46210000Y-103490000D01*
G04 #@! TO.C,Q3*
X49655000Y-102560000D02*
X49655000Y-103490000D01*
X49655000Y-105720000D02*
X49655000Y-104790000D01*
X49655000Y-105720000D02*
X47495000Y-105720000D01*
X49655000Y-102560000D02*
X48195000Y-102560000D01*
G04 #@! TO.C,Q4*
X42670000Y-102560000D02*
X41210000Y-102560000D01*
X42670000Y-105720000D02*
X40510000Y-105720000D01*
X42670000Y-105720000D02*
X42670000Y-104790000D01*
X42670000Y-102560000D02*
X42670000Y-103490000D01*
G04 #@! TO.C,Q5*
X38096000Y-98774000D02*
X39996000Y-98774000D01*
X39496000Y-101094000D02*
X38096000Y-101094000D01*
G04 #@! TO.C,R1*
X73274422Y-28904000D02*
X73791578Y-28904000D01*
X73274422Y-27484000D02*
X73791578Y-27484000D01*
G04 #@! TO.C,R2*
X69210422Y-28904000D02*
X69727578Y-28904000D01*
X69210422Y-27484000D02*
X69727578Y-27484000D01*
G04 #@! TO.C,R8*
X43690000Y-43723779D02*
X43690000Y-43398221D01*
X42670000Y-43723779D02*
X42670000Y-43398221D01*
G04 #@! TO.C,R9*
X29085000Y-113375221D02*
X29085000Y-113700779D01*
X28065000Y-113375221D02*
X28065000Y-113700779D01*
G04 #@! TO.C,R10*
X28958000Y-110271779D02*
X28958000Y-109946221D01*
X27938000Y-110271779D02*
X27938000Y-109946221D01*
G04 #@! TO.C,R12*
X54535000Y-106938578D02*
X54535000Y-106421422D01*
X55955000Y-106938578D02*
X55955000Y-106421422D01*
G04 #@! TO.C,R14*
X53307064Y-109580000D02*
X52102936Y-109580000D01*
X53307064Y-111400000D02*
X52102936Y-111400000D01*
G04 #@! TO.C,R17*
X46830064Y-100605000D02*
X45625936Y-100605000D01*
X46830064Y-98785000D02*
X45625936Y-98785000D01*
G04 #@! TO.C,R18*
X53307064Y-100182000D02*
X52102936Y-100182000D01*
X53307064Y-102002000D02*
X52102936Y-102002000D01*
G04 #@! TO.C,U1*
X95750000Y-20900000D02*
X79510000Y-20900000D01*
X79510000Y-20900000D02*
X79510000Y-28520000D01*
X79510000Y-44520000D02*
X79510000Y-45140000D01*
X79510000Y-45140000D02*
X81630000Y-45140000D01*
X93630000Y-45140000D02*
X95750000Y-45140000D01*
X95750000Y-45140000D02*
X95750000Y-44520000D01*
X95750000Y-28520000D02*
X95750000Y-20900000D01*
X95750000Y-28520000D02*
X96360000Y-28520000D01*
G04 #@! TO.C,U2*
X32415000Y-41085000D02*
X32415000Y-42575000D01*
X32415000Y-42575000D02*
X31075000Y-42575000D01*
X32415000Y-28765000D02*
X32415000Y-27275000D01*
X32415000Y-27275000D02*
X31075000Y-27275000D01*
X28355000Y-42575000D02*
X26615000Y-42575000D01*
X26615000Y-42575000D02*
X26615000Y-27275000D01*
X26615000Y-27275000D02*
X28355000Y-27275000D01*
X32415000Y-41085000D02*
X33615000Y-41085000D01*
D11*
G04 #@! TO.C,U3*
X73576000Y-29937000D02*
X73576000Y-29987000D01*
X69426000Y-29937000D02*
X69426000Y-30082000D01*
X69426000Y-35087000D02*
X69426000Y-34942000D01*
X73576000Y-35087000D02*
X73576000Y-34942000D01*
X73576000Y-29937000D02*
X69426000Y-29937000D01*
X73576000Y-35087000D02*
X69426000Y-35087000D01*
X73576000Y-29987000D02*
X74976000Y-29987000D01*
D10*
G04 #@! TO.C,U4*
X72040000Y-42067000D02*
X72040000Y-45442000D01*
X75280000Y-42442000D02*
X75280000Y-45442000D01*
G04 #@! TO.C,U5*
X41295000Y-109785000D02*
X40570000Y-109785000D01*
X40570000Y-109785000D02*
X40570000Y-110510000D01*
X45065000Y-115005000D02*
X45790000Y-115005000D01*
X45790000Y-115005000D02*
X45790000Y-114280000D01*
X41295000Y-115005000D02*
X40570000Y-115005000D01*
X40570000Y-115005000D02*
X40570000Y-114280000D01*
X45065000Y-109785000D02*
X45790000Y-109785000D01*
G04 #@! TO.C,U6*
X55510000Y-115910000D02*
X53710000Y-115910000D01*
X53710000Y-112690000D02*
X56160000Y-112690000D01*
G04 #@! TO.C,R16*
D11*
X38552380Y-105910142D02*
X38076190Y-105576809D01*
X38552380Y-105338714D02*
X37552380Y-105338714D01*
X37552380Y-105719666D01*
X37600000Y-105814904D01*
X37647619Y-105862523D01*
X37742857Y-105910142D01*
X37885714Y-105910142D01*
X37980952Y-105862523D01*
X38028571Y-105814904D01*
X38076190Y-105719666D01*
X38076190Y-105338714D01*
X38552380Y-106862523D02*
X38552380Y-106291095D01*
X38552380Y-106576809D02*
X37552380Y-106576809D01*
X37695238Y-106481571D01*
X37790476Y-106386333D01*
X37838095Y-106291095D01*
X37552380Y-107719666D02*
X37552380Y-107529190D01*
X37600000Y-107433952D01*
X37647619Y-107386333D01*
X37790476Y-107291095D01*
X37980952Y-107243476D01*
X38361904Y-107243476D01*
X38457142Y-107291095D01*
X38504761Y-107338714D01*
X38552380Y-107433952D01*
X38552380Y-107624428D01*
X38504761Y-107719666D01*
X38457142Y-107767285D01*
X38361904Y-107814904D01*
X38123809Y-107814904D01*
X38028571Y-107767285D01*
X37980952Y-107719666D01*
X37933333Y-107624428D01*
X37933333Y-107433952D01*
X37980952Y-107338714D01*
X38028571Y-107291095D01*
X38123809Y-107243476D01*
G04 #@! TO.C,C1*
X41441666Y-21312142D02*
X41489285Y-21359761D01*
X41632142Y-21407380D01*
X41727380Y-21407380D01*
X41870238Y-21359761D01*
X41965476Y-21264523D01*
X42013095Y-21169285D01*
X42060714Y-20978809D01*
X42060714Y-20835952D01*
X42013095Y-20645476D01*
X41965476Y-20550238D01*
X41870238Y-20455000D01*
X41727380Y-20407380D01*
X41632142Y-20407380D01*
X41489285Y-20455000D01*
X41441666Y-20502619D01*
X40489285Y-21407380D02*
X41060714Y-21407380D01*
X40775000Y-21407380D02*
X40775000Y-20407380D01*
X40870238Y-20550238D01*
X40965476Y-20645476D01*
X41060714Y-20693095D01*
G04 #@! TO.C,C2*
X41441666Y-26392142D02*
X41489285Y-26439761D01*
X41632142Y-26487380D01*
X41727380Y-26487380D01*
X41870238Y-26439761D01*
X41965476Y-26344523D01*
X42013095Y-26249285D01*
X42060714Y-26058809D01*
X42060714Y-25915952D01*
X42013095Y-25725476D01*
X41965476Y-25630238D01*
X41870238Y-25535000D01*
X41727380Y-25487380D01*
X41632142Y-25487380D01*
X41489285Y-25535000D01*
X41441666Y-25582619D01*
X41060714Y-25582619D02*
X41013095Y-25535000D01*
X40917857Y-25487380D01*
X40679761Y-25487380D01*
X40584523Y-25535000D01*
X40536904Y-25582619D01*
X40489285Y-25677857D01*
X40489285Y-25773095D01*
X40536904Y-25915952D01*
X41108333Y-26487380D01*
X40489285Y-26487380D01*
G04 #@! TO.C,C3*
X41441666Y-31472142D02*
X41489285Y-31519761D01*
X41632142Y-31567380D01*
X41727380Y-31567380D01*
X41870238Y-31519761D01*
X41965476Y-31424523D01*
X42013095Y-31329285D01*
X42060714Y-31138809D01*
X42060714Y-30995952D01*
X42013095Y-30805476D01*
X41965476Y-30710238D01*
X41870238Y-30615000D01*
X41727380Y-30567380D01*
X41632142Y-30567380D01*
X41489285Y-30615000D01*
X41441666Y-30662619D01*
X41108333Y-30567380D02*
X40489285Y-30567380D01*
X40822619Y-30948333D01*
X40679761Y-30948333D01*
X40584523Y-30995952D01*
X40536904Y-31043571D01*
X40489285Y-31138809D01*
X40489285Y-31376904D01*
X40536904Y-31472142D01*
X40584523Y-31519761D01*
X40679761Y-31567380D01*
X40965476Y-31567380D01*
X41060714Y-31519761D01*
X41108333Y-31472142D01*
G04 #@! TO.C,C4*
X41441666Y-34012142D02*
X41489285Y-34059761D01*
X41632142Y-34107380D01*
X41727380Y-34107380D01*
X41870238Y-34059761D01*
X41965476Y-33964523D01*
X42013095Y-33869285D01*
X42060714Y-33678809D01*
X42060714Y-33535952D01*
X42013095Y-33345476D01*
X41965476Y-33250238D01*
X41870238Y-33155000D01*
X41727380Y-33107380D01*
X41632142Y-33107380D01*
X41489285Y-33155000D01*
X41441666Y-33202619D01*
X40584523Y-33440714D02*
X40584523Y-34107380D01*
X40822619Y-33059761D02*
X41060714Y-33774047D01*
X40441666Y-33774047D01*
G04 #@! TO.C,C6*
X41441666Y-41632142D02*
X41489285Y-41679761D01*
X41632142Y-41727380D01*
X41727380Y-41727380D01*
X41870238Y-41679761D01*
X41965476Y-41584523D01*
X42013095Y-41489285D01*
X42060714Y-41298809D01*
X42060714Y-41155952D01*
X42013095Y-40965476D01*
X41965476Y-40870238D01*
X41870238Y-40775000D01*
X41727380Y-40727380D01*
X41632142Y-40727380D01*
X41489285Y-40775000D01*
X41441666Y-40822619D01*
X40584523Y-40727380D02*
X40775000Y-40727380D01*
X40870238Y-40775000D01*
X40917857Y-40822619D01*
X41013095Y-40965476D01*
X41060714Y-41155952D01*
X41060714Y-41536904D01*
X41013095Y-41632142D01*
X40965476Y-41679761D01*
X40870238Y-41727380D01*
X40679761Y-41727380D01*
X40584523Y-41679761D01*
X40536904Y-41632142D01*
X40489285Y-41536904D01*
X40489285Y-41298809D01*
X40536904Y-41203571D01*
X40584523Y-41155952D01*
X40679761Y-41108333D01*
X40870238Y-41108333D01*
X40965476Y-41155952D01*
X41013095Y-41203571D01*
X41060714Y-41298809D01*
G04 #@! TO.C,C7*
X41441666Y-39092142D02*
X41489285Y-39139761D01*
X41632142Y-39187380D01*
X41727380Y-39187380D01*
X41870238Y-39139761D01*
X41965476Y-39044523D01*
X42013095Y-38949285D01*
X42060714Y-38758809D01*
X42060714Y-38615952D01*
X42013095Y-38425476D01*
X41965476Y-38330238D01*
X41870238Y-38235000D01*
X41727380Y-38187380D01*
X41632142Y-38187380D01*
X41489285Y-38235000D01*
X41441666Y-38282619D01*
X41108333Y-38187380D02*
X40441666Y-38187380D01*
X40870238Y-39187380D01*
G04 #@! TO.C,C8*
X41441666Y-28932142D02*
X41489285Y-28979761D01*
X41632142Y-29027380D01*
X41727380Y-29027380D01*
X41870238Y-28979761D01*
X41965476Y-28884523D01*
X42013095Y-28789285D01*
X42060714Y-28598809D01*
X42060714Y-28455952D01*
X42013095Y-28265476D01*
X41965476Y-28170238D01*
X41870238Y-28075000D01*
X41727380Y-28027380D01*
X41632142Y-28027380D01*
X41489285Y-28075000D01*
X41441666Y-28122619D01*
X40870238Y-28455952D02*
X40965476Y-28408333D01*
X41013095Y-28360714D01*
X41060714Y-28265476D01*
X41060714Y-28217857D01*
X41013095Y-28122619D01*
X40965476Y-28075000D01*
X40870238Y-28027380D01*
X40679761Y-28027380D01*
X40584523Y-28075000D01*
X40536904Y-28122619D01*
X40489285Y-28217857D01*
X40489285Y-28265476D01*
X40536904Y-28360714D01*
X40584523Y-28408333D01*
X40679761Y-28455952D01*
X40870238Y-28455952D01*
X40965476Y-28503571D01*
X41013095Y-28551190D01*
X41060714Y-28646428D01*
X41060714Y-28836904D01*
X41013095Y-28932142D01*
X40965476Y-28979761D01*
X40870238Y-29027380D01*
X40679761Y-29027380D01*
X40584523Y-28979761D01*
X40536904Y-28932142D01*
X40489285Y-28836904D01*
X40489285Y-28646428D01*
X40536904Y-28551190D01*
X40584523Y-28503571D01*
X40679761Y-28455952D01*
G04 #@! TO.C,C9*
X41441666Y-23852142D02*
X41489285Y-23899761D01*
X41632142Y-23947380D01*
X41727380Y-23947380D01*
X41870238Y-23899761D01*
X41965476Y-23804523D01*
X42013095Y-23709285D01*
X42060714Y-23518809D01*
X42060714Y-23375952D01*
X42013095Y-23185476D01*
X41965476Y-23090238D01*
X41870238Y-22995000D01*
X41727380Y-22947380D01*
X41632142Y-22947380D01*
X41489285Y-22995000D01*
X41441666Y-23042619D01*
X40965476Y-23947380D02*
X40775000Y-23947380D01*
X40679761Y-23899761D01*
X40632142Y-23852142D01*
X40536904Y-23709285D01*
X40489285Y-23518809D01*
X40489285Y-23137857D01*
X40536904Y-23042619D01*
X40584523Y-22995000D01*
X40679761Y-22947380D01*
X40870238Y-22947380D01*
X40965476Y-22995000D01*
X41013095Y-23042619D01*
X41060714Y-23137857D01*
X41060714Y-23375952D01*
X41013095Y-23471190D01*
X40965476Y-23518809D01*
X40870238Y-23566428D01*
X40679761Y-23566428D01*
X40584523Y-23518809D01*
X40536904Y-23471190D01*
X40489285Y-23375952D01*
G04 #@! TO.C,C10*
X48267857Y-21312142D02*
X48315476Y-21359761D01*
X48458333Y-21407380D01*
X48553571Y-21407380D01*
X48696428Y-21359761D01*
X48791666Y-21264523D01*
X48839285Y-21169285D01*
X48886904Y-20978809D01*
X48886904Y-20835952D01*
X48839285Y-20645476D01*
X48791666Y-20550238D01*
X48696428Y-20455000D01*
X48553571Y-20407380D01*
X48458333Y-20407380D01*
X48315476Y-20455000D01*
X48267857Y-20502619D01*
X47315476Y-21407380D02*
X47886904Y-21407380D01*
X47601190Y-21407380D02*
X47601190Y-20407380D01*
X47696428Y-20550238D01*
X47791666Y-20645476D01*
X47886904Y-20693095D01*
X46696428Y-20407380D02*
X46601190Y-20407380D01*
X46505952Y-20455000D01*
X46458333Y-20502619D01*
X46410714Y-20597857D01*
X46363095Y-20788333D01*
X46363095Y-21026428D01*
X46410714Y-21216904D01*
X46458333Y-21312142D01*
X46505952Y-21359761D01*
X46601190Y-21407380D01*
X46696428Y-21407380D01*
X46791666Y-21359761D01*
X46839285Y-21312142D01*
X46886904Y-21216904D01*
X46934523Y-21026428D01*
X46934523Y-20788333D01*
X46886904Y-20597857D01*
X46839285Y-20502619D01*
X46791666Y-20455000D01*
X46696428Y-20407380D01*
G04 #@! TO.C,C11*
X64366142Y-33139142D02*
X64413761Y-33091523D01*
X64461380Y-32948666D01*
X64461380Y-32853428D01*
X64413761Y-32710571D01*
X64318523Y-32615333D01*
X64223285Y-32567714D01*
X64032809Y-32520095D01*
X63889952Y-32520095D01*
X63699476Y-32567714D01*
X63604238Y-32615333D01*
X63509000Y-32710571D01*
X63461380Y-32853428D01*
X63461380Y-32948666D01*
X63509000Y-33091523D01*
X63556619Y-33139142D01*
X64461380Y-34091523D02*
X64461380Y-33520095D01*
X64461380Y-33805809D02*
X63461380Y-33805809D01*
X63604238Y-33710571D01*
X63699476Y-33615333D01*
X63747095Y-33520095D01*
X64461380Y-35043904D02*
X64461380Y-34472476D01*
X64461380Y-34758190D02*
X63461380Y-34758190D01*
X63604238Y-34662952D01*
X63699476Y-34567714D01*
X63747095Y-34472476D01*
G04 #@! TO.C,C12*
X42552857Y-36552142D02*
X42600476Y-36599761D01*
X42743333Y-36647380D01*
X42838571Y-36647380D01*
X42981428Y-36599761D01*
X43076666Y-36504523D01*
X43124285Y-36409285D01*
X43171904Y-36218809D01*
X43171904Y-36075952D01*
X43124285Y-35885476D01*
X43076666Y-35790238D01*
X42981428Y-35695000D01*
X42838571Y-35647380D01*
X42743333Y-35647380D01*
X42600476Y-35695000D01*
X42552857Y-35742619D01*
X41600476Y-36647380D02*
X42171904Y-36647380D01*
X41886190Y-36647380D02*
X41886190Y-35647380D01*
X41981428Y-35790238D01*
X42076666Y-35885476D01*
X42171904Y-35933095D01*
X41219523Y-35742619D02*
X41171904Y-35695000D01*
X41076666Y-35647380D01*
X40838571Y-35647380D01*
X40743333Y-35695000D01*
X40695714Y-35742619D01*
X40648095Y-35837857D01*
X40648095Y-35933095D01*
X40695714Y-36075952D01*
X41267142Y-36647380D01*
X40648095Y-36647380D01*
G04 #@! TO.C,C13*
X51792142Y-111117142D02*
X51839761Y-111069523D01*
X51887380Y-110926666D01*
X51887380Y-110831428D01*
X51839761Y-110688571D01*
X51744523Y-110593333D01*
X51649285Y-110545714D01*
X51458809Y-110498095D01*
X51315952Y-110498095D01*
X51125476Y-110545714D01*
X51030238Y-110593333D01*
X50935000Y-110688571D01*
X50887380Y-110831428D01*
X50887380Y-110926666D01*
X50935000Y-111069523D01*
X50982619Y-111117142D01*
X51887380Y-112069523D02*
X51887380Y-111498095D01*
X51887380Y-111783809D02*
X50887380Y-111783809D01*
X51030238Y-111688571D01*
X51125476Y-111593333D01*
X51173095Y-111498095D01*
X50887380Y-112402857D02*
X50887380Y-113021904D01*
X51268333Y-112688571D01*
X51268333Y-112831428D01*
X51315952Y-112926666D01*
X51363571Y-112974285D01*
X51458809Y-113021904D01*
X51696904Y-113021904D01*
X51792142Y-112974285D01*
X51839761Y-112926666D01*
X51887380Y-112831428D01*
X51887380Y-112545714D01*
X51839761Y-112450476D01*
X51792142Y-112402857D01*
G04 #@! TO.C,C14*
X52712857Y-117197142D02*
X52760476Y-117244761D01*
X52903333Y-117292380D01*
X52998571Y-117292380D01*
X53141428Y-117244761D01*
X53236666Y-117149523D01*
X53284285Y-117054285D01*
X53331904Y-116863809D01*
X53331904Y-116720952D01*
X53284285Y-116530476D01*
X53236666Y-116435238D01*
X53141428Y-116340000D01*
X52998571Y-116292380D01*
X52903333Y-116292380D01*
X52760476Y-116340000D01*
X52712857Y-116387619D01*
X51760476Y-117292380D02*
X52331904Y-117292380D01*
X52046190Y-117292380D02*
X52046190Y-116292380D01*
X52141428Y-116435238D01*
X52236666Y-116530476D01*
X52331904Y-116578095D01*
X50903333Y-116625714D02*
X50903333Y-117292380D01*
X51141428Y-116244761D02*
X51379523Y-116959047D01*
X50760476Y-116959047D01*
G04 #@! TO.C,D1*
X45823095Y-31027380D02*
X45823095Y-30027380D01*
X45585000Y-30027380D01*
X45442142Y-30075000D01*
X45346904Y-30170238D01*
X45299285Y-30265476D01*
X45251666Y-30455952D01*
X45251666Y-30598809D01*
X45299285Y-30789285D01*
X45346904Y-30884523D01*
X45442142Y-30979761D01*
X45585000Y-31027380D01*
X45823095Y-31027380D01*
X44299285Y-31027380D02*
X44870714Y-31027380D01*
X44585000Y-31027380D02*
X44585000Y-30027380D01*
X44680238Y-30170238D01*
X44775476Y-30265476D01*
X44870714Y-30313095D01*
G04 #@! TO.C,D2*
X49633095Y-23947380D02*
X49633095Y-22947380D01*
X49395000Y-22947380D01*
X49252142Y-22995000D01*
X49156904Y-23090238D01*
X49109285Y-23185476D01*
X49061666Y-23375952D01*
X49061666Y-23518809D01*
X49109285Y-23709285D01*
X49156904Y-23804523D01*
X49252142Y-23899761D01*
X49395000Y-23947380D01*
X49633095Y-23947380D01*
X48680714Y-23042619D02*
X48633095Y-22995000D01*
X48537857Y-22947380D01*
X48299761Y-22947380D01*
X48204523Y-22995000D01*
X48156904Y-23042619D01*
X48109285Y-23137857D01*
X48109285Y-23233095D01*
X48156904Y-23375952D01*
X48728333Y-23947380D01*
X48109285Y-23947380D01*
G04 #@! TO.C,D3*
X49633095Y-26487380D02*
X49633095Y-25487380D01*
X49395000Y-25487380D01*
X49252142Y-25535000D01*
X49156904Y-25630238D01*
X49109285Y-25725476D01*
X49061666Y-25915952D01*
X49061666Y-26058809D01*
X49109285Y-26249285D01*
X49156904Y-26344523D01*
X49252142Y-26439761D01*
X49395000Y-26487380D01*
X49633095Y-26487380D01*
X48728333Y-25487380D02*
X48109285Y-25487380D01*
X48442619Y-25868333D01*
X48299761Y-25868333D01*
X48204523Y-25915952D01*
X48156904Y-25963571D01*
X48109285Y-26058809D01*
X48109285Y-26296904D01*
X48156904Y-26392142D01*
X48204523Y-26439761D01*
X48299761Y-26487380D01*
X48585476Y-26487380D01*
X48680714Y-26439761D01*
X48728333Y-26392142D01*
G04 #@! TO.C,D5*
X57889380Y-105961904D02*
X56889380Y-105961904D01*
X56889380Y-106200000D01*
X56937000Y-106342857D01*
X57032238Y-106438095D01*
X57127476Y-106485714D01*
X57317952Y-106533333D01*
X57460809Y-106533333D01*
X57651285Y-106485714D01*
X57746523Y-106438095D01*
X57841761Y-106342857D01*
X57889380Y-106200000D01*
X57889380Y-105961904D01*
X56889380Y-107438095D02*
X56889380Y-106961904D01*
X57365571Y-106914285D01*
X57317952Y-106961904D01*
X57270333Y-107057142D01*
X57270333Y-107295238D01*
X57317952Y-107390476D01*
X57365571Y-107438095D01*
X57460809Y-107485714D01*
X57698904Y-107485714D01*
X57794142Y-107438095D01*
X57841761Y-107390476D01*
X57889380Y-107295238D01*
X57889380Y-107057142D01*
X57841761Y-106961904D01*
X57794142Y-106914285D01*
G04 #@! TO.C,L1*
X59221666Y-23947380D02*
X59697857Y-23947380D01*
X59697857Y-22947380D01*
X58364523Y-23947380D02*
X58935952Y-23947380D01*
X58650238Y-23947380D02*
X58650238Y-22947380D01*
X58745476Y-23090238D01*
X58840714Y-23185476D01*
X58935952Y-23233095D01*
G04 #@! TO.C,Q1*
X38830238Y-47497619D02*
X38925476Y-47450000D01*
X39020714Y-47354761D01*
X39163571Y-47211904D01*
X39258809Y-47164285D01*
X39354047Y-47164285D01*
X39306428Y-47402380D02*
X39401666Y-47354761D01*
X39496904Y-47259523D01*
X39544523Y-47069047D01*
X39544523Y-46735714D01*
X39496904Y-46545238D01*
X39401666Y-46450000D01*
X39306428Y-46402380D01*
X39115952Y-46402380D01*
X39020714Y-46450000D01*
X38925476Y-46545238D01*
X38877857Y-46735714D01*
X38877857Y-47069047D01*
X38925476Y-47259523D01*
X39020714Y-47354761D01*
X39115952Y-47402380D01*
X39306428Y-47402380D01*
X37925476Y-47402380D02*
X38496904Y-47402380D01*
X38211190Y-47402380D02*
X38211190Y-46402380D01*
X38306428Y-46545238D01*
X38401666Y-46640476D01*
X38496904Y-46688095D01*
G04 #@! TO.C,Q2*
X45815238Y-102147619D02*
X45910476Y-102100000D01*
X46005714Y-102004761D01*
X46148571Y-101861904D01*
X46243809Y-101814285D01*
X46339047Y-101814285D01*
X46291428Y-102052380D02*
X46386666Y-102004761D01*
X46481904Y-101909523D01*
X46529523Y-101719047D01*
X46529523Y-101385714D01*
X46481904Y-101195238D01*
X46386666Y-101100000D01*
X46291428Y-101052380D01*
X46100952Y-101052380D01*
X46005714Y-101100000D01*
X45910476Y-101195238D01*
X45862857Y-101385714D01*
X45862857Y-101719047D01*
X45910476Y-101909523D01*
X46005714Y-102004761D01*
X46100952Y-102052380D01*
X46291428Y-102052380D01*
X45481904Y-101147619D02*
X45434285Y-101100000D01*
X45339047Y-101052380D01*
X45100952Y-101052380D01*
X45005714Y-101100000D01*
X44958095Y-101147619D01*
X44910476Y-101242857D01*
X44910476Y-101338095D01*
X44958095Y-101480952D01*
X45529523Y-102052380D01*
X44910476Y-102052380D01*
G04 #@! TO.C,Q3*
X48990238Y-102147619D02*
X49085476Y-102100000D01*
X49180714Y-102004761D01*
X49323571Y-101861904D01*
X49418809Y-101814285D01*
X49514047Y-101814285D01*
X49466428Y-102052380D02*
X49561666Y-102004761D01*
X49656904Y-101909523D01*
X49704523Y-101719047D01*
X49704523Y-101385714D01*
X49656904Y-101195238D01*
X49561666Y-101100000D01*
X49466428Y-101052380D01*
X49275952Y-101052380D01*
X49180714Y-101100000D01*
X49085476Y-101195238D01*
X49037857Y-101385714D01*
X49037857Y-101719047D01*
X49085476Y-101909523D01*
X49180714Y-102004761D01*
X49275952Y-102052380D01*
X49466428Y-102052380D01*
X48704523Y-101052380D02*
X48085476Y-101052380D01*
X48418809Y-101433333D01*
X48275952Y-101433333D01*
X48180714Y-101480952D01*
X48133095Y-101528571D01*
X48085476Y-101623809D01*
X48085476Y-101861904D01*
X48133095Y-101957142D01*
X48180714Y-102004761D01*
X48275952Y-102052380D01*
X48561666Y-102052380D01*
X48656904Y-102004761D01*
X48704523Y-101957142D01*
G04 #@! TO.C,Q4*
X42005238Y-102147619D02*
X42100476Y-102100000D01*
X42195714Y-102004761D01*
X42338571Y-101861904D01*
X42433809Y-101814285D01*
X42529047Y-101814285D01*
X42481428Y-102052380D02*
X42576666Y-102004761D01*
X42671904Y-101909523D01*
X42719523Y-101719047D01*
X42719523Y-101385714D01*
X42671904Y-101195238D01*
X42576666Y-101100000D01*
X42481428Y-101052380D01*
X42290952Y-101052380D01*
X42195714Y-101100000D01*
X42100476Y-101195238D01*
X42052857Y-101385714D01*
X42052857Y-101719047D01*
X42100476Y-101909523D01*
X42195714Y-102004761D01*
X42290952Y-102052380D01*
X42481428Y-102052380D01*
X41195714Y-101385714D02*
X41195714Y-102052380D01*
X41433809Y-101004761D02*
X41671904Y-101719047D01*
X41052857Y-101719047D01*
G04 #@! TO.C,Q5*
X38891238Y-98481619D02*
X38986476Y-98434000D01*
X39081714Y-98338761D01*
X39224571Y-98195904D01*
X39319809Y-98148285D01*
X39415047Y-98148285D01*
X39367428Y-98386380D02*
X39462666Y-98338761D01*
X39557904Y-98243523D01*
X39605523Y-98053047D01*
X39605523Y-97719714D01*
X39557904Y-97529238D01*
X39462666Y-97434000D01*
X39367428Y-97386380D01*
X39176952Y-97386380D01*
X39081714Y-97434000D01*
X38986476Y-97529238D01*
X38938857Y-97719714D01*
X38938857Y-98053047D01*
X38986476Y-98243523D01*
X39081714Y-98338761D01*
X39176952Y-98386380D01*
X39367428Y-98386380D01*
X38034095Y-97386380D02*
X38510285Y-97386380D01*
X38557904Y-97862571D01*
X38510285Y-97814952D01*
X38415047Y-97767333D01*
X38176952Y-97767333D01*
X38081714Y-97814952D01*
X38034095Y-97862571D01*
X37986476Y-97957809D01*
X37986476Y-98195904D01*
X38034095Y-98291142D01*
X38081714Y-98338761D01*
X38176952Y-98386380D01*
X38415047Y-98386380D01*
X38510285Y-98338761D01*
X38557904Y-98291142D01*
G04 #@! TO.C,R1*
X73572666Y-26868380D02*
X73906000Y-26392190D01*
X74144095Y-26868380D02*
X74144095Y-25868380D01*
X73763142Y-25868380D01*
X73667904Y-25916000D01*
X73620285Y-25963619D01*
X73572666Y-26058857D01*
X73572666Y-26201714D01*
X73620285Y-26296952D01*
X73667904Y-26344571D01*
X73763142Y-26392190D01*
X74144095Y-26392190D01*
X72620285Y-26868380D02*
X73191714Y-26868380D01*
X72906000Y-26868380D02*
X72906000Y-25868380D01*
X73001238Y-26011238D01*
X73096476Y-26106476D01*
X73191714Y-26154095D01*
G04 #@! TO.C,R2*
X69635666Y-26995380D02*
X69969000Y-26519190D01*
X70207095Y-26995380D02*
X70207095Y-25995380D01*
X69826142Y-25995380D01*
X69730904Y-26043000D01*
X69683285Y-26090619D01*
X69635666Y-26185857D01*
X69635666Y-26328714D01*
X69683285Y-26423952D01*
X69730904Y-26471571D01*
X69826142Y-26519190D01*
X70207095Y-26519190D01*
X69254714Y-26090619D02*
X69207095Y-26043000D01*
X69111857Y-25995380D01*
X68873761Y-25995380D01*
X68778523Y-26043000D01*
X68730904Y-26090619D01*
X68683285Y-26185857D01*
X68683285Y-26281095D01*
X68730904Y-26423952D01*
X69302333Y-26995380D01*
X68683285Y-26995380D01*
G04 #@! TO.C,R3*
X75990380Y-23709333D02*
X75514190Y-23376000D01*
X75990380Y-23137904D02*
X74990380Y-23137904D01*
X74990380Y-23518857D01*
X75038000Y-23614095D01*
X75085619Y-23661714D01*
X75180857Y-23709333D01*
X75323714Y-23709333D01*
X75418952Y-23661714D01*
X75466571Y-23614095D01*
X75514190Y-23518857D01*
X75514190Y-23137904D01*
X74990380Y-24042666D02*
X74990380Y-24661714D01*
X75371333Y-24328380D01*
X75371333Y-24471238D01*
X75418952Y-24566476D01*
X75466571Y-24614095D01*
X75561809Y-24661714D01*
X75799904Y-24661714D01*
X75895142Y-24614095D01*
X75942761Y-24566476D01*
X75990380Y-24471238D01*
X75990380Y-24185523D01*
X75942761Y-24090285D01*
X75895142Y-24042666D01*
G04 #@! TO.C,R4*
X76017380Y-25868333D02*
X75541190Y-25535000D01*
X76017380Y-25296904D02*
X75017380Y-25296904D01*
X75017380Y-25677857D01*
X75065000Y-25773095D01*
X75112619Y-25820714D01*
X75207857Y-25868333D01*
X75350714Y-25868333D01*
X75445952Y-25820714D01*
X75493571Y-25773095D01*
X75541190Y-25677857D01*
X75541190Y-25296904D01*
X75350714Y-26725476D02*
X76017380Y-26725476D01*
X74969761Y-26487380D02*
X75684047Y-26249285D01*
X75684047Y-26868333D01*
G04 #@! TO.C,R5*
X76017380Y-21423333D02*
X75541190Y-21090000D01*
X76017380Y-20851904D02*
X75017380Y-20851904D01*
X75017380Y-21232857D01*
X75065000Y-21328095D01*
X75112619Y-21375714D01*
X75207857Y-21423333D01*
X75350714Y-21423333D01*
X75445952Y-21375714D01*
X75493571Y-21328095D01*
X75541190Y-21232857D01*
X75541190Y-20851904D01*
X75017380Y-22328095D02*
X75017380Y-21851904D01*
X75493571Y-21804285D01*
X75445952Y-21851904D01*
X75398333Y-21947142D01*
X75398333Y-22185238D01*
X75445952Y-22280476D01*
X75493571Y-22328095D01*
X75588809Y-22375714D01*
X75826904Y-22375714D01*
X75922142Y-22328095D01*
X75969761Y-22280476D01*
X76017380Y-22185238D01*
X76017380Y-21947142D01*
X75969761Y-21851904D01*
X75922142Y-21804285D01*
G04 #@! TO.C,R6*
X76906380Y-44791333D02*
X76430190Y-44458000D01*
X76906380Y-44219904D02*
X75906380Y-44219904D01*
X75906380Y-44600857D01*
X75954000Y-44696095D01*
X76001619Y-44743714D01*
X76096857Y-44791333D01*
X76239714Y-44791333D01*
X76334952Y-44743714D01*
X76382571Y-44696095D01*
X76430190Y-44600857D01*
X76430190Y-44219904D01*
X75906380Y-45648476D02*
X75906380Y-45458000D01*
X75954000Y-45362761D01*
X76001619Y-45315142D01*
X76144476Y-45219904D01*
X76334952Y-45172285D01*
X76715904Y-45172285D01*
X76811142Y-45219904D01*
X76858761Y-45267523D01*
X76906380Y-45362761D01*
X76906380Y-45553238D01*
X76858761Y-45648476D01*
X76811142Y-45696095D01*
X76715904Y-45743714D01*
X76477809Y-45743714D01*
X76382571Y-45696095D01*
X76334952Y-45648476D01*
X76287333Y-45553238D01*
X76287333Y-45362761D01*
X76334952Y-45267523D01*
X76382571Y-45219904D01*
X76477809Y-45172285D01*
G04 #@! TO.C,R7*
X73477380Y-21423333D02*
X73001190Y-21090000D01*
X73477380Y-20851904D02*
X72477380Y-20851904D01*
X72477380Y-21232857D01*
X72525000Y-21328095D01*
X72572619Y-21375714D01*
X72667857Y-21423333D01*
X72810714Y-21423333D01*
X72905952Y-21375714D01*
X72953571Y-21328095D01*
X73001190Y-21232857D01*
X73001190Y-20851904D01*
X72477380Y-21756666D02*
X72477380Y-22423333D01*
X73477380Y-21994761D01*
G04 #@! TO.C,R8*
X45062380Y-43394333D02*
X44586190Y-43061000D01*
X45062380Y-42822904D02*
X44062380Y-42822904D01*
X44062380Y-43203857D01*
X44110000Y-43299095D01*
X44157619Y-43346714D01*
X44252857Y-43394333D01*
X44395714Y-43394333D01*
X44490952Y-43346714D01*
X44538571Y-43299095D01*
X44586190Y-43203857D01*
X44586190Y-42822904D01*
X44490952Y-43965761D02*
X44443333Y-43870523D01*
X44395714Y-43822904D01*
X44300476Y-43775285D01*
X44252857Y-43775285D01*
X44157619Y-43822904D01*
X44110000Y-43870523D01*
X44062380Y-43965761D01*
X44062380Y-44156238D01*
X44110000Y-44251476D01*
X44157619Y-44299095D01*
X44252857Y-44346714D01*
X44300476Y-44346714D01*
X44395714Y-44299095D01*
X44443333Y-44251476D01*
X44490952Y-44156238D01*
X44490952Y-43965761D01*
X44538571Y-43870523D01*
X44586190Y-43822904D01*
X44681428Y-43775285D01*
X44871904Y-43775285D01*
X44967142Y-43822904D01*
X45014761Y-43870523D01*
X45062380Y-43965761D01*
X45062380Y-44156238D01*
X45014761Y-44251476D01*
X44967142Y-44299095D01*
X44871904Y-44346714D01*
X44681428Y-44346714D01*
X44586190Y-44299095D01*
X44538571Y-44251476D01*
X44490952Y-44156238D01*
G04 #@! TO.C,R9*
X27597380Y-113371333D02*
X27121190Y-113038000D01*
X27597380Y-112799904D02*
X26597380Y-112799904D01*
X26597380Y-113180857D01*
X26645000Y-113276095D01*
X26692619Y-113323714D01*
X26787857Y-113371333D01*
X26930714Y-113371333D01*
X27025952Y-113323714D01*
X27073571Y-113276095D01*
X27121190Y-113180857D01*
X27121190Y-112799904D01*
X27597380Y-113847523D02*
X27597380Y-114038000D01*
X27549761Y-114133238D01*
X27502142Y-114180857D01*
X27359285Y-114276095D01*
X27168809Y-114323714D01*
X26787857Y-114323714D01*
X26692619Y-114276095D01*
X26645000Y-114228476D01*
X26597380Y-114133238D01*
X26597380Y-113942761D01*
X26645000Y-113847523D01*
X26692619Y-113799904D01*
X26787857Y-113752285D01*
X27025952Y-113752285D01*
X27121190Y-113799904D01*
X27168809Y-113847523D01*
X27216428Y-113942761D01*
X27216428Y-114133238D01*
X27168809Y-114228476D01*
X27121190Y-114276095D01*
X27025952Y-114323714D01*
G04 #@! TO.C,R10*
X27503380Y-109466142D02*
X27027190Y-109132809D01*
X27503380Y-108894714D02*
X26503380Y-108894714D01*
X26503380Y-109275666D01*
X26551000Y-109370904D01*
X26598619Y-109418523D01*
X26693857Y-109466142D01*
X26836714Y-109466142D01*
X26931952Y-109418523D01*
X26979571Y-109370904D01*
X27027190Y-109275666D01*
X27027190Y-108894714D01*
X27503380Y-110418523D02*
X27503380Y-109847095D01*
X27503380Y-110132809D02*
X26503380Y-110132809D01*
X26646238Y-110037571D01*
X26741476Y-109942333D01*
X26789095Y-109847095D01*
X26503380Y-111037571D02*
X26503380Y-111132809D01*
X26551000Y-111228047D01*
X26598619Y-111275666D01*
X26693857Y-111323285D01*
X26884333Y-111370904D01*
X27122428Y-111370904D01*
X27312904Y-111323285D01*
X27408142Y-111275666D01*
X27455761Y-111228047D01*
X27503380Y-111132809D01*
X27503380Y-111037571D01*
X27455761Y-110942333D01*
X27408142Y-110894714D01*
X27312904Y-110847095D01*
X27122428Y-110799476D01*
X26884333Y-110799476D01*
X26693857Y-110847095D01*
X26598619Y-110894714D01*
X26551000Y-110942333D01*
X26503380Y-111037571D01*
G04 #@! TO.C,R11*
X53792380Y-103497142D02*
X53316190Y-103163809D01*
X53792380Y-102925714D02*
X52792380Y-102925714D01*
X52792380Y-103306666D01*
X52840000Y-103401904D01*
X52887619Y-103449523D01*
X52982857Y-103497142D01*
X53125714Y-103497142D01*
X53220952Y-103449523D01*
X53268571Y-103401904D01*
X53316190Y-103306666D01*
X53316190Y-102925714D01*
X53792380Y-104449523D02*
X53792380Y-103878095D01*
X53792380Y-104163809D02*
X52792380Y-104163809D01*
X52935238Y-104068571D01*
X53030476Y-103973333D01*
X53078095Y-103878095D01*
X53792380Y-105401904D02*
X53792380Y-104830476D01*
X53792380Y-105116190D02*
X52792380Y-105116190D01*
X52935238Y-105020952D01*
X53030476Y-104925714D01*
X53078095Y-104830476D01*
G04 #@! TO.C,R12*
X55697380Y-102862142D02*
X55221190Y-102528809D01*
X55697380Y-102290714D02*
X54697380Y-102290714D01*
X54697380Y-102671666D01*
X54745000Y-102766904D01*
X54792619Y-102814523D01*
X54887857Y-102862142D01*
X55030714Y-102862142D01*
X55125952Y-102814523D01*
X55173571Y-102766904D01*
X55221190Y-102671666D01*
X55221190Y-102290714D01*
X55697380Y-103814523D02*
X55697380Y-103243095D01*
X55697380Y-103528809D02*
X54697380Y-103528809D01*
X54840238Y-103433571D01*
X54935476Y-103338333D01*
X54983095Y-103243095D01*
X54792619Y-104195476D02*
X54745000Y-104243095D01*
X54697380Y-104338333D01*
X54697380Y-104576428D01*
X54745000Y-104671666D01*
X54792619Y-104719285D01*
X54887857Y-104766904D01*
X54983095Y-104766904D01*
X55125952Y-104719285D01*
X55697380Y-104147857D01*
X55697380Y-104766904D01*
G04 #@! TO.C,R13*
X51887380Y-103497142D02*
X51411190Y-103163809D01*
X51887380Y-102925714D02*
X50887380Y-102925714D01*
X50887380Y-103306666D01*
X50935000Y-103401904D01*
X50982619Y-103449523D01*
X51077857Y-103497142D01*
X51220714Y-103497142D01*
X51315952Y-103449523D01*
X51363571Y-103401904D01*
X51411190Y-103306666D01*
X51411190Y-102925714D01*
X51887380Y-104449523D02*
X51887380Y-103878095D01*
X51887380Y-104163809D02*
X50887380Y-104163809D01*
X51030238Y-104068571D01*
X51125476Y-103973333D01*
X51173095Y-103878095D01*
X50887380Y-104782857D02*
X50887380Y-105401904D01*
X51268333Y-105068571D01*
X51268333Y-105211428D01*
X51315952Y-105306666D01*
X51363571Y-105354285D01*
X51458809Y-105401904D01*
X51696904Y-105401904D01*
X51792142Y-105354285D01*
X51839761Y-105306666D01*
X51887380Y-105211428D01*
X51887380Y-104925714D01*
X51839761Y-104830476D01*
X51792142Y-104782857D01*
G04 #@! TO.C,R14*
X53347857Y-109122380D02*
X53681190Y-108646190D01*
X53919285Y-109122380D02*
X53919285Y-108122380D01*
X53538333Y-108122380D01*
X53443095Y-108170000D01*
X53395476Y-108217619D01*
X53347857Y-108312857D01*
X53347857Y-108455714D01*
X53395476Y-108550952D01*
X53443095Y-108598571D01*
X53538333Y-108646190D01*
X53919285Y-108646190D01*
X52395476Y-109122380D02*
X52966904Y-109122380D01*
X52681190Y-109122380D02*
X52681190Y-108122380D01*
X52776428Y-108265238D01*
X52871666Y-108360476D01*
X52966904Y-108408095D01*
X51538333Y-108455714D02*
X51538333Y-109122380D01*
X51776428Y-108074761D02*
X52014523Y-108789047D01*
X51395476Y-108789047D01*
G04 #@! TO.C,R15*
X39822380Y-105783142D02*
X39346190Y-105449809D01*
X39822380Y-105211714D02*
X38822380Y-105211714D01*
X38822380Y-105592666D01*
X38870000Y-105687904D01*
X38917619Y-105735523D01*
X39012857Y-105783142D01*
X39155714Y-105783142D01*
X39250952Y-105735523D01*
X39298571Y-105687904D01*
X39346190Y-105592666D01*
X39346190Y-105211714D01*
X39822380Y-106735523D02*
X39822380Y-106164095D01*
X39822380Y-106449809D02*
X38822380Y-106449809D01*
X38965238Y-106354571D01*
X39060476Y-106259333D01*
X39108095Y-106164095D01*
X38822380Y-107640285D02*
X38822380Y-107164095D01*
X39298571Y-107116476D01*
X39250952Y-107164095D01*
X39203333Y-107259333D01*
X39203333Y-107497428D01*
X39250952Y-107592666D01*
X39298571Y-107640285D01*
X39393809Y-107687904D01*
X39631904Y-107687904D01*
X39727142Y-107640285D01*
X39774761Y-107592666D01*
X39822380Y-107497428D01*
X39822380Y-107259333D01*
X39774761Y-107164095D01*
X39727142Y-107116476D01*
G04 #@! TO.C,R17*
X46870857Y-98327380D02*
X47204190Y-97851190D01*
X47442285Y-98327380D02*
X47442285Y-97327380D01*
X47061333Y-97327380D01*
X46966095Y-97375000D01*
X46918476Y-97422619D01*
X46870857Y-97517857D01*
X46870857Y-97660714D01*
X46918476Y-97755952D01*
X46966095Y-97803571D01*
X47061333Y-97851190D01*
X47442285Y-97851190D01*
X45918476Y-98327380D02*
X46489904Y-98327380D01*
X46204190Y-98327380D02*
X46204190Y-97327380D01*
X46299428Y-97470238D01*
X46394666Y-97565476D01*
X46489904Y-97613095D01*
X45585142Y-97327380D02*
X44918476Y-97327380D01*
X45347047Y-98327380D01*
G04 #@! TO.C,R18*
X53347857Y-99724380D02*
X53681190Y-99248190D01*
X53919285Y-99724380D02*
X53919285Y-98724380D01*
X53538333Y-98724380D01*
X53443095Y-98772000D01*
X53395476Y-98819619D01*
X53347857Y-98914857D01*
X53347857Y-99057714D01*
X53395476Y-99152952D01*
X53443095Y-99200571D01*
X53538333Y-99248190D01*
X53919285Y-99248190D01*
X52395476Y-99724380D02*
X52966904Y-99724380D01*
X52681190Y-99724380D02*
X52681190Y-98724380D01*
X52776428Y-98867238D01*
X52871666Y-98962476D01*
X52966904Y-99010095D01*
X51824047Y-99152952D02*
X51919285Y-99105333D01*
X51966904Y-99057714D01*
X52014523Y-98962476D01*
X52014523Y-98914857D01*
X51966904Y-98819619D01*
X51919285Y-98772000D01*
X51824047Y-98724380D01*
X51633571Y-98724380D01*
X51538333Y-98772000D01*
X51490714Y-98819619D01*
X51443095Y-98914857D01*
X51443095Y-98962476D01*
X51490714Y-99057714D01*
X51538333Y-99105333D01*
X51633571Y-99152952D01*
X51824047Y-99152952D01*
X51919285Y-99200571D01*
X51966904Y-99248190D01*
X52014523Y-99343428D01*
X52014523Y-99533904D01*
X51966904Y-99629142D01*
X51919285Y-99676761D01*
X51824047Y-99724380D01*
X51633571Y-99724380D01*
X51538333Y-99676761D01*
X51490714Y-99629142D01*
X51443095Y-99533904D01*
X51443095Y-99343428D01*
X51490714Y-99248190D01*
X51538333Y-99200571D01*
X51633571Y-99152952D01*
G04 #@! TO.C,U1*
X98951904Y-27212380D02*
X98951904Y-28021904D01*
X98904285Y-28117142D01*
X98856666Y-28164761D01*
X98761428Y-28212380D01*
X98570952Y-28212380D01*
X98475714Y-28164761D01*
X98428095Y-28117142D01*
X98380476Y-28021904D01*
X98380476Y-27212380D01*
X97380476Y-28212380D02*
X97951904Y-28212380D01*
X97666190Y-28212380D02*
X97666190Y-27212380D01*
X97761428Y-27355238D01*
X97856666Y-27450476D01*
X97951904Y-27498095D01*
G04 #@! TO.C,U2*
X34267380Y-34163095D02*
X35076904Y-34163095D01*
X35172142Y-34210714D01*
X35219761Y-34258333D01*
X35267380Y-34353571D01*
X35267380Y-34544047D01*
X35219761Y-34639285D01*
X35172142Y-34686904D01*
X35076904Y-34734523D01*
X34267380Y-34734523D01*
X34362619Y-35163095D02*
X34315000Y-35210714D01*
X34267380Y-35305952D01*
X34267380Y-35544047D01*
X34315000Y-35639285D01*
X34362619Y-35686904D01*
X34457857Y-35734523D01*
X34553095Y-35734523D01*
X34695952Y-35686904D01*
X35267380Y-35115476D01*
X35267380Y-35734523D01*
G04 #@! TO.C,U3*
X72262904Y-28464380D02*
X72262904Y-29273904D01*
X72215285Y-29369142D01*
X72167666Y-29416761D01*
X72072428Y-29464380D01*
X71881952Y-29464380D01*
X71786714Y-29416761D01*
X71739095Y-29369142D01*
X71691476Y-29273904D01*
X71691476Y-28464380D01*
X71310523Y-28464380D02*
X70691476Y-28464380D01*
X71024809Y-28845333D01*
X70881952Y-28845333D01*
X70786714Y-28892952D01*
X70739095Y-28940571D01*
X70691476Y-29035809D01*
X70691476Y-29273904D01*
X70739095Y-29369142D01*
X70786714Y-29416761D01*
X70881952Y-29464380D01*
X71167666Y-29464380D01*
X71262904Y-29416761D01*
X71310523Y-29369142D01*
G04 #@! TO.C,U4*
X70572380Y-43180095D02*
X71381904Y-43180095D01*
X71477142Y-43227714D01*
X71524761Y-43275333D01*
X71572380Y-43370571D01*
X71572380Y-43561047D01*
X71524761Y-43656285D01*
X71477142Y-43703904D01*
X71381904Y-43751523D01*
X70572380Y-43751523D01*
X70905714Y-44656285D02*
X71572380Y-44656285D01*
X70524761Y-44418190D02*
X71239047Y-44180095D01*
X71239047Y-44799142D01*
G04 #@! TO.C,U5*
X43941904Y-108047380D02*
X43941904Y-108856904D01*
X43894285Y-108952142D01*
X43846666Y-108999761D01*
X43751428Y-109047380D01*
X43560952Y-109047380D01*
X43465714Y-108999761D01*
X43418095Y-108952142D01*
X43370476Y-108856904D01*
X43370476Y-108047380D01*
X42418095Y-108047380D02*
X42894285Y-108047380D01*
X42941904Y-108523571D01*
X42894285Y-108475952D01*
X42799047Y-108428333D01*
X42560952Y-108428333D01*
X42465714Y-108475952D01*
X42418095Y-108523571D01*
X42370476Y-108618809D01*
X42370476Y-108856904D01*
X42418095Y-108952142D01*
X42465714Y-108999761D01*
X42560952Y-109047380D01*
X42799047Y-109047380D01*
X42894285Y-108999761D01*
X42941904Y-108952142D01*
G04 #@! TO.C,U6*
X55371904Y-110852380D02*
X55371904Y-111661904D01*
X55324285Y-111757142D01*
X55276666Y-111804761D01*
X55181428Y-111852380D01*
X54990952Y-111852380D01*
X54895714Y-111804761D01*
X54848095Y-111757142D01*
X54800476Y-111661904D01*
X54800476Y-110852380D01*
X53895714Y-110852380D02*
X54086190Y-110852380D01*
X54181428Y-110900000D01*
X54229047Y-110947619D01*
X54324285Y-111090476D01*
X54371904Y-111280952D01*
X54371904Y-111661904D01*
X54324285Y-111757142D01*
X54276666Y-111804761D01*
X54181428Y-111852380D01*
X53990952Y-111852380D01*
X53895714Y-111804761D01*
X53848095Y-111757142D01*
X53800476Y-111661904D01*
X53800476Y-111423809D01*
X53848095Y-111328571D01*
X53895714Y-111280952D01*
X53990952Y-111233333D01*
X54181428Y-111233333D01*
X54276666Y-111280952D01*
X54324285Y-111328571D01*
X54371904Y-111423809D01*
G04 #@! TD*
M02*
