M48
;DRILL file {KiCad 5.0.2-bee76a0~70~ubuntu18.04.1} date Fri 18 Jan 2019 14:13:09 GMT
;FORMAT={-:-/ absolute / inch / decimal}
FMAT,2
INCH,TZ
T1C0.0157
T2C0.0197
T3C0.0394
T4C0.1575
%
G90
G05
T1
X1.1535Y-1.4
X1.2Y-4.325
X1.2Y-4.385
X1.2Y-4.5015
X1.2Y-4.575
X1.21Y-4.45
X1.215Y-3.835
X1.225Y-1.35
X1.225Y-1.475
X1.35Y-1.4
X1.3942Y-1.3896
X1.415Y-4.475
X1.424Y-4.3533
X1.425Y-0.975
X1.425Y-1.125
X1.425Y-1.3535
X1.4309Y-1.435
X1.445Y-4.3866
X1.473Y-4.5156
X1.485Y-4.015
X1.49Y-3.865
X1.5134Y-4.1915
X1.5416Y-4.1641
X1.5578Y-4.2826
X1.5601Y-4.3219
X1.5856Y-4.2548
X1.615Y-4.2285
X1.6173Y-3.9876
X1.625Y-0.975
X1.625Y-1.125
X1.625Y-1.475
X1.635Y-1.615
X1.66Y-4.2665
X1.675Y-3.935
X1.705Y-4.0135
X1.7398Y-4.5802
X1.74Y-4.255
X1.76Y-1.615
X1.8Y-3.34
X1.8Y-4.15
X1.815Y-4.015
X1.84Y-4.42
X1.8429Y-4.1929
X1.8524Y-4.5152
X1.86Y-4.46
X1.885Y-4.54
X1.9Y-3.45
X1.92Y-2.9
X1.925Y-3.985
X1.93Y-3.35
X1.955Y-3.91
X1.9591Y-4.2991
X2.045Y-4.265
X2.125Y-0.925
X2.2Y-4.35
X2.22Y-4.59
X2.23Y-3.975
X2.235Y-4.12
X2.275Y-4.45
X2.295Y-1.615
X2.3Y-4.31
X2.315Y-4.43
X2.35Y-4.455
X2.4Y-4.5969
X2.435Y-4.34
X2.4691Y-4.5234
X2.485Y-1.42
X2.61Y-3.12
X2.625Y-1.61
X2.645Y-1.3
X2.645Y-1.42
X2.76Y-1.6843
X2.81Y-1.615
X2.85Y-1.425
X2.915Y-0.925
X2.96Y-1.61
X2.96Y-2.21
X3.005Y-1.64
X3.01Y-1.21
X3.01Y-1.355
X3.025Y-1.575
X3.05Y-1.5285
X3.07Y-0.885
X3.075Y-0.835
X3.08Y-0.96
X3.12Y-0.825
X3.25Y-1.425
X3.26Y-1.93
X3.295Y-1.42
X3.32Y-1.88
X3.345Y-1.44
X3.37Y-1.905
X3.38Y-1.68
X3.39Y-2.01
X3.39Y-3.
X3.42Y-1.95
X3.53Y-1.855
X3.56Y-3.75
X3.5815Y-1.95
X3.59Y-3.28
X3.6Y-1.5035
X3.6315Y-2.
X3.65Y-1.475
X3.65Y-1.625
X3.655Y-1.69
X1.2935Y-4.3305
X1.2935Y-4.362
X1.2935Y-4.3935
X1.2935Y-4.4565
X1.2935Y-4.488
X1.2935Y-4.5195
X1.3211Y-4.3148
X1.3211Y-4.3778
X1.3211Y-4.4093
X1.3211Y-4.4407
X1.3211Y-4.4722
X1.3211Y-4.5352
T3
X3.55Y-4.4016
X3.55Y-4.5
T4
X3.75Y-4.1
X3.75Y-3.44
X3.75Y-3.
X3.75Y-3.88
X3.75Y-3.66
X3.75Y-3.22
T2
X1.075Y-4.2482G85X1.0514Y-4.2482
G05
X1.075Y-4.6018G85X1.0514Y-4.6018
G05
X1.3093Y-4.2624G85X1.2856Y-4.2624
G05
X1.3093Y-4.5876G85X1.2856Y-4.5876
G05
T0
M30
