G04 #@! TF.GenerationSoftware,KiCad,Pcbnew,5.0.2-bee76a0~70~ubuntu18.04.1*
G04 #@! TF.CreationDate,2019-01-18T14:13:04+00:00*
G04 #@! TF.ProjectId,badge,62616467-652e-46b6-9963-61645f706362,rev?*
G04 #@! TF.SameCoordinates,Original*
G04 #@! TF.FileFunction,Soldermask,Top*
G04 #@! TF.FilePolarity,Negative*
%FSLAX46Y46*%
G04 Gerber Fmt 4.6, Leading zero omitted, Abs format (unit mm)*
G04 Created by KiCad (PCBNEW 5.0.2-bee76a0~70~ubuntu18.04.1) date Fri 18 Jan 2019 14:13:04 GMT*
%MOMM*%
%LPD*%
G01*
G04 APERTURE LIST*
%ADD10C,0.010000*%
%ADD11C,0.100000*%
G04 APERTURE END LIST*
D10*
G04 #@! TO.C,G\002A\002A\002A*
G36*
X81353277Y-83525250D02*
X81634384Y-83562852D01*
X81884554Y-83621456D01*
X82059656Y-83694815D01*
X82078959Y-83708442D01*
X82175537Y-83802880D01*
X82218458Y-83915920D01*
X82222772Y-84095204D01*
X82219699Y-84153973D01*
X82193441Y-84367802D01*
X82134135Y-84500754D01*
X82042000Y-84585279D01*
X81864946Y-84659766D01*
X81600069Y-84710904D01*
X81285176Y-84733935D01*
X80958074Y-84724103D01*
X80946625Y-84723083D01*
X80708500Y-84701333D01*
X80708500Y-84140550D01*
X80710026Y-83872541D01*
X80719489Y-83704983D01*
X80744216Y-83611330D01*
X80791534Y-83565034D01*
X80868769Y-83539547D01*
X80874789Y-83538031D01*
X81085367Y-83514894D01*
X81353277Y-83525250D01*
X81353277Y-83525250D01*
G37*
X81353277Y-83525250D02*
X81634384Y-83562852D01*
X81884554Y-83621456D01*
X82059656Y-83694815D01*
X82078959Y-83708442D01*
X82175537Y-83802880D01*
X82218458Y-83915920D01*
X82222772Y-84095204D01*
X82219699Y-84153973D01*
X82193441Y-84367802D01*
X82134135Y-84500754D01*
X82042000Y-84585279D01*
X81864946Y-84659766D01*
X81600069Y-84710904D01*
X81285176Y-84733935D01*
X80958074Y-84724103D01*
X80946625Y-84723083D01*
X80708500Y-84701333D01*
X80708500Y-84140550D01*
X80710026Y-83872541D01*
X80719489Y-83704983D01*
X80744216Y-83611330D01*
X80791534Y-83565034D01*
X80868769Y-83539547D01*
X80874789Y-83538031D01*
X81085367Y-83514894D01*
X81353277Y-83525250D01*
G36*
X81253363Y-85045424D02*
X81509512Y-85060984D01*
X81518952Y-85061857D01*
X81873498Y-85116026D01*
X82119221Y-85209433D01*
X82271506Y-85354835D01*
X82345738Y-85564990D01*
X82359500Y-85758853D01*
X82323894Y-86068117D01*
X82208663Y-86284503D01*
X82001186Y-86422468D01*
X81719146Y-86492398D01*
X81351049Y-86530257D01*
X81037090Y-86534537D01*
X80819625Y-86506727D01*
X80770054Y-86479468D01*
X80737661Y-86413647D01*
X80718943Y-86286686D01*
X80710394Y-86076006D01*
X80708500Y-85790727D01*
X80708500Y-85103767D01*
X80879458Y-85060860D01*
X81027364Y-85045357D01*
X81253363Y-85045424D01*
X81253363Y-85045424D01*
G37*
X81253363Y-85045424D02*
X81509512Y-85060984D01*
X81518952Y-85061857D01*
X81873498Y-85116026D01*
X82119221Y-85209433D01*
X82271506Y-85354835D01*
X82345738Y-85564990D01*
X82359500Y-85758853D01*
X82323894Y-86068117D01*
X82208663Y-86284503D01*
X82001186Y-86422468D01*
X81719146Y-86492398D01*
X81351049Y-86530257D01*
X81037090Y-86534537D01*
X80819625Y-86506727D01*
X80770054Y-86479468D01*
X80737661Y-86413647D01*
X80718943Y-86286686D01*
X80710394Y-86076006D01*
X80708500Y-85790727D01*
X80708500Y-85103767D01*
X80879458Y-85060860D01*
X81027364Y-85045357D01*
X81253363Y-85045424D01*
G36*
X67724496Y-83651559D02*
X67790937Y-83787723D01*
X67881621Y-83994290D01*
X67986803Y-84246844D01*
X68096738Y-84520972D01*
X68201679Y-84792258D01*
X68291881Y-85036287D01*
X68357598Y-85228646D01*
X68389084Y-85344918D01*
X68390458Y-85359875D01*
X68330837Y-85379026D01*
X68169922Y-85394499D01*
X67933407Y-85404542D01*
X67691926Y-85407500D01*
X66994353Y-85407500D01*
X67111436Y-85105875D01*
X67187387Y-84906830D01*
X67289014Y-84636003D01*
X67398516Y-84340939D01*
X67438342Y-84232750D01*
X67533430Y-83980532D01*
X67616085Y-83773604D01*
X67674458Y-83641039D01*
X67692044Y-83610212D01*
X67724496Y-83651559D01*
X67724496Y-83651559D01*
G37*
X67724496Y-83651559D02*
X67790937Y-83787723D01*
X67881621Y-83994290D01*
X67986803Y-84246844D01*
X68096738Y-84520972D01*
X68201679Y-84792258D01*
X68291881Y-85036287D01*
X68357598Y-85228646D01*
X68389084Y-85344918D01*
X68390458Y-85359875D01*
X68330837Y-85379026D01*
X68169922Y-85394499D01*
X67933407Y-85404542D01*
X67691926Y-85407500D01*
X66994353Y-85407500D01*
X67111436Y-85105875D01*
X67187387Y-84906830D01*
X67289014Y-84636003D01*
X67398516Y-84340939D01*
X67438342Y-84232750D01*
X67533430Y-83980532D01*
X67616085Y-83773604D01*
X67674458Y-83641039D01*
X67692044Y-83610212D01*
X67724496Y-83651559D01*
G36*
X49427368Y-75875115D02*
X49870151Y-76320728D01*
X50265198Y-76723591D01*
X50605553Y-77076315D01*
X50884263Y-77371514D01*
X51094371Y-77601799D01*
X51228923Y-77759783D01*
X51280963Y-77838078D01*
X51280731Y-77843748D01*
X51194614Y-77876538D01*
X50984881Y-77899334D01*
X50654542Y-77911905D01*
X50352726Y-77914500D01*
X49468447Y-77914500D01*
X49451598Y-79740125D01*
X49434750Y-81565750D01*
X47557135Y-81582552D01*
X47080946Y-81585390D01*
X46646297Y-81585256D01*
X46269302Y-81582372D01*
X45966079Y-81576958D01*
X45752741Y-81569238D01*
X45645406Y-81559433D01*
X45636260Y-81556093D01*
X45625093Y-81483770D01*
X45614996Y-81300935D01*
X45606355Y-81024076D01*
X45599558Y-80669681D01*
X45594991Y-80254235D01*
X45593043Y-79794227D01*
X45593000Y-79713666D01*
X45593000Y-77914500D01*
X44707747Y-77914500D01*
X44292993Y-77909215D01*
X43997992Y-77893492D01*
X43825288Y-77867524D01*
X43778667Y-77843585D01*
X43812242Y-77783055D01*
X43929963Y-77641197D01*
X44124986Y-77425282D01*
X44390465Y-77142579D01*
X44719554Y-76800358D01*
X45105408Y-76405887D01*
X45541180Y-75966437D01*
X45632559Y-75874953D01*
X47530278Y-73977234D01*
X49427368Y-75875115D01*
X49427368Y-75875115D01*
G37*
X49427368Y-75875115D02*
X49870151Y-76320728D01*
X50265198Y-76723591D01*
X50605553Y-77076315D01*
X50884263Y-77371514D01*
X51094371Y-77601799D01*
X51228923Y-77759783D01*
X51280963Y-77838078D01*
X51280731Y-77843748D01*
X51194614Y-77876538D01*
X50984881Y-77899334D01*
X50654542Y-77911905D01*
X50352726Y-77914500D01*
X49468447Y-77914500D01*
X49451598Y-79740125D01*
X49434750Y-81565750D01*
X47557135Y-81582552D01*
X47080946Y-81585390D01*
X46646297Y-81585256D01*
X46269302Y-81582372D01*
X45966079Y-81576958D01*
X45752741Y-81569238D01*
X45645406Y-81559433D01*
X45636260Y-81556093D01*
X45625093Y-81483770D01*
X45614996Y-81300935D01*
X45606355Y-81024076D01*
X45599558Y-80669681D01*
X45594991Y-80254235D01*
X45593043Y-79794227D01*
X45593000Y-79713666D01*
X45593000Y-77914500D01*
X44707747Y-77914500D01*
X44292993Y-77909215D01*
X43997992Y-77893492D01*
X43825288Y-77867524D01*
X43778667Y-77843585D01*
X43812242Y-77783055D01*
X43929963Y-77641197D01*
X44124986Y-77425282D01*
X44390465Y-77142579D01*
X44719554Y-76800358D01*
X45105408Y-76405887D01*
X45541180Y-75966437D01*
X45632559Y-75874953D01*
X47530278Y-73977234D01*
X49427368Y-75875115D01*
G36*
X54906476Y-81419240D02*
X55040675Y-81537045D01*
X55245212Y-81726906D01*
X55510581Y-81979724D01*
X55827280Y-82286398D01*
X56185804Y-82637825D01*
X56576651Y-83024907D01*
X56804477Y-83252229D01*
X58705221Y-85153765D01*
X56797774Y-87061213D01*
X56392674Y-87464271D01*
X56014855Y-87836253D01*
X55673757Y-88168153D01*
X55378822Y-88450966D01*
X55139489Y-88675684D01*
X54965197Y-88833304D01*
X54865388Y-88914818D01*
X54845413Y-88923746D01*
X54829086Y-88847070D01*
X54815411Y-88667857D01*
X54805579Y-88410561D01*
X54800780Y-88099638D01*
X54800500Y-88001390D01*
X54800500Y-87123947D01*
X52974875Y-87107098D01*
X51149250Y-87090250D01*
X51149250Y-83216750D01*
X54800500Y-83183052D01*
X54800500Y-82298773D01*
X54804011Y-81976816D01*
X54813650Y-81702576D01*
X54828070Y-81499940D01*
X54845924Y-81392794D01*
X54852116Y-81382594D01*
X54906476Y-81419240D01*
X54906476Y-81419240D01*
G37*
X54906476Y-81419240D02*
X55040675Y-81537045D01*
X55245212Y-81726906D01*
X55510581Y-81979724D01*
X55827280Y-82286398D01*
X56185804Y-82637825D01*
X56576651Y-83024907D01*
X56804477Y-83252229D01*
X58705221Y-85153765D01*
X56797774Y-87061213D01*
X56392674Y-87464271D01*
X56014855Y-87836253D01*
X55673757Y-88168153D01*
X55378822Y-88450966D01*
X55139489Y-88675684D01*
X54965197Y-88833304D01*
X54865388Y-88914818D01*
X54845413Y-88923746D01*
X54829086Y-88847070D01*
X54815411Y-88667857D01*
X54805579Y-88410561D01*
X54800780Y-88099638D01*
X54800500Y-88001390D01*
X54800500Y-87123947D01*
X52974875Y-87107098D01*
X51149250Y-87090250D01*
X51149250Y-83216750D01*
X54800500Y-83183052D01*
X54800500Y-82298773D01*
X54804011Y-81976816D01*
X54813650Y-81702576D01*
X54828070Y-81499940D01*
X54845924Y-81392794D01*
X54852116Y-81382594D01*
X54906476Y-81419240D01*
G36*
X40227964Y-81403273D02*
X40242312Y-81567702D01*
X40252853Y-81814452D01*
X40258423Y-82121187D01*
X40259000Y-82263276D01*
X40259000Y-83183052D01*
X43910250Y-83216750D01*
X43910250Y-87090250D01*
X42084625Y-87107098D01*
X40259000Y-87123947D01*
X40259000Y-88008226D01*
X40255488Y-88330183D01*
X40245849Y-88604423D01*
X40231429Y-88807059D01*
X40213575Y-88914205D01*
X40207383Y-88924405D01*
X40153023Y-88887759D01*
X40018823Y-88769955D01*
X39814288Y-88580094D01*
X39548920Y-88327279D01*
X39232225Y-88020609D01*
X38873706Y-87669186D01*
X38482866Y-87282111D01*
X38255154Y-87054903D01*
X36354543Y-85153500D01*
X38258750Y-83248500D01*
X38664080Y-82844097D01*
X39042173Y-82468981D01*
X39383526Y-82132424D01*
X39678641Y-81843695D01*
X39918015Y-81612066D01*
X40092149Y-81446807D01*
X40191541Y-81357190D01*
X40210978Y-81343500D01*
X40227964Y-81403273D01*
X40227964Y-81403273D01*
G37*
X40227964Y-81403273D02*
X40242312Y-81567702D01*
X40252853Y-81814452D01*
X40258423Y-82121187D01*
X40259000Y-82263276D01*
X40259000Y-83183052D01*
X43910250Y-83216750D01*
X43910250Y-87090250D01*
X42084625Y-87107098D01*
X40259000Y-87123947D01*
X40259000Y-88008226D01*
X40255488Y-88330183D01*
X40245849Y-88604423D01*
X40231429Y-88807059D01*
X40213575Y-88914205D01*
X40207383Y-88924405D01*
X40153023Y-88887759D01*
X40018823Y-88769955D01*
X39814288Y-88580094D01*
X39548920Y-88327279D01*
X39232225Y-88020609D01*
X38873706Y-87669186D01*
X38482866Y-87282111D01*
X38255154Y-87054903D01*
X36354543Y-85153500D01*
X38258750Y-83248500D01*
X38664080Y-82844097D01*
X39042173Y-82468981D01*
X39383526Y-82132424D01*
X39678641Y-81843695D01*
X39918015Y-81612066D01*
X40092149Y-81446807D01*
X40191541Y-81357190D01*
X40210978Y-81343500D01*
X40227964Y-81403273D01*
G36*
X81889048Y-80918354D02*
X82572661Y-81040447D01*
X83234756Y-81278721D01*
X83427944Y-81373843D01*
X84039436Y-81760363D01*
X84556314Y-82219435D01*
X84978578Y-82738891D01*
X85306228Y-83306564D01*
X85539263Y-83910288D01*
X85677684Y-84537895D01*
X85721491Y-85177220D01*
X85670683Y-85816093D01*
X85525262Y-86442350D01*
X85285225Y-87043823D01*
X84950575Y-87608346D01*
X84521310Y-88123750D01*
X83997431Y-88577871D01*
X83427944Y-88933156D01*
X82802813Y-89193643D01*
X82127663Y-89352685D01*
X81432765Y-89406811D01*
X80748390Y-89352551D01*
X80404685Y-89279815D01*
X79730410Y-89042576D01*
X79127290Y-88710266D01*
X78599316Y-88295102D01*
X78150479Y-87809299D01*
X77784768Y-87265073D01*
X77605909Y-86886010D01*
X80264000Y-86886010D01*
X81105375Y-86849381D01*
X81442374Y-86830264D01*
X81753976Y-86804564D01*
X82007399Y-86775509D01*
X82169861Y-86746327D01*
X82179651Y-86743583D01*
X82438291Y-86607156D01*
X82657102Y-86382461D01*
X82802878Y-86108056D01*
X82835182Y-85982360D01*
X82826841Y-85677978D01*
X82715313Y-85381918D01*
X82520598Y-85133382D01*
X82335885Y-85003707D01*
X82090020Y-84879016D01*
X82296580Y-84772199D01*
X82462018Y-84656577D01*
X82582871Y-84521099D01*
X82587819Y-84512566D01*
X82663175Y-84265217D01*
X82660666Y-83977176D01*
X82582900Y-83706002D01*
X82548372Y-83641553D01*
X82436414Y-83496574D01*
X82288865Y-83387745D01*
X82086371Y-83309147D01*
X81809573Y-83254859D01*
X81439116Y-83218961D01*
X81109368Y-83201422D01*
X80264000Y-83165977D01*
X80264000Y-86886010D01*
X77605909Y-86886010D01*
X77506173Y-86674638D01*
X77318684Y-86050212D01*
X77226292Y-85404009D01*
X77232986Y-84748244D01*
X77342756Y-84095134D01*
X77559592Y-83456894D01*
X77887484Y-82845740D01*
X78174872Y-82453136D01*
X78672822Y-81942816D01*
X79239189Y-81530199D01*
X79858985Y-81218365D01*
X80517220Y-81010392D01*
X81198904Y-80909362D01*
X81889048Y-80918354D01*
X81889048Y-80918354D01*
G37*
X81889048Y-80918354D02*
X82572661Y-81040447D01*
X83234756Y-81278721D01*
X83427944Y-81373843D01*
X84039436Y-81760363D01*
X84556314Y-82219435D01*
X84978578Y-82738891D01*
X85306228Y-83306564D01*
X85539263Y-83910288D01*
X85677684Y-84537895D01*
X85721491Y-85177220D01*
X85670683Y-85816093D01*
X85525262Y-86442350D01*
X85285225Y-87043823D01*
X84950575Y-87608346D01*
X84521310Y-88123750D01*
X83997431Y-88577871D01*
X83427944Y-88933156D01*
X82802813Y-89193643D01*
X82127663Y-89352685D01*
X81432765Y-89406811D01*
X80748390Y-89352551D01*
X80404685Y-89279815D01*
X79730410Y-89042576D01*
X79127290Y-88710266D01*
X78599316Y-88295102D01*
X78150479Y-87809299D01*
X77784768Y-87265073D01*
X77605909Y-86886010D01*
X80264000Y-86886010D01*
X81105375Y-86849381D01*
X81442374Y-86830264D01*
X81753976Y-86804564D01*
X82007399Y-86775509D01*
X82169861Y-86746327D01*
X82179651Y-86743583D01*
X82438291Y-86607156D01*
X82657102Y-86382461D01*
X82802878Y-86108056D01*
X82835182Y-85982360D01*
X82826841Y-85677978D01*
X82715313Y-85381918D01*
X82520598Y-85133382D01*
X82335885Y-85003707D01*
X82090020Y-84879016D01*
X82296580Y-84772199D01*
X82462018Y-84656577D01*
X82582871Y-84521099D01*
X82587819Y-84512566D01*
X82663175Y-84265217D01*
X82660666Y-83977176D01*
X82582900Y-83706002D01*
X82548372Y-83641553D01*
X82436414Y-83496574D01*
X82288865Y-83387745D01*
X82086371Y-83309147D01*
X81809573Y-83254859D01*
X81439116Y-83218961D01*
X81109368Y-83201422D01*
X80264000Y-83165977D01*
X80264000Y-86886010D01*
X77605909Y-86886010D01*
X77506173Y-86674638D01*
X77318684Y-86050212D01*
X77226292Y-85404009D01*
X77232986Y-84748244D01*
X77342756Y-84095134D01*
X77559592Y-83456894D01*
X77887484Y-82845740D01*
X78174872Y-82453136D01*
X78672822Y-81942816D01*
X79239189Y-81530199D01*
X79858985Y-81218365D01*
X80517220Y-81010392D01*
X81198904Y-80909362D01*
X81889048Y-80918354D01*
G36*
X68485412Y-80955818D02*
X68655795Y-80987879D01*
X69346835Y-81202233D01*
X69970738Y-81515820D01*
X70522007Y-81916831D01*
X70995140Y-82393458D01*
X71384637Y-82933894D01*
X71685000Y-83526329D01*
X71890727Y-84158956D01*
X71996319Y-84819966D01*
X71996276Y-85497551D01*
X71885098Y-86179904D01*
X71657285Y-86855215D01*
X71521792Y-87141080D01*
X71232281Y-87597846D01*
X70852096Y-88046092D01*
X70413924Y-88454055D01*
X69950455Y-88789972D01*
X69659500Y-88950644D01*
X68982180Y-89212478D01*
X68286261Y-89362915D01*
X67592042Y-89399287D01*
X66919822Y-89318921D01*
X66897250Y-89314029D01*
X66189926Y-89096161D01*
X65545095Y-88771077D01*
X64971674Y-88345754D01*
X64478577Y-87827163D01*
X64074721Y-87222281D01*
X63973137Y-87026750D01*
X63882486Y-86804500D01*
X66050789Y-86804500D01*
X66522188Y-86804500D01*
X66681863Y-86312375D01*
X66841539Y-85820250D01*
X68603960Y-85820250D01*
X68763636Y-86312375D01*
X68844641Y-86554980D01*
X68905831Y-86700979D01*
X68965590Y-86774886D01*
X69042297Y-86801216D01*
X69132655Y-86804500D01*
X69274057Y-86791857D01*
X69340244Y-86761005D01*
X69340938Y-86756875D01*
X69318733Y-86687752D01*
X69256412Y-86515147D01*
X69159590Y-86254058D01*
X69033884Y-85919484D01*
X68884907Y-85526424D01*
X68718275Y-85089875D01*
X68657461Y-84931250D01*
X67975046Y-83153250D01*
X67721898Y-83134633D01*
X67468750Y-83116017D01*
X67060228Y-84182383D01*
X66899549Y-84601405D01*
X66727266Y-85050011D01*
X66559612Y-85485974D01*
X66412822Y-85867068D01*
X66351248Y-86026625D01*
X66050789Y-86804500D01*
X63882486Y-86804500D01*
X63701094Y-86359782D01*
X63548422Y-85708648D01*
X63512363Y-85054338D01*
X63589515Y-84381210D01*
X63788471Y-83669504D01*
X64096330Y-83016035D01*
X64504703Y-82430341D01*
X65005202Y-81921958D01*
X65589436Y-81500425D01*
X66249018Y-81175278D01*
X66484500Y-81089855D01*
X66936196Y-80980342D01*
X67454555Y-80919887D01*
X67988115Y-80910907D01*
X68485412Y-80955818D01*
X68485412Y-80955818D01*
G37*
X68485412Y-80955818D02*
X68655795Y-80987879D01*
X69346835Y-81202233D01*
X69970738Y-81515820D01*
X70522007Y-81916831D01*
X70995140Y-82393458D01*
X71384637Y-82933894D01*
X71685000Y-83526329D01*
X71890727Y-84158956D01*
X71996319Y-84819966D01*
X71996276Y-85497551D01*
X71885098Y-86179904D01*
X71657285Y-86855215D01*
X71521792Y-87141080D01*
X71232281Y-87597846D01*
X70852096Y-88046092D01*
X70413924Y-88454055D01*
X69950455Y-88789972D01*
X69659500Y-88950644D01*
X68982180Y-89212478D01*
X68286261Y-89362915D01*
X67592042Y-89399287D01*
X66919822Y-89318921D01*
X66897250Y-89314029D01*
X66189926Y-89096161D01*
X65545095Y-88771077D01*
X64971674Y-88345754D01*
X64478577Y-87827163D01*
X64074721Y-87222281D01*
X63973137Y-87026750D01*
X63882486Y-86804500D01*
X66050789Y-86804500D01*
X66522188Y-86804500D01*
X66681863Y-86312375D01*
X66841539Y-85820250D01*
X68603960Y-85820250D01*
X68763636Y-86312375D01*
X68844641Y-86554980D01*
X68905831Y-86700979D01*
X68965590Y-86774886D01*
X69042297Y-86801216D01*
X69132655Y-86804500D01*
X69274057Y-86791857D01*
X69340244Y-86761005D01*
X69340938Y-86756875D01*
X69318733Y-86687752D01*
X69256412Y-86515147D01*
X69159590Y-86254058D01*
X69033884Y-85919484D01*
X68884907Y-85526424D01*
X68718275Y-85089875D01*
X68657461Y-84931250D01*
X67975046Y-83153250D01*
X67721898Y-83134633D01*
X67468750Y-83116017D01*
X67060228Y-84182383D01*
X66899549Y-84601405D01*
X66727266Y-85050011D01*
X66559612Y-85485974D01*
X66412822Y-85867068D01*
X66351248Y-86026625D01*
X66050789Y-86804500D01*
X63882486Y-86804500D01*
X63701094Y-86359782D01*
X63548422Y-85708648D01*
X63512363Y-85054338D01*
X63589515Y-84381210D01*
X63788471Y-83669504D01*
X64096330Y-83016035D01*
X64504703Y-82430341D01*
X65005202Y-81921958D01*
X65589436Y-81500425D01*
X66249018Y-81175278D01*
X66484500Y-81089855D01*
X66936196Y-80980342D01*
X67454555Y-80919887D01*
X67988115Y-80910907D01*
X68485412Y-80955818D01*
G36*
X49466500Y-92392500D02*
X50387250Y-92392500D01*
X50768262Y-92395308D01*
X51036503Y-92404550D01*
X51206095Y-92421448D01*
X51291161Y-92447227D01*
X51308000Y-92472278D01*
X51264530Y-92532789D01*
X51141776Y-92670581D01*
X50951221Y-92874128D01*
X50704347Y-93131903D01*
X50412639Y-93432377D01*
X50087577Y-93764023D01*
X49740646Y-94115314D01*
X49383328Y-94474722D01*
X49027106Y-94830719D01*
X48683464Y-95171779D01*
X48363883Y-95486374D01*
X48079847Y-95762976D01*
X47842839Y-95990058D01*
X47664341Y-96156093D01*
X47555837Y-96249552D01*
X47528949Y-96266000D01*
X47471800Y-96222485D01*
X47334931Y-96098208D01*
X47128060Y-95902572D01*
X46860908Y-95644979D01*
X46543194Y-95334830D01*
X46184637Y-94981528D01*
X45794958Y-94594475D01*
X45608471Y-94408228D01*
X45209075Y-94006808D01*
X44839137Y-93631423D01*
X44508068Y-93291886D01*
X44225278Y-92998015D01*
X44000179Y-92759623D01*
X43842182Y-92586528D01*
X43760699Y-92488543D01*
X43751500Y-92471478D01*
X43785179Y-92438656D01*
X43895358Y-92415552D01*
X44095744Y-92400989D01*
X44400048Y-92393790D01*
X44671276Y-92392500D01*
X45591052Y-92392500D01*
X45624750Y-88741250D01*
X47545625Y-88724443D01*
X49466500Y-88707637D01*
X49466500Y-92392500D01*
X49466500Y-92392500D01*
G37*
X49466500Y-92392500D02*
X50387250Y-92392500D01*
X50768262Y-92395308D01*
X51036503Y-92404550D01*
X51206095Y-92421448D01*
X51291161Y-92447227D01*
X51308000Y-92472278D01*
X51264530Y-92532789D01*
X51141776Y-92670581D01*
X50951221Y-92874128D01*
X50704347Y-93131903D01*
X50412639Y-93432377D01*
X50087577Y-93764023D01*
X49740646Y-94115314D01*
X49383328Y-94474722D01*
X49027106Y-94830719D01*
X48683464Y-95171779D01*
X48363883Y-95486374D01*
X48079847Y-95762976D01*
X47842839Y-95990058D01*
X47664341Y-96156093D01*
X47555837Y-96249552D01*
X47528949Y-96266000D01*
X47471800Y-96222485D01*
X47334931Y-96098208D01*
X47128060Y-95902572D01*
X46860908Y-95644979D01*
X46543194Y-95334830D01*
X46184637Y-94981528D01*
X45794958Y-94594475D01*
X45608471Y-94408228D01*
X45209075Y-94006808D01*
X44839137Y-93631423D01*
X44508068Y-93291886D01*
X44225278Y-92998015D01*
X44000179Y-92759623D01*
X43842182Y-92586528D01*
X43760699Y-92488543D01*
X43751500Y-92471478D01*
X43785179Y-92438656D01*
X43895358Y-92415552D01*
X44095744Y-92400989D01*
X44400048Y-92393790D01*
X44671276Y-92392500D01*
X45591052Y-92392500D01*
X45624750Y-88741250D01*
X47545625Y-88724443D01*
X49466500Y-88707637D01*
X49466500Y-92392500D01*
D11*
G36*
X27393413Y-116440525D02*
X27468456Y-116463290D01*
X27478425Y-116466314D01*
X27556774Y-116508193D01*
X27625448Y-116564552D01*
X27681807Y-116633226D01*
X27723686Y-116711575D01*
X27723687Y-116711579D01*
X27749475Y-116796587D01*
X27758182Y-116885000D01*
X27749475Y-116973413D01*
X27726710Y-117048456D01*
X27723686Y-117058425D01*
X27681807Y-117136774D01*
X27625448Y-117205448D01*
X27556774Y-117261807D01*
X27478425Y-117303686D01*
X27468456Y-117306710D01*
X27393413Y-117329475D01*
X27327158Y-117336000D01*
X26682842Y-117336000D01*
X26616587Y-117329475D01*
X26541544Y-117306710D01*
X26531575Y-117303686D01*
X26453226Y-117261807D01*
X26384552Y-117205448D01*
X26328193Y-117136774D01*
X26286314Y-117058425D01*
X26283290Y-117048456D01*
X26260525Y-116973413D01*
X26251818Y-116885000D01*
X26260525Y-116796587D01*
X26286313Y-116711579D01*
X26286314Y-116711575D01*
X26328193Y-116633226D01*
X26384552Y-116564552D01*
X26453226Y-116508193D01*
X26531575Y-116466314D01*
X26541544Y-116463290D01*
X26616587Y-116440525D01*
X26682842Y-116434000D01*
X27327158Y-116434000D01*
X27393413Y-116440525D01*
X27393413Y-116440525D01*
G37*
G36*
X33664672Y-109233449D02*
X33664674Y-109233450D01*
X33664675Y-109233450D01*
X33733103Y-109261793D01*
X33794409Y-109302757D01*
X33794689Y-109302944D01*
X33847056Y-109355311D01*
X33847058Y-109355314D01*
X33888207Y-109416897D01*
X33913338Y-109477570D01*
X33916551Y-109485328D01*
X33931000Y-109557966D01*
X33931000Y-109632034D01*
X33916895Y-109702944D01*
X33916550Y-109704675D01*
X33888207Y-109773103D01*
X33858944Y-109816897D01*
X33847056Y-109834689D01*
X33794689Y-109887056D01*
X33794686Y-109887058D01*
X33733103Y-109928207D01*
X33664675Y-109956550D01*
X33664674Y-109956550D01*
X33664672Y-109956551D01*
X33592034Y-109971000D01*
X33517966Y-109971000D01*
X33445328Y-109956551D01*
X33445326Y-109956550D01*
X33445325Y-109956550D01*
X33401902Y-109938564D01*
X33378456Y-109931452D01*
X33354069Y-109929050D01*
X33329683Y-109931452D01*
X33306234Y-109938565D01*
X33284623Y-109950116D01*
X33265681Y-109965661D01*
X33250135Y-109984603D01*
X33238584Y-110006214D01*
X33231471Y-110029664D01*
X33231000Y-110032032D01*
X33231000Y-110032033D01*
X33216550Y-110104675D01*
X33188207Y-110173103D01*
X33147243Y-110234409D01*
X33147056Y-110234689D01*
X33094687Y-110287058D01*
X33088687Y-110291067D01*
X33069745Y-110306612D01*
X33054200Y-110325554D01*
X33042649Y-110347165D01*
X33035536Y-110370614D01*
X33033134Y-110395001D01*
X33035536Y-110419387D01*
X33042649Y-110442836D01*
X33054201Y-110464447D01*
X33069746Y-110483389D01*
X33088687Y-110498933D01*
X33094687Y-110502942D01*
X33147056Y-110555311D01*
X33147058Y-110555314D01*
X33188207Y-110616897D01*
X33216550Y-110685325D01*
X33216551Y-110685328D01*
X33231471Y-110760336D01*
X33238584Y-110783785D01*
X33250135Y-110805396D01*
X33265680Y-110824338D01*
X33284622Y-110839883D01*
X33306233Y-110851435D01*
X33329682Y-110858548D01*
X33354068Y-110860950D01*
X33378455Y-110858548D01*
X33401902Y-110851436D01*
X33445325Y-110833450D01*
X33445326Y-110833450D01*
X33445328Y-110833449D01*
X33517966Y-110819000D01*
X33592034Y-110819000D01*
X33664672Y-110833449D01*
X33664674Y-110833450D01*
X33664675Y-110833450D01*
X33733103Y-110861793D01*
X33788786Y-110899000D01*
X33794689Y-110902944D01*
X33847056Y-110955311D01*
X33847058Y-110955314D01*
X33888207Y-111016897D01*
X33916550Y-111085325D01*
X33916551Y-111085328D01*
X33931000Y-111157966D01*
X33931000Y-111232034D01*
X33917693Y-111298933D01*
X33916550Y-111304675D01*
X33888207Y-111373103D01*
X33858944Y-111416897D01*
X33847056Y-111434689D01*
X33794687Y-111487058D01*
X33788687Y-111491067D01*
X33769745Y-111506612D01*
X33754200Y-111525554D01*
X33742649Y-111547165D01*
X33735536Y-111570614D01*
X33733134Y-111595001D01*
X33735536Y-111619387D01*
X33742649Y-111642836D01*
X33754201Y-111664447D01*
X33769746Y-111683389D01*
X33788687Y-111698933D01*
X33794687Y-111702942D01*
X33847056Y-111755311D01*
X33847058Y-111755314D01*
X33888207Y-111816897D01*
X33916550Y-111885325D01*
X33916551Y-111885328D01*
X33931000Y-111957966D01*
X33931000Y-112032033D01*
X33916550Y-112104675D01*
X33888207Y-112173103D01*
X33847243Y-112234409D01*
X33847056Y-112234689D01*
X33794687Y-112287058D01*
X33788687Y-112291067D01*
X33769745Y-112306612D01*
X33754200Y-112325554D01*
X33742649Y-112347165D01*
X33735536Y-112370614D01*
X33733134Y-112395001D01*
X33735536Y-112419387D01*
X33742649Y-112442836D01*
X33754201Y-112464447D01*
X33769746Y-112483389D01*
X33788687Y-112498933D01*
X33794687Y-112502942D01*
X33847056Y-112555311D01*
X33847058Y-112555314D01*
X33888207Y-112616897D01*
X33916550Y-112685325D01*
X33916551Y-112685328D01*
X33931000Y-112757966D01*
X33931000Y-112832034D01*
X33916895Y-112902944D01*
X33916550Y-112904675D01*
X33888207Y-112973103D01*
X33858944Y-113016897D01*
X33847056Y-113034689D01*
X33794687Y-113087058D01*
X33788687Y-113091067D01*
X33769745Y-113106612D01*
X33754200Y-113125554D01*
X33742649Y-113147165D01*
X33735536Y-113170614D01*
X33733134Y-113195001D01*
X33735536Y-113219387D01*
X33742649Y-113242836D01*
X33754201Y-113264447D01*
X33769746Y-113283389D01*
X33788687Y-113298933D01*
X33794687Y-113302942D01*
X33847056Y-113355311D01*
X33847058Y-113355314D01*
X33888207Y-113416897D01*
X33912943Y-113476617D01*
X33916551Y-113485328D01*
X33931000Y-113557966D01*
X33931000Y-113632034D01*
X33917693Y-113698933D01*
X33916550Y-113704675D01*
X33888207Y-113773103D01*
X33858944Y-113816897D01*
X33847056Y-113834689D01*
X33794689Y-113887056D01*
X33794686Y-113887058D01*
X33733103Y-113928207D01*
X33664675Y-113956550D01*
X33664674Y-113956550D01*
X33664672Y-113956551D01*
X33592034Y-113971000D01*
X33517966Y-113971000D01*
X33445328Y-113956551D01*
X33445326Y-113956550D01*
X33445325Y-113956550D01*
X33401902Y-113938564D01*
X33378456Y-113931452D01*
X33354069Y-113929050D01*
X33329683Y-113931452D01*
X33306234Y-113938565D01*
X33284623Y-113950116D01*
X33265681Y-113965661D01*
X33250135Y-113984603D01*
X33238584Y-114006214D01*
X33231471Y-114029664D01*
X33231000Y-114032032D01*
X33231000Y-114032033D01*
X33216550Y-114104675D01*
X33188207Y-114173103D01*
X33147243Y-114234409D01*
X33147056Y-114234689D01*
X33094687Y-114287058D01*
X33088687Y-114291067D01*
X33069745Y-114306612D01*
X33054200Y-114325554D01*
X33042649Y-114347165D01*
X33035536Y-114370614D01*
X33033134Y-114395001D01*
X33035536Y-114419387D01*
X33042649Y-114442836D01*
X33054201Y-114464447D01*
X33069746Y-114483389D01*
X33088687Y-114498933D01*
X33094687Y-114502942D01*
X33147056Y-114555311D01*
X33147058Y-114555314D01*
X33188207Y-114616897D01*
X33216550Y-114685325D01*
X33216551Y-114685328D01*
X33231471Y-114760336D01*
X33238584Y-114783785D01*
X33250135Y-114805396D01*
X33265680Y-114824338D01*
X33284622Y-114839883D01*
X33306233Y-114851435D01*
X33329682Y-114858548D01*
X33354068Y-114860950D01*
X33378455Y-114858548D01*
X33401902Y-114851436D01*
X33445325Y-114833450D01*
X33445326Y-114833450D01*
X33445328Y-114833449D01*
X33517966Y-114819000D01*
X33592034Y-114819000D01*
X33664672Y-114833449D01*
X33664674Y-114833450D01*
X33664675Y-114833450D01*
X33733103Y-114861793D01*
X33794409Y-114902757D01*
X33794689Y-114902944D01*
X33847056Y-114955311D01*
X33847058Y-114955314D01*
X33888207Y-115016897D01*
X33916550Y-115085325D01*
X33916551Y-115085328D01*
X33931000Y-115157966D01*
X33931000Y-115232034D01*
X33916551Y-115304675D01*
X33906406Y-115329166D01*
X33899292Y-115352616D01*
X33896890Y-115377002D01*
X33899292Y-115401388D01*
X33906405Y-115424837D01*
X33917956Y-115446448D01*
X33933501Y-115465391D01*
X33952443Y-115480936D01*
X33974053Y-115492487D01*
X33997503Y-115499601D01*
X34021889Y-115502003D01*
X34046275Y-115499601D01*
X34058176Y-115496620D01*
X34131291Y-115474440D01*
X34205000Y-115467181D01*
X34278710Y-115474440D01*
X34302714Y-115481722D01*
X34326747Y-115486503D01*
X34351252Y-115486503D01*
X34375285Y-115481723D01*
X34397924Y-115472345D01*
X34415002Y-115460935D01*
X34414011Y-115471000D01*
X34416413Y-115495386D01*
X34423526Y-115518835D01*
X34435077Y-115540446D01*
X34450623Y-115559388D01*
X34459713Y-115567627D01*
X34472159Y-115577841D01*
X34519146Y-115635096D01*
X34554057Y-115700410D01*
X34554058Y-115700413D01*
X34554059Y-115700415D01*
X34575559Y-115771291D01*
X34575559Y-115771292D01*
X34575560Y-115771296D01*
X34581000Y-115826529D01*
X34581000Y-116163472D01*
X34575560Y-116218710D01*
X34554060Y-116289585D01*
X34519146Y-116354904D01*
X34472159Y-116412159D01*
X34414908Y-116459143D01*
X34349580Y-116494061D01*
X34278709Y-116515560D01*
X34205000Y-116522819D01*
X34131290Y-116515560D01*
X34060415Y-116494060D01*
X33995096Y-116459146D01*
X33937844Y-116412162D01*
X33925648Y-116397300D01*
X33908321Y-116379973D01*
X33887946Y-116366359D01*
X33865308Y-116356981D01*
X33841274Y-116352200D01*
X33816770Y-116352200D01*
X33792736Y-116356980D01*
X33770097Y-116366357D01*
X33749722Y-116379970D01*
X33732395Y-116397297D01*
X33718781Y-116417672D01*
X33709403Y-116440310D01*
X33704622Y-116464344D01*
X33704622Y-116488850D01*
X33708182Y-116525000D01*
X33699475Y-116613413D01*
X33676710Y-116688456D01*
X33673686Y-116698425D01*
X33631807Y-116776774D01*
X33575448Y-116845448D01*
X33506774Y-116901807D01*
X33428425Y-116943686D01*
X33418456Y-116946710D01*
X33343413Y-116969475D01*
X33277158Y-116976000D01*
X32632842Y-116976000D01*
X32566587Y-116969475D01*
X32491544Y-116946710D01*
X32481575Y-116943686D01*
X32403226Y-116901807D01*
X32334552Y-116845448D01*
X32278193Y-116776774D01*
X32236314Y-116698425D01*
X32233290Y-116688456D01*
X32210525Y-116613413D01*
X32201818Y-116525000D01*
X32210525Y-116436587D01*
X32234674Y-116356981D01*
X32236314Y-116351575D01*
X32278193Y-116273226D01*
X32334552Y-116204552D01*
X32403226Y-116148193D01*
X32481575Y-116106314D01*
X32491544Y-116103290D01*
X32566587Y-116080525D01*
X32632842Y-116074000D01*
X33277158Y-116074000D01*
X33343413Y-116080525D01*
X33418456Y-116103290D01*
X33428425Y-116106314D01*
X33506774Y-116148193D01*
X33570436Y-116200439D01*
X33575448Y-116204552D01*
X33607374Y-116243454D01*
X33624701Y-116260781D01*
X33645076Y-116274394D01*
X33667715Y-116283772D01*
X33691748Y-116288552D01*
X33716253Y-116288552D01*
X33740286Y-116283771D01*
X33762925Y-116274394D01*
X33783300Y-116260780D01*
X33800627Y-116243453D01*
X33814240Y-116223078D01*
X33823618Y-116200439D01*
X33829000Y-116164154D01*
X33829000Y-115826528D01*
X33834440Y-115771292D01*
X33856620Y-115698177D01*
X33861401Y-115674143D01*
X33861401Y-115649639D01*
X33856621Y-115625605D01*
X33847244Y-115602966D01*
X33833630Y-115582592D01*
X33816303Y-115565264D01*
X33795929Y-115551650D01*
X33773290Y-115542273D01*
X33749256Y-115537492D01*
X33724752Y-115537492D01*
X33700718Y-115542272D01*
X33689166Y-115546406D01*
X33664675Y-115556551D01*
X33592034Y-115571000D01*
X33517966Y-115571000D01*
X33445328Y-115556551D01*
X33445326Y-115556550D01*
X33445325Y-115556550D01*
X33376897Y-115528207D01*
X33315314Y-115487058D01*
X33315311Y-115487056D01*
X33262944Y-115434689D01*
X33240693Y-115401388D01*
X33221793Y-115373103D01*
X33193450Y-115304675D01*
X33179000Y-115232033D01*
X33179000Y-115232032D01*
X33178529Y-115229664D01*
X33171416Y-115206215D01*
X33159865Y-115184604D01*
X33144320Y-115165662D01*
X33125378Y-115150117D01*
X33103767Y-115138565D01*
X33080318Y-115131452D01*
X33055932Y-115129050D01*
X33031545Y-115131452D01*
X33008098Y-115138564D01*
X32964675Y-115156550D01*
X32964674Y-115156550D01*
X32964672Y-115156551D01*
X32892034Y-115171000D01*
X32817966Y-115171000D01*
X32745328Y-115156551D01*
X32745326Y-115156550D01*
X32745325Y-115156550D01*
X32676897Y-115128207D01*
X32615314Y-115087058D01*
X32615311Y-115087056D01*
X32562944Y-115034689D01*
X32551056Y-115016897D01*
X32521793Y-114973103D01*
X32493450Y-114904675D01*
X32493106Y-114902944D01*
X32479000Y-114832034D01*
X32479000Y-114757966D01*
X32493449Y-114685328D01*
X32493450Y-114685325D01*
X32521793Y-114616897D01*
X32562942Y-114555314D01*
X32562944Y-114555311D01*
X32615313Y-114502942D01*
X32621313Y-114498933D01*
X32640255Y-114483388D01*
X32655800Y-114464446D01*
X32667351Y-114442835D01*
X32674464Y-114419386D01*
X32676866Y-114394999D01*
X32674464Y-114370613D01*
X32667351Y-114347164D01*
X32655799Y-114325553D01*
X32640254Y-114306611D01*
X32621313Y-114291067D01*
X32615313Y-114287058D01*
X32562944Y-114234689D01*
X32562757Y-114234409D01*
X32521793Y-114173103D01*
X32493450Y-114104675D01*
X32479000Y-114032033D01*
X32479000Y-113957966D01*
X32493449Y-113885328D01*
X32493450Y-113885325D01*
X32521793Y-113816897D01*
X32562942Y-113755314D01*
X32562944Y-113755311D01*
X32615313Y-113702942D01*
X32621313Y-113698933D01*
X32640255Y-113683388D01*
X32655800Y-113664446D01*
X32667351Y-113642835D01*
X32674464Y-113619386D01*
X32676866Y-113594999D01*
X32674464Y-113570613D01*
X32667351Y-113547164D01*
X32655799Y-113525553D01*
X32640254Y-113506611D01*
X32621313Y-113491067D01*
X32615313Y-113487058D01*
X32562944Y-113434689D01*
X32548461Y-113413014D01*
X32521793Y-113373103D01*
X32493450Y-113304675D01*
X32492308Y-113298933D01*
X32479000Y-113232034D01*
X32479000Y-113157966D01*
X32493449Y-113085328D01*
X32514424Y-113034689D01*
X32521793Y-113016897D01*
X32562942Y-112955314D01*
X32562944Y-112955311D01*
X32615311Y-112902944D01*
X32615591Y-112902757D01*
X32676897Y-112861793D01*
X32745325Y-112833450D01*
X32745326Y-112833450D01*
X32745328Y-112833449D01*
X32817966Y-112819000D01*
X32892034Y-112819000D01*
X32964672Y-112833449D01*
X32964674Y-112833450D01*
X32964675Y-112833450D01*
X33008098Y-112851436D01*
X33031544Y-112858548D01*
X33055931Y-112860950D01*
X33080317Y-112858548D01*
X33103766Y-112851435D01*
X33125377Y-112839884D01*
X33144319Y-112824339D01*
X33159865Y-112805397D01*
X33171416Y-112783786D01*
X33178529Y-112760336D01*
X33193449Y-112685328D01*
X33193450Y-112685325D01*
X33221793Y-112616897D01*
X33262942Y-112555314D01*
X33262944Y-112555311D01*
X33315313Y-112502942D01*
X33321313Y-112498933D01*
X33340255Y-112483388D01*
X33355800Y-112464446D01*
X33367351Y-112442835D01*
X33374464Y-112419386D01*
X33376866Y-112394999D01*
X33374464Y-112370613D01*
X33367351Y-112347164D01*
X33355799Y-112325553D01*
X33340254Y-112306611D01*
X33321313Y-112291067D01*
X33315313Y-112287058D01*
X33262944Y-112234689D01*
X33262757Y-112234409D01*
X33221793Y-112173103D01*
X33193450Y-112104675D01*
X33179000Y-112032033D01*
X33179000Y-112032032D01*
X33178529Y-112029664D01*
X33171416Y-112006215D01*
X33159865Y-111984604D01*
X33144320Y-111965662D01*
X33125378Y-111950117D01*
X33103767Y-111938565D01*
X33080318Y-111931452D01*
X33055932Y-111929050D01*
X33031545Y-111931452D01*
X33008098Y-111938564D01*
X32964675Y-111956550D01*
X32964674Y-111956550D01*
X32964672Y-111956551D01*
X32892034Y-111971000D01*
X32817966Y-111971000D01*
X32745328Y-111956551D01*
X32745326Y-111956550D01*
X32745325Y-111956550D01*
X32676897Y-111928207D01*
X32615314Y-111887058D01*
X32615311Y-111887056D01*
X32562944Y-111834689D01*
X32551056Y-111816897D01*
X32521793Y-111773103D01*
X32493450Y-111704675D01*
X32492308Y-111698933D01*
X32479000Y-111632034D01*
X32479000Y-111557966D01*
X32493449Y-111485328D01*
X32506618Y-111453534D01*
X32521793Y-111416897D01*
X32562942Y-111355314D01*
X32562944Y-111355311D01*
X32615313Y-111302942D01*
X32621313Y-111298933D01*
X32640255Y-111283388D01*
X32655800Y-111264446D01*
X32667351Y-111242835D01*
X32674464Y-111219386D01*
X32676866Y-111194999D01*
X32674464Y-111170613D01*
X32667351Y-111147164D01*
X32655799Y-111125553D01*
X32640254Y-111106611D01*
X32621313Y-111091067D01*
X32615313Y-111087058D01*
X32562944Y-111034689D01*
X32551056Y-111016897D01*
X32521793Y-110973103D01*
X32493450Y-110904675D01*
X32493106Y-110902944D01*
X32479000Y-110832034D01*
X32479000Y-110757966D01*
X32493449Y-110685328D01*
X32493450Y-110685325D01*
X32521793Y-110616897D01*
X32562942Y-110555314D01*
X32562944Y-110555311D01*
X32615313Y-110502942D01*
X32621313Y-110498933D01*
X32640255Y-110483388D01*
X32655800Y-110464446D01*
X32667351Y-110442835D01*
X32674464Y-110419386D01*
X32676866Y-110394999D01*
X32674464Y-110370613D01*
X32667351Y-110347164D01*
X32655799Y-110325553D01*
X32640254Y-110306611D01*
X32621313Y-110291067D01*
X32615313Y-110287058D01*
X32562944Y-110234689D01*
X32562757Y-110234409D01*
X32521793Y-110173103D01*
X32493450Y-110104675D01*
X32479000Y-110032033D01*
X32479000Y-109957966D01*
X32493449Y-109885328D01*
X32493450Y-109885325D01*
X32521793Y-109816897D01*
X32562942Y-109755314D01*
X32562944Y-109755311D01*
X32615311Y-109702944D01*
X32615591Y-109702757D01*
X32676897Y-109661793D01*
X32745325Y-109633450D01*
X32745326Y-109633450D01*
X32745328Y-109633449D01*
X32817966Y-109619000D01*
X32892034Y-109619000D01*
X32964672Y-109633449D01*
X32964674Y-109633450D01*
X32964675Y-109633450D01*
X33008098Y-109651436D01*
X33031544Y-109658548D01*
X33055931Y-109660950D01*
X33080317Y-109658548D01*
X33103766Y-109651435D01*
X33125377Y-109639884D01*
X33144319Y-109624339D01*
X33159865Y-109605397D01*
X33171416Y-109583786D01*
X33178529Y-109560336D01*
X33180458Y-109550640D01*
X33193450Y-109485325D01*
X33221793Y-109416897D01*
X33262942Y-109355314D01*
X33262944Y-109355311D01*
X33315311Y-109302944D01*
X33315591Y-109302757D01*
X33376897Y-109261793D01*
X33445325Y-109233450D01*
X33445326Y-109233450D01*
X33445328Y-109233449D01*
X33517966Y-109219000D01*
X33592034Y-109219000D01*
X33664672Y-109233449D01*
X33664672Y-109233449D01*
G37*
G36*
X35266000Y-115346000D02*
X34539011Y-115346000D01*
X34514625Y-115348402D01*
X34491176Y-115355515D01*
X34469565Y-115367066D01*
X34463512Y-115372034D01*
X34464000Y-115362105D01*
X34464000Y-109444000D01*
X35266000Y-109444000D01*
X35266000Y-115346000D01*
X35266000Y-115346000D01*
G37*
G36*
X91078600Y-113402989D02*
X91111649Y-113413014D01*
X91142106Y-113429294D01*
X91168799Y-113451201D01*
X91190706Y-113477894D01*
X91206986Y-113508351D01*
X91217011Y-113541400D01*
X91221000Y-113581904D01*
X91221000Y-115018096D01*
X91217011Y-115058600D01*
X91206986Y-115091649D01*
X91190706Y-115122106D01*
X91168799Y-115148799D01*
X91142106Y-115170706D01*
X91111649Y-115186986D01*
X91078600Y-115197011D01*
X91038096Y-115201000D01*
X89301904Y-115201000D01*
X89261400Y-115197011D01*
X89228351Y-115186986D01*
X89197894Y-115170706D01*
X89171201Y-115148799D01*
X89149294Y-115122106D01*
X89133014Y-115091649D01*
X89122989Y-115058600D01*
X89119000Y-115018096D01*
X89119000Y-113581904D01*
X89122989Y-113541400D01*
X89133014Y-113508351D01*
X89149294Y-113477894D01*
X89171201Y-113451201D01*
X89197894Y-113429294D01*
X89228351Y-113413014D01*
X89261400Y-113402989D01*
X89301904Y-113399000D01*
X91038096Y-113399000D01*
X91078600Y-113402989D01*
X91078600Y-113402989D01*
G37*
G36*
X90421848Y-110904672D02*
X90496627Y-110912037D01*
X90601995Y-110944000D01*
X90666467Y-110963557D01*
X90799538Y-111034686D01*
X90822991Y-111047222D01*
X90858729Y-111076552D01*
X90960186Y-111159814D01*
X91043448Y-111261271D01*
X91072778Y-111297009D01*
X91072779Y-111297011D01*
X91156443Y-111453533D01*
X91172544Y-111506612D01*
X91207963Y-111623373D01*
X91225359Y-111800000D01*
X91207963Y-111976627D01*
X91173616Y-112089853D01*
X91156443Y-112146467D01*
X91082348Y-112285087D01*
X91072778Y-112302991D01*
X91043448Y-112338729D01*
X90960186Y-112440186D01*
X90883716Y-112502942D01*
X90822991Y-112552778D01*
X90805087Y-112562348D01*
X90666467Y-112636443D01*
X90609853Y-112653616D01*
X90496627Y-112687963D01*
X90430443Y-112694481D01*
X90364260Y-112701000D01*
X89975740Y-112701000D01*
X89909557Y-112694481D01*
X89843373Y-112687963D01*
X89730147Y-112653616D01*
X89673533Y-112636443D01*
X89534913Y-112562348D01*
X89517009Y-112552778D01*
X89456284Y-112502942D01*
X89379814Y-112440186D01*
X89296552Y-112338729D01*
X89267222Y-112302991D01*
X89257652Y-112285087D01*
X89183557Y-112146467D01*
X89166384Y-112089853D01*
X89132037Y-111976627D01*
X89114641Y-111800000D01*
X89132037Y-111623373D01*
X89167456Y-111506612D01*
X89183557Y-111453533D01*
X89267221Y-111297011D01*
X89267222Y-111297009D01*
X89296552Y-111261271D01*
X89379814Y-111159814D01*
X89481271Y-111076552D01*
X89517009Y-111047222D01*
X89540462Y-111034686D01*
X89673533Y-110963557D01*
X89738005Y-110944000D01*
X89843373Y-110912037D01*
X89918152Y-110904672D01*
X89975740Y-110899000D01*
X90364260Y-110899000D01*
X90421848Y-110904672D01*
X90421848Y-110904672D01*
G37*
G36*
X48848617Y-109372965D02*
X48881430Y-109382918D01*
X48911667Y-109399080D01*
X48938170Y-109420830D01*
X48959920Y-109447333D01*
X48976082Y-109477570D01*
X48986035Y-109510383D01*
X48990000Y-109550640D01*
X48990000Y-110514360D01*
X48986035Y-110554617D01*
X48976082Y-110587430D01*
X48959920Y-110617667D01*
X48938170Y-110644170D01*
X48911667Y-110665920D01*
X48881430Y-110682082D01*
X48848617Y-110692035D01*
X48808360Y-110696000D01*
X48219640Y-110696000D01*
X48179383Y-110692035D01*
X48146570Y-110682082D01*
X48116333Y-110665920D01*
X48089830Y-110644170D01*
X48068080Y-110617667D01*
X48051918Y-110587430D01*
X48041965Y-110554617D01*
X48038000Y-110514360D01*
X48038000Y-109550640D01*
X48041965Y-109510383D01*
X48051918Y-109477570D01*
X48068080Y-109447333D01*
X48089830Y-109420830D01*
X48116333Y-109399080D01*
X48146570Y-109382918D01*
X48179383Y-109372965D01*
X48219640Y-109369000D01*
X48808360Y-109369000D01*
X48848617Y-109372965D01*
X48848617Y-109372965D01*
G37*
G36*
X45673617Y-109372965D02*
X45706430Y-109382918D01*
X45736667Y-109399080D01*
X45763170Y-109420830D01*
X45784920Y-109447333D01*
X45801082Y-109477570D01*
X45811035Y-109510383D01*
X45815000Y-109550640D01*
X45815000Y-110514360D01*
X45811035Y-110554617D01*
X45801082Y-110587430D01*
X45784920Y-110617667D01*
X45763170Y-110644170D01*
X45736667Y-110665920D01*
X45706430Y-110682082D01*
X45673617Y-110692035D01*
X45633360Y-110696000D01*
X45044640Y-110696000D01*
X45004383Y-110692035D01*
X44971570Y-110682082D01*
X44941333Y-110665920D01*
X44914830Y-110644170D01*
X44893080Y-110617667D01*
X44876918Y-110587430D01*
X44866965Y-110554617D01*
X44863000Y-110514360D01*
X44863000Y-109550640D01*
X44866965Y-109510383D01*
X44876918Y-109477570D01*
X44893080Y-109447333D01*
X44914830Y-109420830D01*
X44941333Y-109399080D01*
X44971570Y-109382918D01*
X45004383Y-109372965D01*
X45044640Y-109369000D01*
X45633360Y-109369000D01*
X45673617Y-109372965D01*
X45673617Y-109372965D01*
G37*
G36*
X47324617Y-109372965D02*
X47357430Y-109382918D01*
X47387667Y-109399080D01*
X47414170Y-109420830D01*
X47435920Y-109447333D01*
X47452082Y-109477570D01*
X47462035Y-109510383D01*
X47466000Y-109550640D01*
X47466000Y-110514360D01*
X47462035Y-110554617D01*
X47452082Y-110587430D01*
X47435920Y-110617667D01*
X47414170Y-110644170D01*
X47387667Y-110665920D01*
X47357430Y-110682082D01*
X47324617Y-110692035D01*
X47284360Y-110696000D01*
X46695640Y-110696000D01*
X46655383Y-110692035D01*
X46622570Y-110682082D01*
X46592333Y-110665920D01*
X46565830Y-110644170D01*
X46544080Y-110617667D01*
X46527918Y-110587430D01*
X46517965Y-110554617D01*
X46514000Y-110514360D01*
X46514000Y-109550640D01*
X46517965Y-109510383D01*
X46527918Y-109477570D01*
X46544080Y-109447333D01*
X46565830Y-109420830D01*
X46592333Y-109399080D01*
X46622570Y-109382918D01*
X46655383Y-109372965D01*
X46695640Y-109369000D01*
X47284360Y-109369000D01*
X47324617Y-109372965D01*
X47324617Y-109372965D01*
G37*
G36*
X34314672Y-108433449D02*
X34314674Y-108433450D01*
X34314675Y-108433450D01*
X34383103Y-108461793D01*
X34444409Y-108502757D01*
X34444689Y-108502944D01*
X34497056Y-108555311D01*
X34497058Y-108555314D01*
X34538207Y-108616897D01*
X34566550Y-108685325D01*
X34566551Y-108685328D01*
X34581000Y-108757966D01*
X34581000Y-108832034D01*
X34569597Y-108889360D01*
X34566550Y-108904675D01*
X34538207Y-108973103D01*
X34499594Y-109030890D01*
X34497056Y-109034689D01*
X34444689Y-109087056D01*
X34444686Y-109087058D01*
X34383103Y-109128207D01*
X34314675Y-109156550D01*
X34314674Y-109156550D01*
X34314672Y-109156551D01*
X34242034Y-109171000D01*
X34167966Y-109171000D01*
X34095328Y-109156551D01*
X34095326Y-109156550D01*
X34095325Y-109156550D01*
X34026897Y-109128207D01*
X33965314Y-109087058D01*
X33965311Y-109087056D01*
X33912944Y-109034689D01*
X33910406Y-109030890D01*
X33871793Y-108973103D01*
X33843450Y-108904675D01*
X33840404Y-108889360D01*
X33829000Y-108832034D01*
X33829000Y-108757966D01*
X33843449Y-108685328D01*
X33843450Y-108685325D01*
X33871793Y-108616897D01*
X33912942Y-108555314D01*
X33912944Y-108555311D01*
X33965311Y-108502944D01*
X33965591Y-108502757D01*
X34026897Y-108461793D01*
X34095325Y-108433450D01*
X34095326Y-108433450D01*
X34095328Y-108433449D01*
X34167966Y-108419000D01*
X34242034Y-108419000D01*
X34314672Y-108433449D01*
X34314672Y-108433449D01*
G37*
G36*
X48848617Y-107747965D02*
X48881430Y-107757918D01*
X48911667Y-107774080D01*
X48938170Y-107795830D01*
X48959920Y-107822333D01*
X48976082Y-107852570D01*
X48986035Y-107885383D01*
X48990000Y-107925640D01*
X48990000Y-108889360D01*
X48986035Y-108929617D01*
X48976082Y-108962430D01*
X48959920Y-108992667D01*
X48938170Y-109019170D01*
X48911667Y-109040920D01*
X48881430Y-109057082D01*
X48848617Y-109067035D01*
X48808360Y-109071000D01*
X48219640Y-109071000D01*
X48179383Y-109067035D01*
X48146570Y-109057082D01*
X48116333Y-109040920D01*
X48089830Y-109019170D01*
X48068080Y-108992667D01*
X48051918Y-108962430D01*
X48041965Y-108929617D01*
X48038000Y-108889360D01*
X48038000Y-107925640D01*
X48041965Y-107885383D01*
X48051918Y-107852570D01*
X48068080Y-107822333D01*
X48089830Y-107795830D01*
X48116333Y-107774080D01*
X48146570Y-107757918D01*
X48179383Y-107747965D01*
X48219640Y-107744000D01*
X48808360Y-107744000D01*
X48848617Y-107747965D01*
X48848617Y-107747965D01*
G37*
G36*
X45673617Y-107747965D02*
X45706430Y-107757918D01*
X45736667Y-107774080D01*
X45763170Y-107795830D01*
X45784920Y-107822333D01*
X45801082Y-107852570D01*
X45811035Y-107885383D01*
X45815000Y-107925640D01*
X45815000Y-108889360D01*
X45811035Y-108929617D01*
X45801082Y-108962430D01*
X45784920Y-108992667D01*
X45763170Y-109019170D01*
X45736667Y-109040920D01*
X45706430Y-109057082D01*
X45673617Y-109067035D01*
X45633360Y-109071000D01*
X45044640Y-109071000D01*
X45004383Y-109067035D01*
X44971570Y-109057082D01*
X44941333Y-109040920D01*
X44914830Y-109019170D01*
X44893080Y-108992667D01*
X44876918Y-108962430D01*
X44866965Y-108929617D01*
X44863000Y-108889360D01*
X44863000Y-107925640D01*
X44866965Y-107885383D01*
X44876918Y-107852570D01*
X44893080Y-107822333D01*
X44914830Y-107795830D01*
X44941333Y-107774080D01*
X44971570Y-107757918D01*
X45004383Y-107747965D01*
X45044640Y-107744000D01*
X45633360Y-107744000D01*
X45673617Y-107747965D01*
X45673617Y-107747965D01*
G37*
G36*
X47324617Y-107747965D02*
X47357430Y-107757918D01*
X47387667Y-107774080D01*
X47414170Y-107795830D01*
X47435920Y-107822333D01*
X47452082Y-107852570D01*
X47462035Y-107885383D01*
X47466000Y-107925640D01*
X47466000Y-108889360D01*
X47462035Y-108929617D01*
X47452082Y-108962430D01*
X47435920Y-108992667D01*
X47414170Y-109019170D01*
X47387667Y-109040920D01*
X47357430Y-109057082D01*
X47324617Y-109067035D01*
X47284360Y-109071000D01*
X46695640Y-109071000D01*
X46655383Y-109067035D01*
X46622570Y-109057082D01*
X46592333Y-109040920D01*
X46565830Y-109019170D01*
X46544080Y-108992667D01*
X46527918Y-108962430D01*
X46517965Y-108929617D01*
X46514000Y-108889360D01*
X46514000Y-107925640D01*
X46517965Y-107885383D01*
X46527918Y-107852570D01*
X46544080Y-107822333D01*
X46565830Y-107795830D01*
X46592333Y-107774080D01*
X46622570Y-107757918D01*
X46655383Y-107747965D01*
X46695640Y-107744000D01*
X47284360Y-107744000D01*
X47324617Y-107747965D01*
X47324617Y-107747965D01*
G37*
G36*
X33343413Y-107820525D02*
X33418456Y-107843290D01*
X33428425Y-107846314D01*
X33506774Y-107888193D01*
X33575448Y-107944552D01*
X33631807Y-108013226D01*
X33673686Y-108091575D01*
X33673687Y-108091579D01*
X33699475Y-108176587D01*
X33708182Y-108265000D01*
X33699475Y-108353413D01*
X33676710Y-108428456D01*
X33673686Y-108438425D01*
X33631807Y-108516774D01*
X33575448Y-108585448D01*
X33506774Y-108641807D01*
X33428425Y-108683686D01*
X33423012Y-108685328D01*
X33343413Y-108709475D01*
X33277158Y-108716000D01*
X32632842Y-108716000D01*
X32566587Y-108709475D01*
X32486988Y-108685328D01*
X32481575Y-108683686D01*
X32403226Y-108641807D01*
X32334552Y-108585448D01*
X32278193Y-108516774D01*
X32236314Y-108438425D01*
X32233290Y-108428456D01*
X32210525Y-108353413D01*
X32201818Y-108265000D01*
X32210525Y-108176587D01*
X32236313Y-108091579D01*
X32236314Y-108091575D01*
X32278193Y-108013226D01*
X32334552Y-107944552D01*
X32403226Y-107888193D01*
X32481575Y-107846314D01*
X32491544Y-107843290D01*
X32566587Y-107820525D01*
X32632842Y-107814000D01*
X33277158Y-107814000D01*
X33343413Y-107820525D01*
X33343413Y-107820525D01*
G37*
G36*
X27393413Y-107460525D02*
X27468456Y-107483290D01*
X27478425Y-107486314D01*
X27556774Y-107528193D01*
X27625448Y-107584552D01*
X27681807Y-107653226D01*
X27723686Y-107731575D01*
X27723687Y-107731579D01*
X27749475Y-107816587D01*
X27758182Y-107905000D01*
X27749475Y-107993413D01*
X27726710Y-108068456D01*
X27723686Y-108078425D01*
X27681807Y-108156774D01*
X27625448Y-108225448D01*
X27556774Y-108281807D01*
X27478425Y-108323686D01*
X27468456Y-108326710D01*
X27393413Y-108349475D01*
X27327158Y-108356000D01*
X26682842Y-108356000D01*
X26616587Y-108349475D01*
X26541544Y-108326710D01*
X26531575Y-108323686D01*
X26453226Y-108281807D01*
X26384552Y-108225448D01*
X26328193Y-108156774D01*
X26286314Y-108078425D01*
X26283290Y-108068456D01*
X26260525Y-107993413D01*
X26251818Y-107905000D01*
X26260525Y-107816587D01*
X26286313Y-107731579D01*
X26286314Y-107731575D01*
X26328193Y-107653226D01*
X26384552Y-107584552D01*
X26453226Y-107528193D01*
X26531575Y-107486314D01*
X26541544Y-107483290D01*
X26616587Y-107460525D01*
X26682842Y-107454000D01*
X27327158Y-107454000D01*
X27393413Y-107460525D01*
X27393413Y-107460525D01*
G37*
G36*
X98301000Y-106691000D02*
X92199000Y-106691000D01*
X92199000Y-101589000D01*
X98301000Y-101589000D01*
X98301000Y-106691000D01*
X98301000Y-106691000D01*
G37*
G36*
X26961000Y-105166000D02*
X26059000Y-105166000D01*
X26059000Y-104064000D01*
X26961000Y-104064000D01*
X26961000Y-105166000D01*
X26961000Y-105166000D01*
G37*
G36*
X29171000Y-105166000D02*
X28269000Y-105166000D01*
X28269000Y-104064000D01*
X29171000Y-104064000D01*
X29171000Y-105166000D01*
X29171000Y-105166000D01*
G37*
G36*
X30171000Y-103616000D02*
X28569000Y-103616000D01*
X28569000Y-102814000D01*
X30171000Y-102814000D01*
X30171000Y-103616000D01*
X30171000Y-103616000D01*
G37*
G36*
X27756136Y-101983253D02*
X27847312Y-102021019D01*
X27929372Y-102075850D01*
X27999150Y-102145628D01*
X28053981Y-102227688D01*
X28091747Y-102318864D01*
X28111000Y-102415656D01*
X28111000Y-102514344D01*
X28091747Y-102611136D01*
X28053981Y-102702312D01*
X27999150Y-102784372D01*
X27929372Y-102854150D01*
X27847312Y-102908981D01*
X27756136Y-102946747D01*
X27659344Y-102966000D01*
X27560656Y-102966000D01*
X27463864Y-102946747D01*
X27372688Y-102908981D01*
X27290628Y-102854150D01*
X27220850Y-102784372D01*
X27166019Y-102702312D01*
X27128253Y-102611136D01*
X27109000Y-102514344D01*
X27109000Y-102415656D01*
X27128253Y-102318864D01*
X27166019Y-102227688D01*
X27220850Y-102145628D01*
X27290628Y-102075850D01*
X27372688Y-102021019D01*
X27463864Y-101983253D01*
X27560656Y-101964000D01*
X27659344Y-101964000D01*
X27756136Y-101983253D01*
X27756136Y-101983253D01*
G37*
G36*
X30171000Y-102116000D02*
X28569000Y-102116000D01*
X28569000Y-101314000D01*
X30171000Y-101314000D01*
X30171000Y-102116000D01*
X30171000Y-102116000D01*
G37*
G36*
X98301000Y-101103000D02*
X92199000Y-101103000D01*
X92199000Y-96001000D01*
X98301000Y-96001000D01*
X98301000Y-101103000D01*
X98301000Y-101103000D01*
G37*
G36*
X27756136Y-98983253D02*
X27847312Y-99021019D01*
X27929372Y-99075850D01*
X27999150Y-99145628D01*
X28053981Y-99227688D01*
X28091747Y-99318864D01*
X28111000Y-99415656D01*
X28111000Y-99514344D01*
X28091747Y-99611136D01*
X28053981Y-99702312D01*
X27999150Y-99784372D01*
X27929372Y-99854150D01*
X27847312Y-99908981D01*
X27756136Y-99946747D01*
X27659344Y-99966000D01*
X27560656Y-99966000D01*
X27463864Y-99946747D01*
X27372688Y-99908981D01*
X27290628Y-99854150D01*
X27220850Y-99784372D01*
X27166019Y-99702312D01*
X27128253Y-99611136D01*
X27109000Y-99514344D01*
X27109000Y-99415656D01*
X27128253Y-99318864D01*
X27166019Y-99227688D01*
X27220850Y-99145628D01*
X27290628Y-99075850D01*
X27372688Y-99021019D01*
X27463864Y-98983253D01*
X27560656Y-98964000D01*
X27659344Y-98964000D01*
X27756136Y-98983253D01*
X27756136Y-98983253D01*
G37*
G36*
X30171000Y-99116000D02*
X28569000Y-99116000D01*
X28569000Y-98314000D01*
X30171000Y-98314000D01*
X30171000Y-99116000D01*
X30171000Y-99116000D01*
G37*
G36*
X29171000Y-97866000D02*
X28269000Y-97866000D01*
X28269000Y-96764000D01*
X29171000Y-96764000D01*
X29171000Y-97866000D01*
X29171000Y-97866000D01*
G37*
G36*
X26961000Y-97866000D02*
X26059000Y-97866000D01*
X26059000Y-96764000D01*
X26961000Y-96764000D01*
X26961000Y-97866000D01*
X26961000Y-97866000D01*
G37*
G36*
X28206000Y-95546000D02*
X26404000Y-95546000D01*
X26404000Y-94544000D01*
X28206000Y-94544000D01*
X28206000Y-95546000D01*
X28206000Y-95546000D01*
G37*
G36*
X98301000Y-95515000D02*
X92199000Y-95515000D01*
X92199000Y-90413000D01*
X98301000Y-90413000D01*
X98301000Y-95515000D01*
X98301000Y-95515000D01*
G37*
G36*
X28206000Y-92146000D02*
X26404000Y-92146000D01*
X26404000Y-91144000D01*
X28206000Y-91144000D01*
X28206000Y-92146000D01*
X28206000Y-92146000D01*
G37*
G36*
X98301000Y-89927000D02*
X92199000Y-89927000D01*
X92199000Y-84825000D01*
X98301000Y-84825000D01*
X98301000Y-89927000D01*
X98301000Y-89927000D01*
G37*
G36*
X98301000Y-84339000D02*
X92199000Y-84339000D01*
X92199000Y-79237000D01*
X98301000Y-79237000D01*
X98301000Y-84339000D01*
X98301000Y-84339000D01*
G37*
G36*
X98301000Y-78751000D02*
X92199000Y-78751000D01*
X92199000Y-73649000D01*
X98301000Y-73649000D01*
X98301000Y-78751000D01*
X98301000Y-78751000D01*
G37*
M02*
